<svg xmlns="http://www.w3.org/2000/svg" xmlns:xlink="http://www.w3.org/1999/xlink" x="0" y="0" viewBox="0 0 1500 603" style="enable-background:new 0 0 1500 603"><g id="Layer_5"><g id="ForeRightUp.svg_1_"><path d="m1279.8 301c1-2.9 2.6-5.5 4.6-7.6 4.3-4.4 5.1-9.3 3.6-15.1-2.1-7.9-2-15.7 2.8-23 1.5-2.3 1.9-5.2 2.3-8 1.2-8.9 3.4-17.5 9.7-24.4 3.3.3 2.4 3 2.5 4.9.3 5.7-3 10.3-4.9 15.4-.7 2-2.1 3.8-1.9 6 .7 3.9-1.8 7.3-2.1 11.1-.5 6.6 1.1 12.7 3.6 18.8 2.1 5.1 2.4 10.2-1.2 15-.4 2.5-1.1 4.9-3.4 6.4-.3.2-.6.3-.9.4-1.4.6-3.9.8-3.4 2.7.6 2.3 2.7.2 4.1.3.6.1 1.3-.1 1.9-.2 3.9 0 7.7-1.6 11.6-1 2.2.3 4.7.1 5.2 3.2-5.1 4-11 6.6-17 9.1-2.3 0-4.7 0-7 0-8.3-2.8-10.8-6.3-10.1-14" style="fill:#094577"/><path d="m1501 43c0 6 0 12 0 18-2.8 1.4-4-.9-5.1-2.5-2.5-3.5-4.7-7.2-6.6-11.2-1.1-2.4-2.8-3.2-5.2-2.1-2.1.9-4.4.8-6.3-.1-5.1-2.2-9.5-1.7-13.2 2.6-5.9-1.8-11.3-.5-16.7 2-2.1 1-4.6.7-6.9.6-3.7-.1-7.4.3-10.8 1.7-3.6 1.5-6.8 1.1-9.6-1.7-1.6-2.1-5.2-2.9-4.6-6.5 5.8.2 11.3-2.7 17.4-.1 3.8 1.6 7.5-1.9 10.4-4.7 2.3-2.2 4.5-4.4 7-6.3 3.7-2.9 6.7-2 9.4 2 2.1 3.3 5.8 2.7 9 1.9 1.5-.3 3.1-1.2 4.7-2.4-4.1-1.9-7.8-3.9-12.4-2.4-1.5.5-3.6.5-4.6-1-1.7-2.6-4.3-3.5-6.9-4.6-.9-.4-2.5-.7-1.5-2.4.1-.2.5-.1.7-.4-2-1.1-2-1.1.2-2.6 1.5-.2 3.1-.1 4.6.2 6.4 2.1 13 3.4 19.2 5.9 4.4 2.2 8.7 4.2 13.7 5.3 5.7 1.4 10.3 5.9 14.1 10.8" style="fill:#0f9cca"/><path d="m1462.1 126.2c-1.8.2-3.6.7-5.3.5-4.3-.3-7.2 1.2-8.8 5.3-2.4.7-3.4-.9-4.3-2.7-.1-.5-.1-.9.1-1.4 3-2.8 6.3-5.4 9.6-7.8 11.3-8.3 20.9-18.3 30.2-28.7 2.4-2.7 3.9-5.7 4.9-9.1.1-.5.1-1.1.4-1.4 5.8-5.1 1.1-10.9.9-16.3 0-.7-.3-1.4-1-1.5-6.5-1.4-10-8.3-16.8-9.3-1.3-.7-2.6-1.4-3.8-2.4-.6-.7-.6-1.4.3-2 4.2-1.3 8.4-2.1 12.8-1.4 4.8.5 7.7 2.9 10 7.5 2.8 5.4 5.7 10.8 9.7 15.6 0 3.3 0 6.7 0 10-10.1 17.4-23.4 32.3-38.9 45.1" style="fill:#0fcdee"/><path d="m1367.8 4.9c1.4-1.3 2.8-2.6 4.2-3.9 16 0 32 0 48 0 .9 3.1-1.5 5-3.2 6.8-3 3.3-4.8 7-4.7 11.5-1.9 1.8-4.3 2.4-6.9 2.5-1.7-.4-3.3.1-4.9.5-2.7.7-5.2.6-5.4-3-.1-1.8-1.2-1.2-1.9-1.2-10.4-.4-18-6.4-25.2-13.2" style="fill:#011256"/><path d="m1471 1c9.2 0 18.3.1 27.5-.1 2.2 0 2.7.4 2.6 2.6-.2 4.5-.1 9-.1 13.5-3.7 2.1-6.8-.2-9.9-1.5-9.2-4-18.8-3.6-28.4-2.4-6.3.2-12.6 2.3-19 .9-3.7-2.5-1.3-3.6 1.1-4.4 8.1-2.7 15.6-7.3 24.4-7.6.7-.2 1.3-.6 1.8-1" style="fill:#033b82"/><path d="m1462.1 126.2c-.1-3.4 3.3-3.9 5.1-5.6 11.4-11.1 22.5-22.4 30.4-36.3.7-1.3 1.4-3.2 3.5-3.2 0 4.3 0 8.7 0 13-8.6 11.3-17.3 22.6-28.1 32-3.6 2.5-7.3-.5-10.9.1" style="fill:#0bb8de"/><path d="m1463 12c9.4-1.7 18.6-2 27.6 1.8 3.3 1.4 6.7 2.9 10.4 3.2 0 3 0 6 0 9-2.4 1.9-4.7.4-6.9-.4-6.9-2.6-13.8-5.7-21.4-5.2-5.2-.4-10.3-.7-15.4-1.9-1.4-1.6-.7-3.1.3-4.5 2.7-1.8 5.7-.5 8.3-1-.9-.1-2.1.1-2.9-1" style="fill:#055a97"/><path d="m1473 19c7.6-.7 14.2 2.5 21 5 2.3.8 4.4 2.3 7.1 2 0 3 0 6 0 9-.9.8-1.9.7-2.7.2-7.6-5.3-16.5-6.1-25.3-7.1-6.4-2-12.7-4-19.1-5.9 2.3-4 6.5-1.6 9.6-2.8 3-1 6.3 1.7 9.4-.4" style="fill:#0a6ea9"/><path d="m1412 18.8c-1.9-3.2-.8-6 1.4-8.6 2.5-2.9 5-5.7 6.7-9.2 8 0 16 0 24 0 .4 3.2-2.2 4.1-4.2 5.4-3.2 2-6.9 3.2-10 5.3-1.3.9-3.7 1.4-1.9 4-5.2 2.2-10.3 4.2-16 3.1" style="fill:#012269"/><path d="m1428 15c-.3-.9-3.6-.8-.7-3 3.3-2.5 7.2-4 10.8-6 2.4-1.3 4.6-2.6 5.9-5 9 0 18 0 27 0-.9 2.3-3.3 2.7-5 2.7-8.4.3-14.9 6.3-23 7.5-.7.1-.2 1.1 0 1.7-4.6 3.4-9.7 3.7-15 2.1" style="fill:#023177"/><path d="m1501 71c-1.5 0-2.8-.7-3.2-1.9-2.2-5.7-7.2-9.8-8.8-15.7-1-4-4.9-2.5-7-4.3-3-1.6-6.7-1.2-9.6-3.2-1.5-1-2.2.7-3.2 1.5-2.1 1.8-2.1 1.7-4.2-.3 2.1-4.9 5.4-5.9 10.3-3.9 3.1 1.3 6.3 2.2 9.8.2 1.9-1.1 4.1-.3 5 2.5 1.4 4.4 4.4 8.1 6.8 12.1 1 1.6 2 3.1 4.1 3.2 0 3.1 0 6.5 0 9.8" style="fill:#0db0dc"/><path d="m1472.9 126c-.9-1.1 0-2 .6-2.5 9-7.7 16.7-16.4 23-26.4 1-1.6 2.8-2.3 4.4-3.1 0 3.3 0 6.7 0 10-3.9 4.5-8.6 8.3-10.9 14.1-5.6 2.6-11.4 5.2-17.1 7.9" style="fill:#099fce"/><path d="m1473 28c9-1.9 16.9.9 24.5 5.3 1.1.6 2 1.8 3.5 1.7 0 2.7 0 5.3 0 8-2.2-.9-3.8-2.6-5.6-4-3.8-3-7.3-6.3-13-6.2-3.5 0-6.5-2.7-9.4-4.8" style="fill:#0c84bb"/><path d="m1490.1 118.1c-2.2-2.4.8-3.5 1.6-4.9 2.2-3.9 5-7.4 9.4-9.2 0 3 0 6 0 9-3.4 2.5-7.2 3.7-11 5.1" style="fill:#0982bb"/><path d="m1403.1 172.2c-2.8 2.6-5.6 5.2-8.3 7.7-3.4-2-1.7-4.6-.6-6.8 2.5-5.1 5.9-9.6 9-14.3 1.2-1.8 2.4-3.6 3.2-5.6.6-1 1.5-1.8 2.2-2.7 1-2.9-1.9-1.8-2.9-2.6-2.2-1.6-6-1.8-5.6-5.4.4-3.9-.2-8.6 4.7-10.7 4.9-2.5 11-2.8 14.7-7.8.4-.5 1.1-.9 1.7-.9 4.7.1 8-2.7 11.5-5.3 1.6-1.2 3.8-2.9 5.1.7 0 .7-.1 1.3-.4 1.9-2.2 5.1-2.2 5.1 3.4 6 1.7.3 2.7 1.1 3.3 2.6v.1c-1.2 5.6-4.4 8.7-10.9 8.6 2.6.7 6-.5 4.9 3.7-2.4 1.2-4.9 1.7-7.6 1.4-4.6-2.1-9.2-.1-13.8 0-1.7.9-4.1-.5-5.3 1.6 5.6 4.4 5.5 4.4 1.8 11.3-1.9 3.5-4.3 6.7-6.7 9.9-1.8 2-3 4.1-3.4 6.6" style="fill:#0fe5fd"/><path d="m1328.8 275c.2 7.4.7 14.8-2 22-1.8 1.5-3.6 2.7-6 1.6-2.2-1.5-4.6-1.5-7.1-.9-2.3.5-4.5.9-6.7 0-1.3-1.8-5.1-.4-4.9-3.9 3-.4 6-.2 9-.1-2.3-.2-4.6 0-6.9-.2-.6-.4-1.1-.9-.9-1.6 1.7-6.6-1.4-12.1-3.7-18-4.4-11.3-4.3-22.7 3.5-32.9.4-.3.9-.5 1.5-.6.8-.1 1.6 0 2.2.5.9 1.5-.3 2.3-1.1 3.2-2.8 3.4-2.9 7.7-4.1 11.6-.4 1.4-.3 3.2 1.2 4 1.7 1 2.7-.6 3.8-1.6.6-.6 1.1-1.2 1.7-1.9 1.3-1.4 2.5-3.6 4.9-2 2.1 1.4 3 3.6 1.9 6.1-.5 1.2-.8 2.5-1.2 3.8-.1.5-.3.9-.6 1.3-3.4 8.1-1.1 15.6 5.9 19.9 1.9 1.2 3.1.4 4.1-1.2 1-1.6 1.1-3.5 1.7-5.2.7-1.8 1.2-4 3.8-3.9" style="fill:#0a779a"/><path d="m1407 153c.6 5.2-4.4 7.4-6.2 11.5-1.4 3.3-3.9 6.2-5.7 9.3-1.1 1.9-1.9 4-.3 6.1-1.3 1.7-2.6 3.4-3.8 5.1-3.1 1.9-4.5-.5-5.9-2.5-1.2-1.7-1.9-3.9-4.3-4.5-.4-.2-.8-.6-1.1-1-1.4-5.2 1.5-9 4.5-12.7.8-1.2 1.6-2.5 2.7-3.5.4-.3.9-.5 1.3-.7.7-.2 1.5-.3 2.2-.4 2.9-.8 4.7-3 6.6-5 2.9-3.3 6.2-4 10-1.7" style="fill:#10fafd"/><path d="m1382 219c.7 6-.8 11.3-4.8 16-1.9 2.2-3.5 4.7-5.2 7.1-1.7.7-3 2-4.7 2.9-2.5 1.3-5.1 1.9-7.3-.5-1.8-2.1-3.8-1.7-5.8-.5-3.5 2-7.3 3.3-10.8 5.1-2.7 1.4-5.6 2.1-8.5.3.1-3 2.8-2.3 4.4-3.2 5.6-.8 8.9-5.6 13.6-8 1.5-.4 2.8-1 3.9-2.1 2.7-2.7 5.8-3.6 9.5-1.8 2.7 1.3 5.4.1 4.4-2.9-2.5-7.7 1-11.1 7.7-13 1.3-.5 2.5-.4 3.6.6" style="fill:#0fcfd4"/><path d="m1334.9 248.9c6.6 1.2 11.5-3.3 17.1-5.3 3.4-1.3 6.7-5.4 9.8.8.8 1.5 3.2.4 4.9-.4 1.7-.8 2.7-3.8 5.4-1.9-1 2.8-2.5 5.2-5.1 6.7-6.6 4-13 8.5-20.5 10.7-.9.3-1.8.8-2.8 1-1.4.3-2.7.2-3.6-1.1-.9-1.3-.5-2.5.4-3.6.7-.9 1.9-1.4 2.1-3-4.9-1.1-8.8 3.7-13.7 2.4-1.1-3.2.8-5 3-6.6 1.1-.5 2.1-.6 3 .3" style="fill:#0db4c8"/><path d="m1416 141.9c4.7-.3 9.3-3.6 14 .1-3.2 4.7-6.5 9.3-8 14.9-5.3 6.4-12.2 10.7-18.9 15.3-1.5-2.2-.5-4.1 1-5.7 4.4-4.8 7.1-10.6 10.8-15.9 2-2.9-.7-3-2.2-3.4-1.7-.5-4-.1-2.7-3.1 4.4-2.1 9.4-.2 13.8-2 .6-.3-.4-.7 0-.2-2.6.7-5.2 1.8-7.8 0" style="fill:#0ad9f4"/><path d="m1329 255c4.1-1.4 8.1-3.4 12.5-4 1.2-.2 2.8-.4 3.3 1.3.5 1.6-.6 2.2-1.9 2.9-1.4.7-3.4 1.6-2.1 3.7 1.2 1.9 3.1.3 4.5-.2 6.6-2.3 12.8-5.6 18.6-9.6.9-.6 1.9-1.6 3.1-.4-5.1 7.3-12.8 10.7-21 12.9-4.2 1.1-8.2 2.4-12.1 4.3-3.1 1.6-6.9 2.5-9.3.1-2.1-2.2 1-5.1 1.7-7.7.3-1.4 1.2-2.6 2.7-3.3" style="fill:#0c97bb"/><path d="m1329 255c-1.8 3.3-2 7.2-5 11 3.8 0 6.9 0 9.9 0-.6.6-1.2 1.1-1.8 1.7-3.1.4-5.7 1.9-8.3 3.6-1.7.7-1.8 2.7-3 3.8-2.7 2.6-5.9 1.9-6.7-1.7-.7-3.4-1.1-7.2.7-10.2 2-3.4 2.1-6.8 2-10.4-.1-3.6 1.2-6.5 5.1-7.4 3 1.3.4 2.9.2 4.4-.1 1-.3 2 .8 2.6.9.4 1.6-.2 2.2-.7 1.4-1.1 2.5-2.7 4.2-3.4 1-.2 2-.2 2.7.7-1.1 2-2.9 3.6-3 6" style="fill:#10d0d4"/><path d="m1378 219c-.1 1.1-.7 1.7-1.8 2-5.2 1.4-6.4 3.3-4.5 8 1 2.4 1.4 4.4-.6 6.3-2 1.9-4 1-5.9-.2-2.8-1.8-5.1-.5-7.1 1.4-1.5 1.4-2.8 2.9-5.1 2.6-.7-2.3 1.4-3.2 2.5-4.6 1-1 2.1-1.9 3.4-2.4 2.7-.9 4.6-2.5 5.1-5.6.5-3.7 4.3-6.4 2.8-10.7-.3-.9 1.2-1.5 2.2-1.6 1.7-.3 3.2-.9 4-2.5.3-.4.6-.7.9-1 3.4-1.1 5-5.2 9-5.4-.3 3.7-.6 7.4-1 11-.9.8-2 1.1-3.1 1.1-1.8-.2-1 .8-.8 1.6" style="fill:#15e1e5"/><path d="m1422 156.9c-.1-6.5 3-11.2 8-14.9 2.7 0 5.2-1.5 8-1 1.9-2.5 3.7-2.5 5.4.2-5.7 7.2-13.7 11.3-21.4 15.7" style="fill:#0ecbe9"/><path d="m1324 270c2.4-1.6 4.5-4.7 8.1-2.3-1.5 2.2-3.5 4.2-3.2 7.3-2 1.3-2.6 3.3-2.9 5.5-.4 2.9-1.1 5.8-4.1 6.9-3.2 1.2-4-2.2-5.7-3.8-5-4.4-7.3-9.6-5.2-16.3.4-1.2.6-2.2 2-2.4 2 2.9.6 6.3 1.1 9.4.1.3.1.7.2.9 1.4 2.2 2.9 5 5.7 4.5 3.2-.6 2.7-3.9 2.8-6.5 0-.5.1-1 .1-1.5.2-.6.6-1.2 1.1-1.7" style="fill:#0a8eaa"/><path d="m1382.9 205c-3 1.9-4.8 5.7-8.9 6-6.9-2.9-7.4-6.8-1.6-12.7 3.1-1.1 6.3-1.5 9.4-2.5 1.3-.4 3.3-1.4 3.4 1.5-.8 2.6-1.6 5.1-2.3 7.7" style="fill:#1afbf8"/><path d="m1321 298c2.1.4 4-.6 5.9-1-2.2 6-8.1 6.7-12.9 8.9-3.4-3-7.4-2-11.2-1.5-2.3.3-4.5.6-6.8.6-.4-2.6 1.8-3.1 3.3-4.1 5.1-2 10.6-2.8 15.9-3.8 1.9-.3 4-.6 5.8.9" style="fill:#0a5d8c"/><path d="m1385.2 197.3c-1-1.7-2.2-.7-3.3-.2-3.2 1.2-6.4 2.1-9.9 2-.6-.5-.7-1.1-.6-1.8.2-.9.6-1.7 1.2-2.4.3-.3.7-.5 1.2-.7 2.1-.5 4.4-.1 6.2-1.7.6-.3 1.3-.5 1.9-.6 4.3-1.1 1.6-4 1.3-6-.4-3-3.3-5.4-2.2-8.8 3-.4 3.5 2 4.4 3.9 1.2 2.3 2.4 4.5 5.5 4.1-1.9 4-3 8.5-5.7 12.2" style="fill:#32fbf7"/><path d="m1443.4 141.2c-1.8-1.1-3.6-1.5-5.4-.2-1.2-4.1-5-.6-7.6-3.1 6-1.2 10.9-3.6 13.7-8.9 1.2 1.1 2.3 2.4 3.9 3-.6 3.5-2.4 6.4-4.6 9.2" style="fill:#0fd8f6"/><path d="m1378 219c-1-.9-2.8-.6-3.7-2.5 2.6-1 5.1-.3 7.6-.5 0 1 .1 2 .1 3-1.3 0-2.7 0-4 0" style="fill:#0abcd6"/><path d="m1392.2 119.1c3.7-4.6 8.2-8.6 10.8-14.1 3.1-5.7 3-11.6 3.1-18.1.1-7.7.1-16.7 7.7-22.4.8-.2 1.5-.2 2.2.2 1.6 1.6 1.4 3.1.1 4.8-5 6.5-3.9 14-3.4 21.3.1 2.4.4 4.6-.7 6.8-.9 2-1.9 3.9-1.7 6.2.1 5-3.4 7.9-6.2 11.4-1.5 1.9-3.1 3.8-4.4 6-1.4 2.5-3.3 4.7-5 7-.4.5-1 .9-1.5 1.3-.4.2-.8.4-1.2.6-2.2.8-3.4 2.6-4.6 4.5-3.2 3.5-4.1 8.2-6.4 12.2-1.8 3-3.5 6-6 8.4-1.6 1.5-2.7 3.5-4.2 5.1-.5.7-1 1.5-1.7 2.2-.8.6-1.6 1.1-2.5.2-.9-1.7-.1-3.4.4-5 6.1-8.1 9.8-17.5 14.6-26.4.7-1.3 1.6-2.6 3.1-3.1 4.2-1.6 6.2-5 7.5-9.1" style="fill:#12cde6"/><path d="m1354 13.1c2.1-1.8 4.4-3.1 7-4.1 3.7-.2 5.7 2.3 7.6 4.8 2.5 3.3 5.5 5.2 9.7 5 3-.1 5.7.8 7.2 3.6 1.3 2.5 4.3 2.3 5.9 4.3-1.5 4.5-5.4 6.5-9 8.9-1.7.2-3.2.1-4.4 2.2-1.7 3-5 2.5-5.5-1-.7-4.9-3.9-7.4-7.1-10.3-2.4-2-4.8-4.1-5.5-7.5-.5-2.3-2.3-2.5-4.2-2.6-1.6-.6-2.9-1.4-1.7-3.3" style="fill:#000d43"/><path d="m1392.2 119.1c.7 3.7-2 8.7-5.9 9.8-1.8.5-2.9 1.3-3.7 2.9-4.5 9-8.2 18.4-14.6 26.3-2.8 8.6-9.4 15-13.4 23-1.2 2.4-2.2 5.3-5.5 6-.8.1-1.5.1-2.3.1-2.4-.7-5.2-.8-5.9-4 5-5.3 10-10.7 15.2-15.8 3.7-3.7 6.9-7.6 8.7-12.5 2.9-2.4 4.7-5.8 7.3-8.4 1.8-1.9 1.3-4.2.8-6.5 5.1-8.3 11.7-15.1 19.3-20.9" style="fill:#099ec8"/><path d="m1391 27.1c-2.9-.6-5.5-1.3-6.9-4.5-1.1-2.8-4-2.8-6.5-2.6-4.3.3-7.5-1.3-9.6-4.9-1.7-2.9-4.5-4.3-7.1-6.1 2.3-1.4 4.5-2.7 6.8-4.1 5.1 2.4 9.1 6.5 14.3 8.9 3.6 1.7 6.9 4.2 11.2 2.6 1.4-.5 2.9.5 2.8 1.4-.6 6.5 3.3 3.3 5.8 2.7 1.2-.2 2.2-.8 3.2.3-1 2-3 2.1-4.8 2.9-.7.2-1.3.3-2 .4-2.2 0-4.2.2-5.4 2.4-.5.5-1 .8-1.8.6" style="fill:#031047"/><path d="m1414 65c-5.7 7.5-7.2 16-6.2 25.3.6 5.5.4 11-4.8 14.7-1.7-3.6-5.6-5.1-8-8 .6-4 1-8 2.4-11.7 6.7-3.1 7.9-9.8 7.5-15.5-.3-5 1.4-5.7 5-6.3 1.6 0 3.1.2 4.1 1.5" style="fill:#11bfdf"/><path d="m1317 211.9c2.6-2.3 5.2-4.7 7.9-7 3.4-.3 3.8 4.8 7.4 4.2 1.5.6 3 1.1 3.3 3 0 .6-.3 1-.7 1.4-1.8 1-3.6.8-5.5.5-5.9-1.5-7.1-.9-6.9 5.5.2 8.4-3.7 14.5-9.3 20-.7.3-1.5.4-2.3.2-1.3-.6-1.7-1.7-1.1-2.8 4.2-7.3 4.8-15.6 6.4-23.6.1-.6.5-1 .8-1.4" style="fill:#117e9c"/><path d="m1305 241c-.3 0-.7 0-1 0-2.1 1-2.7 3.2-3.8 5-.7 1.2-.7 3.6-3.2 3 .6-4.7 3.3-8.6 5-12.9 1.7-4.3 3.6-8.6.8-13.2 2.2-2.9 4.9-5.3 8.2-7 1.2.5 1.9 1.5 1.7 2.7-1.4 7.9-1.2 16.3-7.7 22.4" style="fill:#0e5a82"/><path d="m1305 241c-.1-1.6.4-2.9 1.4-4.1 4.8-5.7 3.2-13.2 5.1-19.7.1-.4-.4-.9-.6-1.4 1.6-1.9 3.5-3.4 6-4-.5 8.9-1.2 17.8-6.6 25.5-.4.6 0 1.2.6 1.6.3 1.6-1 2-2.1 2.5-.8.2-1.4.1-2-.5-.5.1-1.1.1-1.8.1" style="fill:#0c7092"/><path d="m1368.9 77.3c-7.3-7-13.8-14.7-19.3-23.2 1.1-1.2 2.3-.7 3.5-.3 6.5 3.2 10.1 9.7 16 13.7.7.7 1.1 1.5 1.4 2.3-.1 2 1.9 3.4 1.7 5.4-.8 1.1-2 1.7-3.3 2.1" style="fill:#143a5c"/><path d="m1332 209.9c-4.6 1.5-4.6-3.6-7.2-5.1 4.8-5.5 9.1-11.2 12.3-17.9.5-.3 1-.3 1.4.2 1.9 5.5-1.7 10.1-2.5 15.1-.5 2.8-.9 6.1-4 7.7" style="fill:#12a8b7"/><path d="m1343.2 33c-2.7-1.1 5.6-.7.4-2.8-1.4-.6-.3-4.7.8-6.9 1.5-3 3.6-5.5 6.3-7.5 3-.3 3.3 2 3.8 4-1.6 5.7-4.5 10.8-7.1 16.1-2.6.7-2.8-1.9-4.2-2.9" style="fill:#2a4159"/><path d="m1398 85c-.5 4.1.3 8.6-3 12-3.3-1.5-6.2-3.6-9-6 1-4.1 5.8-4.1 7.6-7.3.7-.3 1.4-.4 2.1-.3 1 .2 1.8.7 2.3 1.6" style="fill:#1abbc1"/><path d="m1381 87.1c-2-1.4-3.9-2.9-5.9-4.3-.7-4.5 3.4-4.4 5.7-6.1 1.3-.3 2.4.2 3.4.9 1.1 1.8 3.8 2.2 4.3 4.6-1.1 3.7-4.1 4.6-7.5 4.9" style="fill:#1c8290"/><path d="m1372.9 139.9c1.1.5 1.9 1.3 2 2.6.3 3.1-6.5 11.4-10.1 12.3 1-5.9 3.9-10.7 8.1-14.9" style="fill:#0882ab"/><path d="m1394 84c-1.2 4-5.5 4.5-7.9 7-1-.7-2-1.4-3-2.1.5-3.9 5.3-3.6 6.5-6.9 1.5-.8 2.4.5 3.6 1 .3.3.6.6.8 1" style="fill:#279cb7"/><path d="m1353 54.9c-1.1-.3-2.3-.5-3.4-.8-1.8-2.1-2.6-4.7-3.7-7.1-.3-1.8 1-2.5 2.2-3.3 2.8 3.3 5.4 6.6 4.9 11.2" style="fill:#112143"/><path d="m1381 77c-1 2.9-5.5 2.2-5.9 5.7-1.3-.6-2.5-1.4-3.2-2.7.2-3 3.2-3.4 4.7-5.1.9-.5 1.7-.1 2.5.3.8.5 1.5 1 1.9 1.8" style="fill:#388298"/><path d="m1338 187.1c-.3 0-.6 0-.9-.1.9-1.7 2.2-2.9 3.9-3.9 1.7 1.6 3.8 2.5 6 2.9.1 1.6-1.2 1.8-2.3 2.2-2.3.3-4.7.5-6.7-1.1" style="fill:#39cee0"/><path d="m1389.9 82c-.2 4.3-5.2 3.9-6.9 6.9-.7-.6-1.4-1.2-2.1-1.8 2.1-2.1 5.6-2 7-5 .7-.7 1.4-.6 2-.1" style="fill:#6dbfda"/><path d="m1368.9 77.3c.5-1.5 1.6-2.2 3-2.4.5-1 1.1-1.9 2.2-2.3.5 0 .9.1 1.3.3.8.6 1.2 1.4 1 2.4-1.4 1.8-3.3 3-5.4 3.8-1-.2-1.6-.9-2.1-1.8" style="fill:#3a6e85"/><path d="m1354 20c-1.5-1.1-1-3.8-3.3-4.2 1.1-.9 2.2-1.8 3.4-2.7-.1 1.4.7 2.4 1.9 3 1.3 2.3.8 3.7-2 3.9" style="fill:#374c76"/><path d="m1344 42c-.3-1.7-.6-3.3-.9-5 1.9-1.2 3.1-.1 4.4 1.2.6 1.4.6 2.8-.3 4.1-1.1.6-2.2.5-3.2-.3" style="fill:#486185"/><path d="m1346.9 38.1c-1.3-.4-2.5-.7-3.8-1.1 0-1.3.1-2.6.1-4 2.5-.6 2.6 1.8 3.7 2.9.6.8.6 1.5 0 2.2" style="fill:#17203d"/><path d="m1344 42c1 0 1.9 0 2.9.1 1.7-.1 1.6.8 1.2 2 .4 1.8-1.6 1.9-2.2 3-.6-1.8-1.2-3.5-1.9-5.1" style="fill:#809aba"/><path d="m1371 79.1c1.7-1.3 3.3-2.7 5-4 .3-.3.6-.3.9.1-.3 3.1-3.8 2.8-5 4.9-.3-.4-.6-.7-.9-1" style="fill:#7fb3ca"/><path d="m1297 249c2-.9 2.3-3 3.3-4.7.9-1.5 1.4-3.4 3.7-3.3-7.5 11.5-7.8 23.5-1.6 35.4 2.9 5.6 3.6 10.8 1.6 16.5-.9.9-2.4.5-3.2 1.6-1 .4-2 .3-2.8-.5 4.8-7.7.3-14.6-1.8-21.8-1.7-5.8-2.1-11.6.3-17.3.8-1.9.4-3.9.5-5.9" style="fill:#0a6186"/><path d="m1298 294c1 0 2 0 3 0 .3-.4.7-.4 1 0 1 2 4.7-.4 5 2.9-3.5 2.3-7 4.4-11.5 3.5-.2-.2-.4-.4-.5-.6 1.5-1.5 2.1-3.8 3-5.8" style="fill:#046085"/><path d="m1299 302c-1 1-2 2-3 3-.7 0-1.4-.1-2 .2-1.7.7-3.8 2.6-4.8-.4-.8-2.7 1.1-4.2 3.7-4.7.6-.1 1.3-.1 2-.1 0 0 .1.1.1.1 1 1.3 3.1.5 4 1.9" style="fill:#0b638b"/><path d="m1449.1 21.9c-.2 0-.4 0-.5.1-.2.2-.4.4-.7.6 1.1.3 2.1.5 4 1-1.3.3-2 .3-2.4.6-1.2.9.1.8.5 1 2.7 1.5 6.7.9 7.7 5.2.3 1.2 2.6 1.1 3.6.5 5.6-3 9.6 1.4 14.3 2.7 1.2.3 1.8 2.2-.2 2.3-4.1.3-7.2 4.5-12.1 2.4-3-1.3-3.3-.6-4.4-4.7-.4-1.6-5.1-1.5-6.9-.2-5.1 3.6-8.4 9.4-14.6 11.5-.9.3-2.3 1.3-2.7 1-5.9-4.4-12.7.5-18.8-1.8-3.1.3-4.2-2.1-5.6-4.2-.2-.8-.2-1.5.1-2.2.8-1.6 2.5-2.7 3.5-1.5 2.4 2.8 4.4 0 6.2.2 7 .7 12.6-3.9 19.1-4.4 2.9-.2 5.5-1.2 8-2.5-.1-2-1.8-1.4-2.8-1.6-3.3-.9-6.8-.5-10.2-.4-2.6 0-5.2 1-7.8.7-1.3-.2-2.8-.5-2.8-2.2 0-1.4 1.3-1.8 2.4-2.1 3.7-.9 7.4-1.3 11.1-.2-1.5-.5-3.3-.3-4.5-1.7 2.7-4 7.1-1.9 10.7-2.9 2.1.9 4.9-.2 5.8 2.8" style="fill:#0b7db3"/><path d="m1465 47c2.1 1.8 3.2.6 3.9-1.3.5-1.3 1.5-3.2 2.5-2.1 2.9 3.3 7.9 2.1 10.6 5.5-4.7-.7-9.3 1.3-14 1-.9.6-1.8.3-2.7.1-1.5-.4-3.1-1-4.6-1.4-6.2 1.1-11.9 3.8-17.7 6-4.1 1.6-7.9 2.1-12 1-2.2-.7-4.3-1.5-6.7-1.2-2.1.3-3.9-.4-5-2.3-.2-1.5-1.9-3.9 1.8-3.3 2.7 2.9 5.5 3.7 9.2 1.5 1.8-1 4.1-1.5 6.2-1.5 6 0 11.9.1 17.3-3 3.8-2.2 7.5.1 11.2 1" style="fill:#16b9dd"/><path d="m1421 49c-2.7.2-.6 2-1 3-1.2 1.1-2.3.4-3.3-.3-3.6-2.8-8.3-4.5-10.2-9.3-.2-1.8-.9-3.6.2-5.4 2.9-1.4 2.7 2.4 4.6 2.8 1.6 1.4 3.2 2.7 4.8 4.1.9 2.4 3.3 3.4 4.9 5.1" style="fill:#13a9d1"/><path d="m1449.1 21.9c-1.3-1.7-3.7-.1-5-1.8 1.7-1.8 3.9-1.5 6-1.4 4.7.2 9.4-.5 13.9 1.4-3 2.2-7-.3-10 2-1.7-.1-3.3-.2-4.9-.2" style="fill:#005b95"/><path d="m1437 119c-.3-.5-.6-1.1-.9-1.6-5.2 2.8-9.6 7.6-16.2 7.4-2.9 6.4-10.2 5-14.9 8.2 2.4-6.3 7.2-9.7 13.7-11.2 4.9-.8 9.2-2.7 12.3-6.7 2.3-3.8 2.7-8.2 3.7-12.4 1-4.2 3.3-6.8 7-9.1 8.1-5.1 16.7-9.7 21.8-18.5 1.3-2.3 2.4-4.2 1.1-6.9-1.6-3.1-.5-6.2.6-9.2 1.5-2.5 1.9-5.5 3.8-7.9 1.5-.1 2.4.6 3 1.9 5.7 3.5 10.1 8.6 15 13.1 4.8 4.4 4.4 7.3-.2 12.2-.2.2-.6.5-.6.8-.8 6.8-7.2 9.6-10.4 14.8-2.6 4.3-6.4 7.6-11.1 9.7-1.8.8-3.5 2-4.8 3.5-3.4 3.8-7.3 6.7-12.6 7.4-1.9.2-3.1 1.8-4.6 2.9-1.7 1.3-3.3 3-5.7 1.6" style="fill:#16e3fd"/><path d="m1437 119c6.2-5.3 15.4-5.4 20.8-11.9 3.5-4.2 9-5.3 12.9-9.1 4.4-4.3 6.6-10.4 12.2-13.6.7-.4 1.1-1.8 1-2.6-.3-3 1.2-4.6 3.7-5.7 2.3-1 2.3-2.3 1.4-4.7-2.1-6-8.2-8-11.8-12.5-1.6-2.1-3.5-3.9-5.3-5.9 4.4.2 7.8 2.5 10.9 5.4 1.9 1.8 3.5 4 6.8 3 1.5-.4 2.7 1 1.8 2.5-1.9 3.2 0 5.6 1.6 7.7 1.6 2.2 2 3.6-.3 5.2-1.8 1.4-2.5 3.2-3 5.5-1.3 6.1-5.3 10.6-9.5 14.9-9.8 10.2-20.3 19.8-31.4 28.6-1.5 1.2-4 .9-4.8 3.2-1.4-.4-2.1-2.3-3.9-1.5-2.3 1-4.5.6-5.7-1.4-1.1-1.9.4-3.8 1.5-5.4.4-.6.7-1.2 1.1-1.7" style="fill:#0fd8f6"/><path d="m1469 51.1c.2 3.1-.9 5.7-3 8-1 1.7-1.8 3.5-2.2 5.5-.7 3.5-2.2 6.6-5.6 8.4-2.2 1.1-3.4 3-4.3 5.3-.9 2-2 4-4.8 3.1-1.7-3.2.7-5.4 2.3-7.6 1.6-2.3 3.7-4.3 4.5-7.1.4-1.4.9-2.8 1.8-4 3.3-4.2 6-8.7 8.4-13.5.7.3 1.4.6 2 .9.2.3.6.6.9 1" style="fill:#31f0fc"/><path d="m1399.8 22.9c1.7-.7 3.4-1.4 5.2-2.1 2.3-.7 4.6-1.4 7-2.1 5.3-1.3 10.7-2.5 16-3.8 5-.7 10-1.3 15-2 6.7.7 13.3-1.1 20-1 2.8.1 5.6.2 8.4.4-4.4 2.2-8.9 1.3-13.4 1.7-5 2.7-10.7 1.1-16 2.3-5.3 1.1-10.8 1.1-16.1 2.7-6.7 1.9-13.7 2.5-20.2 4.9-1.5.5-3 1.2-4.6.8-.9-.4-1.5-.8-1.3-1.8" style="fill:#2e82ba"/><path d="m1424.9 17.9c10.8-2.9 21.9-4.1 33.1-3.9-.3 1.3-.7 2.6-1 3.9-3.6 2.2-7.7.9-11.5 1.4-4.5.6-9.1.9-13.7 1.5-2.5-.6-5.4.1-6.9-2.9" style="fill:#014a89"/><path d="m1431 19.9c8.7-.7 17.3-1.3 26-2 5.3.4 10.7.7 16 1.1-.2 1.8-1.3 2.2-2.7 1.6-2.1-.9-4.2-.5-6.3-.5-6.6 0-13.2 0-19.9 0-3.7.9-7.6.3-11.1 1.9-2 1.4-4.4 1.8-6.8 1.8-1.3-.3-2.7-.6-3.4-2 2.2-3 5.3-2 8.2-1.9" style="fill:#217ebc"/><path d="m1419 123c-6.7.5-9.8 6-14 10-4.7 1.9-3.1 6.5-3.8 9.8-.6 2.9 3.5 2.7 5.3 4 1.6 1.1 3.9 1.2 6 1.8-.7 2-2.6 1.6-3.6 2.5-2.3 1.8-4.7.9-7 .1-3.3-1.1-6.1-.8-8.5 1.9-3.5 1.2-7.2 1.4-10.6 2.8-.8-.1-1.5-.3-2-1 4.9-5.1 6.3-11.3 5.2-18.2-.1-.9.4-1.9 1-2.7.6-2.8 2.2-4.5 5-4.9-.4 3.9-2 7.6-.9 11.6.6 2.3 1.4 4.4 4 4.3 2.3-.1 2.3-2.7 2.4-4.3.3-4.4 1.2-8.5 4.2-11.9 2.9-1.7 5.4-3.9 7.7-6.3 3.3-.2 6.2-3.1 9.8-1.7.4.7.4 1.5-.2 2.2" style="fill:#41fbfc"/><path d="m1393 153c1-4.6 4.3-4.5 7.7-3.6 2.7.8 5.3 1.9 8.3 1.6 0 1.3-.7 2-2 2-4.5-.7-8.1.4-11 4.3-1.3 1.7-3.1 4-6 3.6-.7-3.2 1.8-5.3 3-7.9" style="fill:#2afafa"/><path d="m1416 141.9c2.6 0 5.3 0 9.1 0-5.6 2.5-10.4 2-15.1 2.1-.2-.9-.8-1.9.8-2 1.7-.1 3.5-.1 5.2-.1" style="fill:#2ff4fc"/><path d="m1307 241c.7 0 1.3 0 2-.1 3.9 3.2 7.1-.2 10.6-1.1 2.5-1 5-1.5 7.7-.6 2.7 3.9 2.3 5-2.6 7.2-.6.1-1.1-.1-1.6-.4-3.1.6-5 2.5-5 5.8 0 4.4.4 8.6-2.4 12.6-1.3 1.8-.5 5.1-.6 7.7-.1 1.5.1 3.1 1.9 3.6 2 .5 3.2-.9 3.7-2.5.6-1.8.8-3.6 3.3-3.2 0 .7 0 1.3 0 2-.6.6-.6 1.5-.8 2.3-1.5 6.1-3.9 6.9-8.6 2.9-.5-.4-1-.8-1.6-1.2 0-3.7 0-7.3-.1-11 0-.3 0-.7 0-1 1.1-2.5 3.1-4.7 2.1-7.9-.9-2.8.1-5.6.1-8.5-3.5-.7-6.6 4.4-10.1.9-1.6-1.6-1.3-3.6-.1-5.5.8-.6 1.5-1.3 2.1-2" style="fill:#0baeba"/><path d="m1305 243c.1 6.5.4 6.7 6.2 4 1.2-.6 2.3-1.4 3.5-1.8 1.4-.4 3.3 0 2.5 1.7-1.9 4.2-.7 8.5-1.3 12.6-.3 1.8-1 3.5-2.9 4.4-.3-3.1 4-7.2-.6-9.1-2.8-1.2-3.6 3.9-6.1 5.4-1.1.6-1.9 2-3.4 1.5-1.8-.6-2.8-2.4-2.6-3.9.3-5.2 1.5-10.3 4.7-14.8" style="fill:#0b90ad"/><path d="m1299 302c-1.5-.3-3.6.8-3.9-1.9 4.3.3 7.7-3.2 11.9-3.1 2.6.2 5.2-.6 7.8-.8 2-.2 5.1-1.9 6.2 1.8-7.7-.6-14.7 2.7-22 4" style="fill:#1e86ad"/><path d="m1302 294h-.5-.5c.7-1.2 1.9-.9 2.9-1.1 2.6 0 5.2 0 7.8 0 0 .4 0 .7 0 1.1-3.2 0-6.4 0-9.7 0" style="fill:#2898ba"/><path d="m1381 155c.7 0 1.4 0 2.1 0 .5.7.6 1.4.2 2.1-.4.3-.8.6-1.2.8-2.7.8-6-.4-7.8 2.2 3 2.9 6.8 3.9 10.9 3.9-2.2 4.1-5.2 7.9-5 12.9-.5.7-1.3 1-2.1 1.2-3.2.6-5.8 1.2-1.4 4.4 1.4 1 1.6 2.5.9 4-.8 1.5-2.3 1.7-3.9 1.5-2-.2-3.7-1.2-5.6-1.9-.5-.2-.9-.5-1.2-.9-.6-1.2-.2-2.3.4-3.3 4.3-6.8 4.9-14.1 2.8-21.8 1.3-1.7 2-4 4.1-5.1 2.2-1.3 4.5-2.1 6.8 0" style="fill:#4cfcfb"/><path d="m1368 185c2.4-.6 3.8 1.9 5.9 1.9 1.1 0 2.4.2 2.8-1.3.3-1.3 0-2.4-1.5-2.6-2.4-.3-3.7-1.5-3.1-4 .6-2.4 2.6-2.1 4.4-2.1 1.2 0 2.3 0 3.5 0 .3 0 .6 0 .9.1 1 4.1 3.7 7.5 4.3 11.9.5 3.3-.4 4.2-3.4 4-2.8-3.3-5.3-3.6-10.2-1.3.7.5 1.5.5 2.2 1.1.8 1.2-.2 1.7-.9 2.3-2.2 1.3-3.1 5.5-6.7 3.8-3.5-1.7-1.9-5.1-1.9-7.9.1-2.8-.5-5.8 3.7-5.9" style="fill:#72fcfb"/><path d="m1385.1 164c-5.4 3.3-8.6-1.1-12.3-3.8 1.9-4.3 5.8-3.1 9.3-3.2 1.4 2-1 2.3-1.6 3.5 2.1 2 4.7-1.9 6.7.5-.2 1.4-.9 2.4-2.1 3" style="fill:#76fcfd"/><path d="m1387.1 161.1c-3.3.3-6.8 4-9.6-1.1.7-2.1 4.5.2 4.6-3 .3 0 .6-.1.9-.1.4-.3.8-.7 1.2-.8 1.6-.4 3.1-2.5 4.8-.4 1.7 2 .2 3.6-1.1 5.2-.2.1-.5.1-.8.2" style="fill:#9cfbfe"/><path d="m1388 160.9c3.1-7.3-2.5-3.7-5-4 0-.6 0-1.3.1-1.9 3.1-1.8 6.3-3 10-2 .9 3.4-2 5.3-3 8-.8 0-1.5-.1-2.1-.1" style="fill:#73fcfd"/><path d="m1356 235c-1 1.3-2 2.7-3 4-4.2 2.9-7.5 7.2-13 8-.8-1.9 1.3-2.7 1.7-4.2-1.6-.7-3.5.8-4.9-.7 1-4.5 5.7-6.2 7.6-10.1 2.1-4.1 1.9-8.9 4.2-13 .9-1.6 1.3-3.4 3-4.4.5-.3 1-.4 1.5-.4.8 0 1.5.2 2.1.8-1.1 4.7-1.5 9.6-4.9 13.6-2.1 2.5-1 4.5 2.1 5.1 1.3.2 2.7.1 3.6 1.3" style="fill:#23f9f5"/><path d="m1337 242c2.5.4 4.8-2.1 7.7-.2-1.6 1.8-3.1 3.5-4.6 5.3-1.7.6-3.4 1.3-5.1 1.9-1 0-1.9.1-2.9.1-1 0-2 0-3 0-.9.4-1.7.9-2.7 1-1.3.1-2.8 0-3.3-1.3-.5-1.2.8-1.9 1.6-2.7 4.2-.9 7.6-4.6 12.3-4.1" style="fill:#35f9fa"/><path d="m1325 246c-1.5 2.9-1.5 2.9 4 3.1-.8 1-1.6 2.1-2.6 2.9-1.4 1-2.2 4-4.6 2.1-2.1-1.7-1.9-3.9-.3-6.1.5-.6 1-1.3 1.4-2 .3 0 .6-.1 1-.1.4-.3.8-.3 1.1.1" style="fill:#18e7e4"/><path d="m1356 235c-2.6-.6-6.1 1.7-7.7-1.5-1.5-2.9.3-5.4 2.5-7.8 1.4-1.5 1.8-4.2 2-6.5.2-1.8.9-3.1 2.2-4.2 1.2-2.4 3.2-4.2 4.5-6.5 3.3-5.9 2-11.1-3.6-14.7-4.2-2.7-1-4.5.9-6.4 1.3-.7 2.6-1.3 4.2-.7 1.6 2.6 3.8 4.8 3.2 8.4-.3 1.9.9 3.6 2.6 4.4 1.8.9 2.4-1.2 3.6-1.9.6-.4 1-.8 1.7-.4 0 .7 0 1.3 0 2 .1 1.7-1.6 2.5-1.9 3.9-.6 2.7-1.6 5.8 2.9 6 1.7.1 1.3 1 1 2-.9.8-1.7 2-2.7 2.2-10.7 1.5-10.7 9.7-11.3 17.6-.1.9-.4 1.6-1 2.2-1.1.6-2.1 1.2-3.1 1.9" style="fill:#38fcfc"/><path d="m1359 233c-.2-4.3 1-8.5 1.5-12.7 1.3-9.4 9.1-6.2 13.5-9.3-.1 4.2-3.5 4-7.4 4.5 3.6 2.3 2.5 4 .7 6.1-1.1 1.3-2.1 3.2-2.2 4.9-.1 4.2-2.5 5.8-6.1 6.5" style="fill:#23f9f5"/><path d="m1313 276c.5.1 1 .1 1.4.3 5.5 3.5 5.5 3.5 8.1-2.4.3-.7.9-1.3 1.4-1.9 0 .8-.1 1.7 0 2.5.3 2.9-.4 5.5-3 6.8-2.9 1.4-4.4-1.4-6.2-2.9-.6-.7-1.1-1.6-1.7-2.4" style="fill:#0aa4bb"/><path d="m1372 197c-1.9 1.1-2.7 4.6-5.4 3.5-2.8-1.1-4-3.8-3.4-7 .5-2.6-3.7-3.6-2.3-6.5-.4-1.8.8-2.4 2.1-2.9 1.4-.3 2.7-.1 3.8.9.4 0 .7 0 1.1.1-2 1.4-3.7 10.1-2.3 12.1.9 1.2 1.8 1.9 3.2.5 1.1-1.2 2.1-2.6 4.1-2.6.1.7-.1 1.5-.9 1.9" style="fill:#53fcfb"/><path d="m1374 193.2c-1.4-.2-2.8-.3-4.4-.5 2-3.3 9.5-5.1 12.1-3.2 1.5 1.1.9 2.3.2 3.4-.6.1-1.3.1-1.9.2-2 1.2-4 1.2-6 .1" style="fill:#c1fbfd"/><path d="m1374 193.2c2 0 4 0 6 0-1.6 3.5-4.7 1.2-7 1.9.3-.7.7-1.3 1-1.9" style="fill:#53fcfb"/><path d="m1403 115c1.9-3.7 6.5-6 6-11 1.2-2.2 2.3-4.4 3.7-6.5 1.2-1.8 2.1-3.8 1.7-6.1-1.3-7.4.9-14.7 5.3-19.6 4.2-4.7 7.7-9.5 10.9-14.8 1-1.6 2.7-1.4 4-.8 3.7 1.5 6.7.4 9.8-1.6 2.8-1.7 5.7-3.5 9.2-3 1.1 4.1-2.5 5.5-4.5 7.8-.7.4-1.4.6-2.1.8-4.7.6-7.2 3-10 7.3-6 9.3-11.6 18.7-15.9 28.9-.5 1.2-1.5 2.2-2.4 3.1-4.5 3.8-6.8 9.3-10.9 13.4-1.3 1.3-2.3 3.5-4.8 2.1" style="fill:#19e0fa"/><path d="m1454 52c-4.4.3-7.6 2.9-11.1 5.1-1.6 1-2.8 1.8-4.9 1.1-5.4-1.7-9 .4-9.7 5.9-.3 2.6-1.1 3.8-3.4 4.6-3.2 1.1-4.7 3.7-5.8 6.8-1.8 5.2-4.4 9.9-3.2 16 1 5.2-2.9 9.1-6.7 12.5-.3-2.2.4-4.2 1.6-6.1 1.5-2.6.6-5.3.7-7.9.3-5.7-1.4-11.4 1.4-17.2 1.1-2.3 5.4-3.9 3.3-7.7 2.8-3.7 7.8-5.1 10.1-9.7.8-1.6 3.2-1.1 4.9-.3 9.6 1.2 17.6-4.1 26.1-7 1.3-.5 2.6-2.8 3.9 0-2 2.1-3.9 4.3-7.2 3.9" style="fill:#14d0f0"/><path d="m1402.1 129.1c-2.8 4.2-3 9.2-3.9 14-.3 1.6.3 4-2.6 3.9-2.5-.1-4.9-1.5-5.3-3.5-1-4.8-2.3-10 1.7-14.3.3 0 .6-.1.9-.1 1.7 2.2 3.4 3.3 5.8.8.9-1 2-2 3.4-.8" style="fill:#6ffdfc"/><path d="m1349 186c1.4 0 2-1 2.5-2.1 3.7-8.6 10.7-15.3 14.5-23.9.4-.8 1.3-1.4 2-2.1-.3 1.7-.7 3.3-1 5-1.3 8.4-3.9 16.3-9.2 23.1-1.4 1.8-3.6 2.3-5.9 2.1-1.3-.2-2.9-.1-2.9-2.1" style="fill:#07bcd9"/><path d="m1381 155c-2.3 0-4.6 0-6.9 0 3.8-4.9 7.2-10 9.1-16 .6-1.8 1.8-3.9 3.8-4.9.2 3.4-.3 6.8.8 10.2 1 3-.5 5.3-2.8 7.3-1.3 1.1-3.3 1.5-4 3.4" style="fill:#1ffafb"/><path d="m1431 55c-3.2-.2-5.1.8-6.2 4.2-1.3 3.8-5.9 3.7-8.8 5.8-.7 0-1.3 0-2 0-1.5.2-2.8-.3-4-1-2.7.2-4.5-1.3-6.2-3.1-.4-3 1.5-2.9 3.4-2.3 2.1.6 4 1.3 6.2.7 1.6-.5 3.3-.8 4.3-2.2 1.6-2.1-.7-2.7-1.6-3.9-.7-1-1.1-2.2.9-2.2 1 .3 2 .7 3 1 1.4 1.8 3.1 1.7 5.2 1.2 2.1-.5 4.1.4 5.8 1.8" style="fill:#1ec9dd"/><path d="m1352 187c3 .3 4.7-1.1 6.4-3.6 4.2-6.3 5-13.9 8.6-20.4.7-.3 1.3-.7 2-1 .3.2.6.5.6.7-.8 7.8-.1 16.1-6.6 22.3-1 .4-1.6 1-2 2-1.3.3-2.7.7-4 1-1.2.7-2.4 1.5-3.9 1.3-.9-.5-1.6-1.1-1.1-2.3" style="fill:#0addec"/><path d="m1402.1 129.1c-1.7-.2-2.1 1.3-2.9 2.2-1.2 1.4-2.6 1.9-4.4 1.6-2.4-.4-1.5-2.5-1.8-4 .3-.3.7-.7 1-1 4.6-2.6 6.2-7.6 9.5-11.3 1.8-1.1 3-3.3 5.5-2.9.4.3.6.7.8 1.2.3 1.9-.6 3.4-1.9 4.7-1.1 1.1-.8 1.9.5 2.6.4.2.7.6.8 1-.9 3.8-3.8 5-7.1 5.9" style="fill:#8ffcfd"/><path d="m1363 185c4.1-7.1 4.8-15.2 6-23 0-.8.2-1.5 1-1.9 5.4 8.3 2 15.7-2.2 23.1-.3.6-.5 1.2-.8 1.8-1.4 0-2.7 0-4 0" style="fill:#18f5f7"/><path d="m1409 114c-1.6 1-3.3 2.1-4.9 3.1-1.6 1.4-2.3 4.1-5.1 3.9.3-2.7 2.6-4 4-6 4.6-1.6 6.3-6.1 9-9.4 1.9-2.3 3.4-4.9 6-6.5.6-.6 1.2-.6 1.9-.3.7.9.2 1.8-.3 2.6-.4.6-.9 1.1-1.3 1.6-2.2 2.3-3.8 5-5.4 7.8-.9 1.4-1.6 3.2-3.9 3.2" style="fill:#32eafa"/><path d="m1399 121c1.7-1.3 3.4-2.6 5.1-4-1.5 4.3-5.4 7-7.3 11.1-.6 1.3-1.9 1.1-2.8-.2 1-2.7 3.2-4.7 5-6.9" style="fill:#57f2f9"/><path d="m1348.1 44c-.4-.7-.8-1.3-1.2-2 0-1.3 0-2.6 0-4 0-.7 0-1.4 0-2.1.9-5.9 4.3-10.8 7.1-15.9 1.6-.8 2.2-2.2 1.9-3.9 2.2-1.9 4.5-1.5 4.8 1.2.7 5.6 5 7.8 8.6 10.8 1.9 1.6 3.9 3 3.7 6-.1 2 .2 4.7 2.5 4.6 2.9-.1 1.8-3.2 1.9-5.1 1.6.5 3 1 4.5 1.5.6 1 0 1.8-.5 2.6-3.4 3.5-2.6 8.1-3.2 12.3.1 3.7.3 7.3-3.9 9.3-1.5.7-1.7 2.7-2.2 4.3-.6 1.9-1.1 3.9-3.3 4.6-4.2-1.7-7.1-5-9.9-8.3-1.8-2-3.7-3.7-6-4.8-.1-.8 0-2.1-.5-2.4-3.3-2-2.6-5.9-4.3-8.7" style="fill:#000a36"/><path d="m1380.9 37c.4-.7.7-1.3 1.1-2 3-2.6 6-5.2 9.1-7.9.3-.3.7-.6 1-1 1.6-1.9 3.9-2.3 6.1-3.1.6 0 1.2-.1 1.7-.1.4.4.8.8 1.2 1.2.2 1-.5 1.5-1.2 1.9-5.7 3.2-11.4 6.5-16.1 11.2-.7.6-2.2 2.3-2.9-.2" style="fill:#1b4477"/><path d="m1352 187c.3.7.7 1.3 1 2 .5 1.3-.2 2.4-1 3.1-4.4 4.1-5.7 9.8-8.3 14.9-1.6 3.2-.4 3.7 2.4 3.7 1.5 0 3-.1 4.4.5 1.6.7 3.7 1.1 2.5 3.7-.3 0-.7 0-1 0-1.9 1.4-4.1 1.1-6.2.6-4.8-1.1-8.2.3-10.5 4.9-1.4 2.9-2.7 6.1-5.6 8-.9.5-1.8 1-2.9.5-1.8-2.7.9-4.7 1.1-7.1 1.8-3.5 3.2-7.1 6.9-9.1.1-.3.1-.6.2-.9 2-6.6 4.2-13.1 7.5-19.1 1-1.9 1.5-4 2.4-5.9.8 0 1.6-.2 2-1 .7 0 1.3 0 2 0 .8 1.4 2 1.2 3.1 1.2" style="fill:#11d9d5"/><path d="m1398.1 23c-1.7 1.6-3.8 2.5-6.1 3.1.8-3.4 3.4-3.3 6.1-3.1" style="fill:#000d43"/><path d="m1404 60.9c2.4.2 4 1.9 6 3.1-2 1.4-7.1 1.4-2.4 5.7-2.7 4.9-2.3 11-6.3 15.3-1 1.1-2.2-.2-3.3 0-.8 0-1.6-.2-2-1 4-5.4 5.2-11.4 4.1-18-.2-.4-.4-.8-.5-1.2.1-2.4 1.4-3.7 3.8-3.9.2 0 .4 0 .6 0" style="fill:#0ea9d0"/><path d="m1345 187c1 1.4.9 2.9 0 4.2-4.3 6.2-5.8 13.5-8.6 20.3-.1.3-.9.4-1.3.6-1-.7-2.1-1.4-3.1-2.1 2.8-7.4 5.1-15 5.9-22.9 2.4 0 4.7-.1 7.1-.1" style="fill:#14b9c2"/><path d="m1313 238.9c.4-.7.7-1.5 1.2-2.1 4.3-5.4 7.4-11.1 7-18.5-.4-7.6.8-8.1 7.8-5.3-3 7.2-3.1 15.5-8 22.1-1.3 1.4-2.3 3.2-3.9 4.4-.5.2-.9.4-1.4.5-1 0-2-.1-2.7-1.1" style="fill:#0f92aa"/><path d="m1320 235c4-6.2 4.7-13.5 7-20.2.4-1.1 1-1.6 2-1.8 2 0 3.9 0 5.9-.1-2 3-3.9 6.1-5.9 9.1-3.1 3.9-3.2 9.2-6.4 13.1-.4.3-.9.4-1.3.5-.5-.1-.9-.3-1.3-.6" style="fill:#12a8b7"/><path d="m1313 238.9c1 0 2 .1 3.1.1.7 1.2 2.3.8 3 2-2.2 1.6-4.8 2.1-7.3 2.8-2 .5-3.8 0-2.7-2.9.7-.6 1.4-1.3 2.1-1.9.5 0 1.1 0 1.8-.1" style="fill:#1dc9d7"/><path d="m1369 68c1.1-2.1 1.8-4.2 2.4-6.5.5-2 1-3.8 3.7-4.7 3.9-1.3 1.2-5.2 2-7.8 1.8-1.3 3.4-.3 5 .6.4.4.6.8.8 1.3 0 2.8 2.8 4.7 2.6 7.3-.4 6.6-4.9 10.9-9.2 15.3-.3.3-.9-.1-1.4-.4-.3 0-.6 0-.9-.1-1.8-.4-3.2-1.3-4-3-.8-.4-1-1.1-1-2" style="fill:#03275d"/><path d="m1370 70c1.4.9 3.3 1.2 4 3-.4.9-1.1 1.6-2.1 1.9-1.2-1.4-3.3-2.5-1.9-4.9" style="fill:#08447a"/><path d="m1400 65c1.4.9 3.6 1 1.9 3.9-1 1.6-1.1 4.1-.8 6.1.6 4.5-2.3 6.7-5.1 9.1-.7 0-1.3 0-2 0-.3 0-.7 0-1 0 1.9-5.7 5.2-10.9 4.8-17.3-.1-.9 1.1-1.6 2.2-1.8" style="fill:#0a95bf"/><path d="m1381 77c-.8-.1-1.6-.2-1.9-1.1.5-1.5 1.4-2.9 2.6-3.6 4.6-2.5 5.3-6.6 4.8-11-.3-2.3 4.4-3.6 1-6.2-.9-3.4 1.7-3.8 3.9-4.6 3.1.8 4.8 3 6.2 5.6-1.9 4.7-2.9 9.7-3 14.7-.1 4.7-4.5 5.3-6.8 7.9-1.2 1.4-2.7.8-3.7-.8-1.1-.2-2.1-.5-3.1-.9" style="fill:#075b8c"/><path d="m1384 78.1c3.7.5 9-4.1 9.1-7.6 0-2.4-1.5-5.3 2-6.9 1-.4.3-1.5-.3-2-3.1-2.8-2.7-4.2 1.6-4.2.2 0 .3-.8.5-1.3 1-.7 1.8-.1 2.6.4 1.1 1 2 2 2 3.5-1.1 1.5-3.4 2.6-1.5 5-.6 1.1-2.1 2.5-1.8 3.4 1.8 6.5-2 10.9-5.2 15.6-1.6.2-1.9-1.5-3-1.9-.6 0-1.3 0-1.9 0-1.2-1.6-4.3-1.2-4.1-4" style="fill:#087dab"/><path d="m1388 55c1.3 1.6 2.6 3.3 3.9 4.9-1.9 1.9-2.6-1.3-4.5-.2 2.6 7.9-2.5 12.3-8.4 16.2-.7-.3-1.4-.6-2.2-.8-.3-.1-.6-.1-.9-.1-.4-.7-.7-1.3-1.1-1.9 4.2-4.1 8.5-8.3 9.4-14.5.4-2.8-3.5-4.4-2.3-7.6 1.9-1.3 2.5.4 3.4 1.5.8 1 1 2.5 2.7 2.5" style="fill:#08447a"/><path d="m1425.9 22.9c2.3-.3 4.7-.6 7-1 2.3.7 4.6 1.3 7.1 1.5-5.2.4-10.4.6-16.1 2.2 4 2.8 7.6-.5 11 .4 1.7.9 3.6.3 5.4.5.8.1 1.7.1 1.9 1.1.3 1.2-.5 1.8-1.5 2.2-2.2.9-4.6.2-6.9.9-1 .3-2 .5-3 .7-3.4 1.6-7.3 1.9-10.4 4.2-1.8.7-4 2.4-3.7-1.7 0-.2.3-.5.1-.5-2.5.6-6-.1-7.6-1.7-.6-.6-1-1.3-1.1-2.2-.1-1.4.3-2.6 1.4-3.5 5.3-1.9 10.6-4 16.4-3.1" style="fill:#05548d"/><path d="m1430 30c1 0 2 0 3 0 3.8-.1 7.6.5 11.3-.8 1.3-.4 2.6-.2 3.7.9-2.2 2-4.7 2.7-7.6 3.1-3.8.6-8 .5-11 3.9-1.2 1.4-2.6.6-4.1.4-3-.5-6.4-1.5-7.7 2.8-2.2-1.3-3.3-5.5-6.7-2.1-4.6-2.6-5.1-4.8-2-8.2 1 3 4.6 1.3 6.2 3.8.9 1.4.8-.7.9-1.1.4-1.8 1.5-2.8 3.5-3.5.5 2.2-.8 3.3-1.6 4.7-.4.6-.8 1.4-.1 1.7.6.2 1.5-.3 2.3-.5 3.6-1 7.9-.8 9.9-5.1" style="fill:#0a6ea7"/><path d="m1448 30c-5 .1-10 2.6-15 0 2.4-2.3 5.8.2 8.7-1.9-1.9-2.2-5 0-6.7-2 5.7-.3 11.3-.1 16.7 2.6-1 1.9-2.5 1.1-3.7 1.3" style="fill:#076da1"/><path d="m1408.9 29.9c-1.8 3.3-.5 5.9 2 8.2.1.6.2 1.2.3 1.9-3 1.3-2-3.1-4.2-2.9-2.1-.5-2.8-2.2-3.6-3.8-.4-2.1-2.5-2.9-3.7-4.4 0-.5.1-.9.5-1.3 2.4-1.7 5-2.6 8-2.4 1 .3 2.2.5 1.9 2-1.1.5-1.1 1.6-1.2 2.7" style="fill:#2ecae9"/><path d="m1454 52c2.3-1.4 4.7-2.7 7-4.1 1.7.4 3.3.8 5 1.2-.2 5-3 8.7-6.1 12.3-1.4 1.6-2.7 3.3-2.9 5.6-1.6 2.3-3.5 4.3-5.4 6.4-2.5 2.8-5.5 3.6-8.9 2.3-3.5-1.3-3-4.6-3-7.6 0-.7.1-1.3.3-1.9.4-1.1 1.2-1.8 2.4-2 .5 0 1 .1 1.5.3.6.6.7 1.4 1 2.1 1.2 3.2 3.4 3.8 5.8 1.3 1.6-1.7 2.6-3.7 3-6.1-1.7-.6-3.7.7-5-1-.3-.7-.3-1.4.3-2 1.6-2.1 3.3-4.5 5-6.8" style="fill:#5bf7fc"/><path d="m1401 60c-.7-1-1.4-2-2.1-2.9-.3-.3-.4-.5-.3-.8.1-.3.1-.4.2-.4.7-.5 1.5-.4 2.3-.3 4.3.8 7.6-.5 8.8-3.8 1.4-3.6-2.3-4.1-3.9-5.8-1.1-.7-2.1-1.5-2.7-2.7-1-1.6-.8-2.7 1.3-3 1.1.1 1.8.8 2.2 1.8 2.2 4.2 6.9 5.7 10 8.9-1.1 1-.6 1.4.5 2.1 3.5 2.1 3.5 4.3-.1 6.1-3.2 1.6-6.6 3.2-10.2.6-1.5-1.1-2.8-1.1-3.2 1.2v.1c-1.1.4-2-.2-2.8-1.1" style="fill:#1dbdc9"/><path d="m1407 42.1c-.7-.4-1.3-.7-2-1.1-2.4-1.8-6.3-2-6-6.3 1.5-1.3 2.9-3 5.2-1.7.9 1.3 1.9 2.7 2.8 4-.5 1.7.9 3.4 0 5.1" style="fill:#0a7aaa"/><path d="m1449 81c.5-.1 1.3-.1 1.4-.3 2.3-7 11-9.2 12.5-16.8.4-1.9 1-3.9 3.1-4.9-.1 3.6-2.7 7.4 1.1 10.7 1 .9-.2 1.7-.6 2.6-2.9 6.9-7.9 11.9-14.1 15.9-3.9 2.5-7.3 5.8-11.7 7.5-3.1 1.2-3.7 4-4.5 6.7-1.3 4.5-1.5 9.5-4.1 13.6-1.2-1.1-1.4-2.7-1.9-4.1-3.8-10.3.3-17.9 8.6-23.8 3.3-2.4 5.5-6.6 10.2-7.1" style="fill:#21f6fc"/><path d="m1431 112c1.5 1 .9 2.6 1 4-3.4 4.1-7.8 6.2-13 7 0-.7 0-1.3 0-2 1-1.8 2.7-2.5 4.5-3.1 2.4-.4 3.7-2.3 5.4-3.7.8-.6 1.2-1.6 2.1-2.2" style="fill:#35f1fc"/><path d="m1431 112c-.1 1.1.2 2.3-1 3-2-2.8-1.4-6.3-2.2-9.4-.8-2.8-1.3-5.7-3.1-8.2-1.6-6.7 3.1-10.5 7.1-14.2 3.1-2.8 6.6-4.2 4.4-9.7-1.2-3 .2-7 4.8-7.6 0 1.2 0 2.3 0 3.5.1 1.9-.7 4.4 1.8 5.2 2.5.8 5.2 1 7.4-1.2 2.2-2.2 4.6-4.3 6.8-6.4-.7 3.8-4.1 5.9-5.9 9-.9 1.5-1.4 3.3-2.1 5-5.4 4.7-10.8 9.3-15.9 14.2-3.1 3-3.7 6.2-2.8 9.9.5 2.3.7 4.6.7 6.9" style="fill:#46fbfd"/><path d="m1407.8 25.9c-2.5.8-5.1 1.6-7.6 2.3-3.9 3.3-8.9 4.8-12.7 8.3.2.9-2.9-.1-1.1 1.8 1.7 1.8 1.9 4 2.2 6.2-.1 1.3.2 2.6-.1 4-1.7 2.1-4.2 1.5-6.4 1.6-1.7-.3-3.3-.6-5-1 1.1-4.1-.9-9.1 3.9-12 .9.9 1.5.1 2-.4 5-5.7 11.7-8.9 18.1-12.5 1.3-.4 2.7-.7 4-1.1 1.1-.5 2.2-.1 3.3-.3 2-.4 2.2.8 1.2 2.3-.6.3-1.2.5-1.8.8" style="fill:#04184b"/><path d="m1409 24.9c.2-.8 1.1-2.1-.8-1.4-1.3.5-2.1-.1-3.1-.5 5.2-2 10.5-3.8 16.2-3.9 1.4 0 2.6-.4 3.7-1.2 1.7 1.6 4.4.3 6 2-2.7.7-5.4 1.3-8 2-4.5 1.9-9 3.8-14 3" style="fill:#052c6e"/><path d="m1409 24.9c4.7-1 9.3-2 14-3 1 .2 2.3-.2 3 1-5.3 1.4-10.6 2.7-15.9 4.1-.4-1-1.4-.9-2.2-1.1.3-.4.7-.7 1.1-1" style="fill:#22a1ca"/><path d="m1424 119c-1.7.7-3.3 1.4-5 2-3.4.2-6.2 2.9-9.8 2.2 0 0-.2-.3-.2-.3-.7-1.1-.3-2.2.6-2.4 5.4-1 9.8-4.8 15.2-5.6 1.6 1.7.2 2.9-.8 4.1" style="fill:#94fdfd"/><path d="m1325 246c-.4 0-.7-.1-1.1-.1 1.8-1.6 6.2-1.9 3-6 .2-2.8 2.9-2.8 4.4-4.1 2.2-1.8 1.5-5 3.4-6.9 1.6-1.9 3.3-3.8 5.6-4.9 3.5-1.8 5.4-.6 5.5 3.2.1 1.9.5 4-1 5.7-1.7 3.9-5.4 5.9-8 9-3.6 2-7.3 4.1-11.8 4.1" style="fill:#0ed3d6"/><path d="m1332 237c-1.7 1-3.7 1.4-5 3-2.7 0-5.3.3-7.9 1.1-.8-.9-4.1 1.9-3-2 .3-.1.6-.1.9-.2 2.1-.4 3-2.3 4.2-3.8.3 0 .6 0 .9-.1.7-.5 1.4-.8 2.1-1.1 5.6-1.4 7.2-.8 7.8 3.1" style="fill:#43f0f2"/><path d="m1353 215c-1.4-4.3-5.1-2.8-8-2.9-5-.3-4.8-.4-2.8-4.8 2.9-6.5 5.6-13.1 10.8-18.2 1.2-.7 2.5-1.2 4-1-1.9 2.4-4.3 4.2 1.5 5.4 3.7.8 4.4 6.3 4.1 9.7-.5 4.8-2.6 9.4-7.5 11.8-.7 0-1.4 0-2.1 0" style="fill:#15f7ef"/><path d="m1345 233c0-1.3.1-2.6 0-3.9-.2-1.7 1-4-1.2-4.7-1.8-.6-3.3.9-4.7 2.1-1.3 1.2-2.7 2.4-4 3.5-3.5 2.7-4.6 2.3-6-2 2.8-2.1 3.7-5.5 5.4-8.2 3.9-6.2 5.2-7 12.2-5.4 1.8.4 3.6.5 5.4.6-2 4.8-5.1 9.2-5 14.7-.1 1.5 0 3.1-2.1 3.3" style="fill:#13eee6"/><path d="m1353.5 233c-1.4-.2-3.2.3-3.4-1.8-.2-2.5 1.8-2.3 3.4-2.3 1.4 0 3.2-.3 3.4 1.8.2 2.5-1.8 2.2-3.4 2.3" style="fill:#8bfdfe"/><path d="m1441 66c-4.1 2.9-5.5 6.5-2.6 11 1.4 2.2 1 3-1.5 4.3-6.4 3.2-10.9 8.2-12 15.7-.2.3-.6.6-.9.8-1.4.3-2.6 1.1-4.1 1.2-.7 0-1.3 0-2 0 3.4-4.5 5.4-9.7 7.2-15.1 1.8-5.3 6.1-9 9-13.6.7-1.1 2-2.1 2.1-3.3.7-6.6 5.6-7.3 10.6-8.1.4 3.2-2.4 4.1-4 6-.6.1-1.4.3-1.8 1.1" style="fill:#28f6fc"/><path d="m1443 65c.1-2.8 3.1-3.7 4-6 .7 0 1.3 0 2 0 0 .7 0 1.3 0 2-1.2 1.9-2 4.3-5 4-.3 0-.7 0-1 0" style="fill:#46fbfd"/><path d="m1425 115c-4.6 2.7-9 5.9-14.6 6.2-1 0-1.2.9-1.4 1.8-1.5-.1-3.6.7-4.2-1.3-.4-1.3 1.3-2 2.3-2.8 1.2-.9 1.9-2.2 2-3.7 1.4-1.4 3.3-2 4.7-3.4 2.4-2 3.6-5 6.7-6.3 4.1-1.8 5.5-1.1 5.8 3.2.1 1.9.3 3.9-.7 5.8-.2.1-.4.3-.6.5" style="fill:#d5fcfc"/><path d="m1414 113c-1.2 1.7-2.9 2.3-4.9 2.2 0-.4 0-.8-.1-1.2 3.9-3.3 4.3-9.2 9-11.9 1 0 1.9.2 2.3 1.3-1.8 3.3-4.4 6.2-6.3 9.6" style="fill:#78f8fd"/><path d="m1420 103c-.8 0-1.6-.2-2-1 .3-.3.7-.7 1-1 1.9-1.1 3.2-2.9 5-4 .3 0 .6 0 .9-.1 2.1.2 2.6 1.8 2.9 3.5 1 4.8 2.5 9.5 2.1 14.6-2.3.9-3.1 3.9-6 4 .3-1.3.7-2.7 1-4 3.4-6.9 2.5-9-4.9-12" style="fill:#65fbfd"/><path d="m1424 97c-.9 2.4-2.3 4-5 4 .3-.7.7-1.3 1-2 .8-1.8 2.3-2.1 4-2" style="fill:#46fbfd"/><path d="m1329 228c1.4 2.6 3.2 3.8 6 2-1.4 2.1.5 5.7-3 7-1.8-4.1-5-2.5-8-2.1.2-2.4-.1-5 3-5.9.7-.3 1.3-.7 2-1" style="fill:#20dddb"/><path d="m1327 229c-1 2-2 3.9-3 5.9-.7 0-1.3.1-2 .1 2.2-4.4 2.8-9.6 7-13 .6 2.7-2.6 4.3-2 7" style="fill:#18b6c0"/><path d="m1401 60c1 .4 2 .7 2.9 1.1-1.6 1.1-3.5 1.8-4 4-1.5-.9-3.3-1.9-2.7-4 .7-2.1 2.8.1 3.8-1.1" style="fill:#0a95bf"/><path d="m1321.1 235.1c1 3.9-1.4 4.1-4.2 3.8 1-1.3 1.3-3.2 3-3.9.5 0 .9.1 1.2.1" style="fill:#18b6c0"/><path d="m1382 50c1.6-1.9 4.4-.6 6.1-2.1 2.1.1 3.3.9 2.9 3.2.4 2.4-4.3.8-3 3.9-1.1 3.1-2.1 1.7-2.9-.1-.7-1.6-.8-3.6-3.1-3.9 0-.3 0-.7 0-1" style="fill:#043c62"/><path d="m1391 51c-1-1.1-1.9-2.1-2.9-3.2-.4-1-1.8-1.8-.3-2.9.4-.3.8-.4 1.2-.3 2.2 1.5 3.2 4.1 5.3 5.7.9.9 2 1.6 3.1 2.3.9.9 2.2 1.7 1.6 3.4 0 .3 0 .7-.1 1-.7-.3-1.4-.6-2.1-.9-1.9-1.7-3.8-3.4-5.8-5.1" style="fill:#49abc7"/><path d="m1430 30c-1.5 5.1-4.3 6.5-10 5 2.3-3.7 7.3-2 10-5" style="fill:#076da1"/><path d="m1394 51c-2.4-1.3-3.8-3.5-5.1-5.9 2.3-3.7-.8-6.2-2-9.2 3.6-3.9 8.1-6.5 13.2-7.7 0 .3-.1.5-.1.8.2 2.1-3.4 3.2-1.6 5.7-.1.3-.1.7 0 1 .6 2.3 4.5 3.6 2.9 6.3-2.1 3.2-3.5 7.1-7.3 9" style="fill:#218096"/><path d="m1398 35c-.9-.9-1.7-1.9-2.6-2.9 1-1.8 3.7-1.2 4.6-3 3.1-.5 4.1 1.3 4.2 3.9-1.7.7-3.4 1.4-5.2 2.1-.3.2-.7.2-1-.1" style="fill:#147198"/><path d="m1444 65c2.2-.7 2.4-3.8 5-4 1.9-.2 3.9-.5 6.1-.8.1 3.9-1.7 7-4.3 9.7-1.6 1.7-3.7 1.3-5.5.6-2.8-1.1-1.2-3.5-1.3-5.5" style="fill:#7cfbfc"/><path d="m1399 56c-.7-1-1.4-2-2.1-2.9 2.6-3.6 6.7-5.3 10-8 1.6 2.2 6.6 2.6 4.8 6.5-2.6 5.7-6.1 6.6-12.7 4.4" style="fill:#1ba7b8"/><path d="m1407 45c-2.1 4.3-6.3 5.8-10 8-1.4-.1-2.4-.8-2.9-2.1 2.2-2.7 3.2-6.1 5.9-8.4 1.6-1.4.4-2.5-.5-3.7-.8-1.1-3.4-1.7-1.4-3.8.3 0 .7 0 1 0 1.1 2.8 4.9 3.1 6 6-2.2 2.7 1 2.8 1.9 4" style="fill:#1c93a7"/><path d="m1386.9 35.9c1.3 1.5 2.1-1.3 3.7-.2-1.1 1.6-1.8 3.3.1 5.2 2.6 2.5.5 3.5-1.8 4.2-.4-.1-.7-.1-1.1-.2-.4-1.4-.8-2.8-1.1-4.2-.4-2.1-1.5-2.5-3.9-.9 1.1-2.4 2.2-3.6 4.1-3.9" style="fill:#206571"/><path d="m1420 103c3.3-.4 6.4-.1 7.5 3.5 1 3.2 1.3 6.5-2.6 8.4 0-1.3.1-2.6 0-3.9-.2-1.9 1-4.9-1-5.3-2-.3-4.6 1.2-6.3 3.1-1.3 1.4-1.1 4-3.7 4.1.9-4 3.2-7.1 6.1-9.9" style="fill:#94fdfd"/></g></g></svg>