<svg id="Layer_1" xmlns="http://www.w3.org/2000/svg" xmlns:xlink="http://www.w3.org/1999/xlink" x="0" y="0" viewBox="0 0 1500 603" style="enable-background:new 0 0 1500 603"><g id="floor"><path d="m267.7 589.9c-.4-2.8-1.3-5.5-1.7-8.3-.9-5.5-2.1-6.5-7.6-5.5-2.4.4-4.2.2-5.8-1.5-8.6-1.9-17.3-.5-26-.7 1.5-4.7 3.8-5.9 7.5-4.4 7.2 3 14.4 1 21.6-.3.2-.7.1-1.3-.2-1.9-3.3-7.2-3-7.8 4.7-8.9 2.6-.4 3.4-2 3.5-4.1.3-6.3.4-12.5.2-18.8-21.6 2.2-43.2 3.9-65 4.1-18.2.2-36.4-.1-54.6 0-.1.1-.1.1-.2.2-2.4 2-5.3 3.7-8.3 4.8-5.5 3.1-11.1 6-16.7 8.9-4 2.4-8.2 4.5-12.3 6.7 3.9-2.2 7.9-4.3 11.8-6.5 5.8-2.9 11.4-6 17.1-9-1 .4-2 .7-3 .9-1.4.3-2.9.6-4.2 1.1-.1.1-.3.1-.4.1-5.5 3.7-10.4 7.4-16.6 10.4-5.8 2.8-11.9 5.2-17.8 7.9-1.6.7-3.2 1.4-4.8 2.2-.1.1-.2.1-.4.2-2.4 1.4-4.7 2.8-7 4.3-2.3 1.5-4.6 3.1-6.9 4.6.4 0 .8 0 1.3-.1 1.3-.2 2.6-.6 3.8-1.2 1.3-.7 2.6-1.4 3.9-2.1-3.1 1.7-6.1 3.5-9 5.6-3.3 8-8.9 14.2-14.8 20.2-1.5 1.5-3.3 3-2.4 5.5h196c2-2.1 4.8-2.1 7.3-2.9 6.1-2.2 8-5.3 7-11.5m-165.5-27.2c-5.3 3.2-10.9 5.9-16.4 8.9 6.7-3.7 13.5-7.4 20.2-11-1.2.6-2.5 1.3-3.8 2.1" style="fill:#04030b"/><path d="m1445.5 604c-29.7 0-59.3 0-89 0-8.9-.8-17.8-1.1-26.7-1.5-21-1-42.1-1.6-63.1-3.7-7.1-.7-14.3.3-21.4-.6 8.1 1.5 16.2 3 24.5 3.3 3.2.1 6.3-.2 9.5.1 1.7.2 3.9-.3 4.2 2.4-39 0-78 0-117 0-3-1.6-7.9-1.6-6.2-7.2 3.9-2 7.9-1 12-.5 1.8.2 3.7 1 3.9-2 4.3-1.8 9.3-1.6 13-5 .7-.6 1.8-.9 2.2-2.4-5.3.7-8.9 5.7-14.3 5.3-2.9-3.2-.2-4.7 1.9-6.2 4.2-2.9 9.2-4.6 13.4-7.7 3.4-2.1 6.3-1.6 10.2-.3 7.2 2.4 14.2 7 22.5 4.5 2.3-.7 4.3-1.3 6.2-3 2.3-2.1 5-3.4 8.1-1.5.2.1.4.5.7.7.1.1 0-.2.2-.6 2.4-5.8 7.5-6.5 13.5-6.5-1.5-1.7-3.8-2.7-2.8-4.9 1-2.2 3.3-1.9 5.3-1.9 4 0 8 .5 11.8-.9 1.1-.4 2.4-.4 3.5.1 4.8 1.9 9.9 2.1 14.7 3.2 8.3 1.9 16.7 2.7 25.1 3.3 8.7.6 17.4 2 25.7 4.9 3.8 1.3 7.1-.2 10.6.1 7.2.5 14.1 2 21.1 3.7 4.4 1.1 8.8 2 13.3 1.9 2.7-.1 6.5.1 7.4-2.9.8-2.7-.4-5.9-2.9-8.1-.6-.5-1.3-1.1-1.7-1.8-1-1.6-1.7-3.3.3-4.8 4.3-.4 7.2 2.1 9.9 4.8.2.6.1-.2.2.4.7 4.5 2.6 8.7 4.2 12.9 4.5-1.7 8.6 1.4 13 1.2 3.6-.2 7.2 1.1 10.9 1 6.2 1.8 11.8 5.1 17.3 8.3 1 .8 2 1.5 2.4 2.8.2 1.8-.2 3.7 1.7 5.2 1.3.8 1.9 2.4.7 3.9" style="fill:#03020a"/><path d="m727.5 604c-25 0-50 0-75 0-3.6-2.1-7.2-4.5-9.8-7.6-4.5-5.4-10-4.5-15.4-3.4-2.9.6-5.4.9-8.2-.1-2.7-1-5.6-.5-8.4-.6-1.8-.1-3.7.1-5.2-1.1.1-5.5 4.8-4.3 8-5.5 8-.4 15.9.1 24.4-.3-1.6-3.3-1.4-5.7.9-8.4 2.5-2.9 1.3-7 .9-10.6-.1-1.4-1.4-1.8-2.6-2-5.6-1.1-11.1-2.2-16.8-2.1-3.6.1-5.2 1.5-5.3 5 0 .5-.1 1-.2 1.5-.4 8.2-3.1 10-11 7.2-.5-.2-1-.3-1.4-.6-9.5-7-20.3-4.7-30.8-4.6-6.4.1-12.9 1.6-19.2-.8-1.6-.6-3.3-.3-4.9 0-2.5.4-4.6-.4-6.7-1.5-2.9-1.5-3.6-3.4-.8-5.7 5.7-2.2 11.4.8 17.1.1 1.6-.2 3.3.3 5.6-.6-2.8.5-5.3.9-5.8-2-.6-2.8 1.8-3.1 3.7-3.6 1.6-.4 3.1-1.2 4.7-1.7 11.1-2 22-1.4 33.2-.1 16.1 1.9 32.4 3.2 48.7.9 9.3-.4 18.6-.2 27.9-.2 2.3 0 4.9.4 6.7-1.2 4.8-4.3 10.9-4.2 16.4-4.4 12.1-.4 24.2-.7 36.3.2 3.4.3 6.9-.6 10.4-.4.9.1 1.7.3 2.4.7 1.6 1.3 1.4 3.2 1.6 4.9.2 1.8.4 3.7 2.7 4.1 5.6.4 11.3.1 16.9.2 1.3 0 2.7 0 4 .1 2.6.3 5.4 1.1 5.2 4.2-.2 2.8-3.2 2.4-5.2 2.4-7.8.2-15.6 0-23.4.1-6 .1-7.4 1.4-8 7.1-.7 6.5-.7 6.5-5.4 10.4 1.7 1.7 4.3 2.7 4.5 5.5 0 1.5-.9 2.5-2.1 3.1-3.3 1.7-5.5 3.9-5.7 7.9-.1 2.9-3.5 2-4.9 3.5" style="fill:#fefefd"/><path d="m274.1 571.1c1-2 .7-4.2.1-6.4-2.8-9.9-3.4-19.9-3.3-30.1-2.8.3-5.6.6-8.4.9 0 5.9 0 11.8 0 17.7 0 2.8 0 5.4-4.1 3.3-2.8-1.4-4.4.9-5.8 2.6-1.6 1.9-1.8 4.3 0 6.4.9 1.2 1.9 2.3 2.9 3.4 2.4 2.2 2.9 3.9-.9 4.9-.8.2-1.6.5-2 1.2.6 3.4 2.7 3.1 5.2 2.4 3.9-1.1 7.4-1.4 6.9 4.6-.1 1.7.6 3.6 1.2 5.3 2.4 7.6.6 12.1-7.6 13-1.8.2-5.2-.1-4.7 3.6h22c1.6-3.3.1-7.3 2.3-10.4 1.9-2.8 1.2-5.3-.8-7.6-4.5-4.2-6.1-9-3-14.8" style="fill:#0c0b16"/><path d="m1093.5 604c-12.7 0-25.3 0-38 0-.9-2-.6-4.2-1-6.3-.5-3.1.1-5.7 4.5-5.9-2.6-1.6-5-1.3-7.2-1.7-.9-.2-2.2-.3-2.3-1.5-.1-1.2 1.3-1.2 2.2-1.8-6.6-.9-11.8-5.9-18.5-5.2-.5 0-.9-.2-1.4-.4-1-.7-2.2-1.1-3.3-.7-4.4 1.7-8.5 1.5-12.8-.6-1.8-.9-3.5.7-4.7 2.1-1.8 2.1-3.5 3.7-6.1 1.1-1.5-1.5-3.1-.4-4.7-.1-3.6.7-6.5 0-8.5-3.4-2.3-3.9-6.7-5.9-9.4-9.5-.6-.8-1.7-1.1-2.7-.6-4.2 2.5-9 1.6-13.5 2.6-5.9-2.4-12.1-4.1-17.9-7-2.5-1.2-4.9-2.2-7.6-1.2-6.6 2.5-11.8-.7-17-4 .1-10.1 3.6-13.6 13-11.9 7.1 1.2 13.8-.7 20.6-1.6 2.8-.4 5.5-1 8.4-.5 3.4.9 5.7 3.1 8 5.7 6.3 7.3 17.4 8.1 24.5 1.6 2.8-2.6 5.8-3.7 9.5-3.2 6.2 1.3 12.1 3.3 17.2 7.4 4.5 3.7 9.4 5.2 15.3 3.5 3-.9 6.2-1.1 9.3-1.6 1.5-.3 3.1-.8 4.4-.3 13.7 4.4 29.1 3.4 40.9 13.5 3.4 2.9 7.6 4.7 10.9 7.8.4 2 1.4 3.6 3.4 4.5 1.7.8 2.8 2.5 1.1 4-2.9 2.5-4.7 6.2-8.5 7.5-3.8 1.2-6.7 3.6-8.1 7.7" style="fill:#c2b357"/><path d="m848.5 604c-14 0-28 0-42 0-3.2-5.7-6.4-11.5-2.4-18.1 2.2-3 7.6-3.6 6.9-8.9-.7-2.5-2.8-2.6-4.8-2.6-3.1 0-5.9-.6-7.5-3.7-.3-.6-.8-1.1-1.4-1.3-5.1-1.7-7-5.1-5.8-10.3.6-2.6-1.9-2.7-3.2-3.7-1.1-2.8 1-3 2.8-3.4 1.7-.4 4 .1 4.2-2.5.2-2.5-.9-4.5-3.5-5.3-1.1-.3-2.2-.9-2.6-2.1 3.4-3.7 5.9-3.4 9.3 1.3 1.1 2.5.4 5 .4 7.5.1-1 .1-2.1.1-3.1 0-.9.2-1.7 1.2-1.9.9-.2 1.5.4 2 1.2 4.4 7.4 11.1 9.9 19.3 9.2 1.4-.1 2.7 0 3.8.9 1.6 1.2 2.9.9 4.5 0 7.4-4.2 10.9-3.2 16.3 4.3.6 2.6 2.8 2.4 4.8 2.4 4.3.1 8.6-.1 12.9.1 5.5.2 6.6 1.6 4.6 6.7-1.9 4.9 2.8 2.6 4 4.1 1.7 3.9-1.8 4.2-3.5 3.8-5.4-1.3-10.7 1.8-16.2-.1-2.9-1-5.5 1.8-8.4 2.5-1.3.5-2.6 1-4 1.3-.8.2-1.7.5-2.3 1.1-1.9 2.1-1.4 3.5.7 5.4 4.1 3.7 6.6 8.7 9.8 13.1.4.4.5 1.3 0 2.1" style="fill:#fefec6"/><path d="m391.5 604c-1.7 0-3.3 0-5 0-.8-2.8 1-4.7 2.3-6.7 2.9-4.2 1.5-10.2-3.4-12.3-2.8-1.2-5.5-2.1-7.1-5-.7-1.2-2-2-3.4-1.3-1.5.7-.5 2-.3 3.1 1.4 7.8-4 14.7-11.8 14.5-5.3-.1-11 1.5-15.5-3.2-1.4-1.4-3.6-.6-5 .8-2.1 2-4.5 3.3-7 5 .7 1.8 4.3 2.4 2.1 5.2-2.3 0-4.7 0-7 0-1.5-2-3.8-1.4-5.8-1.7-1.5-.2-3.7.1-4-1.8-.2-1.7 2-1.7 3.3-2.3 4.6-1.1 8.5-3.3 11.5-7.2 3-4 7.1-6.6 12.3-7.7 7-1.5 12.4-5.9 17.5-10.8 1.5-1.5 2.9-3.2 4.8-4.3 5-1.5 10.3.5 15.2-1.7.8-.2 1.7-.2 2.5.1 7 1.7 14 2 20.9-.3 7.4-1.4 14.9-.6 22.3-.5 2.9 0 4.2 1.3 3.4 4.5-.7 2.8-1.5 5.4-3.6 7.5-.4.7-1 1.3-1.6 1.8-4.8 3.4-10.5 4.7-15.9 6.6-4.1 1.4-7.9 3.2-11.1 6.2-3.3 3.8-7.8 6.9-10.6 11.5" style="fill:#fcfdb3"/><path d="m1024.5 604c-29.7 0-59.3 0-89 0-5.9-3.4-12.5-5.5-17.8-9.9-1.1-.9-3.9-1.7-1.2-4 4.1-1.1 8.3-.5 12.4-.6 9.6-.1 19.3-.1 28.9 0 8.8.1 17.3 3.1 26.2 2 1.6-.2 3.3.1 5.6-.4-4-2.3-7.3-4.8-7.6-9.5.2-1 1-1.3 1.8-1.5 1.4-.1 2.7.4 3.9 1 5 2.7 9.7 6.7 16 3.1 1.4-.8 3.1-.2 4.3.5 5 3.1 10.8 3.8 16 6.3 7.1 5 7.2 7.7.5 13" style="fill:#fdfeae"/><path d="m460.5 604c-.7 0-1.3 0-2 0-1.4-1.5-1.2-3.3-1.3-5.1-.1-1.5.1-3.1-1.1-4.2-1.5-1.4-3.1-2.8-1.1-4.9 2-2.1 4.9-2.8 6.7-.9 3.8 3.9 9.3 4.9 13.3 8.3 2.3 2 4.4 2.2 6.2-.5.7-.7 2-1 2.2-2 1.7-6.5 7.5-10 10.8-15.3 1.9-2.9 4.7-4.5 8.4-4.6 5.2-.2 10.1-.6 13.2-6.1 1.9-3.3 7.3-2.3 9.2 1.1.6 1.2.9 2.5 1.6 3.6 1.2 1.8 2.9 1.2 4.5.9 1.5-.3 2.9-.5 4.4-.2 1.4.3 2.5.9 2.7 2.5.2 1.7-.5 3-2.1 3.4-2.9.8-5.8 1.2-8.8 1.5-4.5.4-5.1 1.6-3.4 5.8 1.3 3.1 3.1 5.8 5.5 8.1.9 3.8-2.4 4.9-4.5 6.7-1.3 1-3.2.9-4.5 2-15.3 0-30.7 0-46 0-.7-.7-1.2-1.5-1.9-2.2-4-4.6-6.7-4.5-10.5.4-.4.5-.9 1.1-1.5 1.7" style="fill:#fefecc"/><path d="m915.4 591.1c4.6 3.8 10 6.3 15.2 9 1.9 1 4 1.7 4.9 3.9-17 0-34 0-51 0-2-7.1-8.6-8.6-14.2-11-4.4-1.9-9.4-2.1-14.2-2.5-5.8-.5-10.7-3.5-16.3-4.6-2-.4-2.4-2-2.3-3.9.4-.9 1.1-1 2-.9 1 .6 2 .2 3.1.4 8.1.6 16.1 1.8 24.1 2.4 3.2.2 6.3-.5 9.4-.3 1.2.1 2.3 0 3.5.2 1.1.2 2.6.3 2.7 1.7 0 1.5-1.6 1.4-2.6 1.8-.5.2-1.4-.2-1.6.8 11.6 2.6 23.5 1 35.2 1.8.9.1 1.6.4 2.1 1.2" style="fill:#cfc562"/><path d="m481.6 597.1c-.9 4-2.8 5.3-6.1 2-4.1-4.2-10.9-4.1-14.5-9.5-1-1.6-4.2-.9-5.6 1.2-1.7 2.6 1.2 1.9 2.1 2.6 1.6 1.3.8 3.1.9 4.6.1 2 0 4 0 6-1.7 0-3.3 0-5 0-3.8-6.3-9.8-7.8-16.6-7.7-2.4 0-6.4 1.1-6.3-2.5.1-2.9 4-1.8 6.3-2.1.8-.1 1.7-.1 2.5 0 5.3.7 9.5-.8 11.9-6.2-4.2-2.4-9.3-4-11-9.5 0-.9.5-1.4 1.2-1.8 1.9-.7 3.7-.3 4.9 1.3 2.6 3.2 4.4 3.6 6-.9 1.1-3.1 3.3-3.3 5.8-1.2 3.8 3.1 4.7 2.8 6.1-2.1.7-2.5 2.1-3.7 4.5-3.7 2.6-.1 2.7 2 3 3.8 1.1 4.3 2.5 5.2 6.6 3.6 3-1.2 5.5-1.4 7.2 1.8 1.6 3.2 0 5.6-2.6 7.2-3.6 2.2-4.7 4.2-1.1 7.4 2 1.8 1.6 3.9-.2 5.7" style="fill:#fdfd91"/><path d="m805.3 585.9c-2.9 3.9-2 7.9-.5 12 .7 2 1.1 4.1 1.6 6.1-15.7 0-31.3 0-47 0-1.4-6.8 1.3-12.5 6.3-16.6 4.8-4 10.1-5.5 16.5-2.1 4.8 2.6 10.2.2 15.4-.5 1.1-.2 2.1-1 3.2-1.2 1.9 0 3.7.3 4.5 2.3" style="fill:#a8b794"/><path d="m440.5 576c2.7 3.1 5.9 5.5 9.3 7.7 1.5 1 4-2.1 4.5 1 .3 2.2-3 2.1-3.5 3.7-1.7 5.9-6.4 4.4-10.5 4.6-3 .1-6.1-.4-10.6.9 4.4 1.7 7.7 1.1 10.8 1.1 3.9 0 7.2 1.7 10.4 3.5 2 1.1 2.8 3.2 2.7 5.5-20.7 0-41.3 0-62 0 .5-6.3 6.7-8 9.9-12 4.4-.8 8.9-.4 13.4-.3 6.6.1 13.2-.3 19.8-1.1 2.1-.3 5.1 1.2 5.8-2.2.6-2.8-.3-5.3-3.2-6.5-2.3-2.4 1-3.3 1.4-5.1.3-.6.9-1.1 1.8-.8" style="fill:#f7ee81"/><path d="m337.5 604c0-1.7-.3-3-2.4-3-1.1 0-2.5 0-2.4-1.8.1-1.4 1.1-1.9 2.3-2.2 2.6-.7 4.4-2.5 6.4-4.3 2.6-2.4 5.7-3.4 8.2.4 1 1.5 2.2 1.8 3.8 1.8 2.5 0 5.1-.4 7.5.1 6.7 1.4 9.7-2.5 12.4-7.7 2-3.8-1.4-6.6-1-10.1 3.6-.5 7.1-1.3 8.2 3.7.4 1.7 2 1.8 3.6 2.1 3.9.7 9.3 7.6 8.9 11.2-.1 1.2-1.3 1.9-2.2 2.6-2.4 1.8-2.9 4.8-4.4 7.1-5.7 0-11.3 0-17 0-8-5.3-16-3.8-24 0-2.6.1-5.2.1-7.9.1" style="fill:#fdfdf8"/><path d="m605.4 591c5.8.5 11.8-1.4 17.5 1.7 1.9 1 3-1.8 4.9-1.8 3 .1 6 0 8.9 0 2.3 0 3.9 0 5.3 2.9 1.3 2.7 4.7 4.4 7.4 6.4 1.4 1 2.5 2.2 3.1 3.7-20.3 0-40.7 0-61 0 .2-3.5 3.5-4.4 5.4-6.5 1.8-2.1 3.8-4 5.9-5.9.8-.4 1.6-.9 2.6-.5" style="fill:#fbfdc5"/><path d="m837.6 582c3.3 4.5 8.8 4.2 13.3 5.9 6.6 2.4 14.2 1.4 20.8 4.1 4.3 1.8 8.5 4.1 12.5 6.6 2.4 1.4-.3 3.7.3 5.5-12 0-24 0-36 0-4.5-5.2-6.7-12.2-12.9-16.3-3.2-2.2.8-4 2-5.8" style="fill:#b8b662"/><path d="m801.5 584c-2.9 2.5-6.3 3.3-10.1 3-1.6-.1-3.4-.5-4.8.6-1.9 1.6-3.1.7-4.6-.6-5.2-4.4-16.2-1.7-18.8 4.9-1.5 3.9-3.7 7.7-3.7 12.1-3.7 0-7.3 0-11 0-.1-3.9 3.4-5.3 5.5-7.6 3.3-3.8 3.4-3.8-1.4-5.3-2.4-.8-2.8-2-1.5-4 3.6-2.3 7.3-4.1 8-9.2.3-2 3-1.4 4.7-1.8 1.9-.4 3.9-.4 5.9 0 3.9 1.1 8 0 11.1 1.3-1.3-.1-3.2-.5-3.4-3.1 5.9-1.6 11.8-1.7 17.4 1.1.2 2.4-1.4 2.1-2.9 2.1 3.2-.1 6.3-1.3 9.5-.8 1.5.2 3.3 0 4 1.5.8 1.6-1 2.6-1.8 3.7-.6.8-1.2 1.6-2.1 2.1" style="fill:#c4d19f"/><path d="m1093.5 604c-.6-4 .8-6.8 5.1-7.6 5.1-.9 7.1-5.9 11-8.4 1.8-1.2-.4-2.1-1.5-2.6-1.8-.9-4.5-1.3-2.6-4.4 3.7-.1 5.6 3.1 8.3 4.8 1.7 1 3.3 2.2 5 3.3 1.7 1.2 3.3 2.3 5.1 3.2 4.3 2.7 8.7 5.2 13 7.8 1.1 1.1 3.1 1.6 2.6 3.8-15.3.1-30.7.1-46 .1" style="fill:#9e9354"/><path d="m315.5 604c-3.7 0-7.3 0-11 0-.5-.5-.7-1.2-.4-1.8 5.5-10.8 12.2-20.9 18.5-30.6-1.9.6-4.2 1.5-4.4-2.5 1.4-1.4 3.2-2.5 4.7-3.8 1.3-.5 2.6-.7 4-.7 3.5.8 7.2-2.1 10.7.2.2 2.4-1.8 2.4-3.2 2.9-3.2 1-6.5 1-9.8 1.7 5.1-.9 10.2-1.3 15.2-.2 3 2.7.3 4.5-1.3 6-5.8 5.9-11.5 11.7-16.2 18.6-2.4 3.4-3.1 7.7-6.8 10.2" style="fill:#919c70"/><path d="m1283.5 604c-1.2-1.3-2.8-1-4.2-.9-10.2.7-20.2-1.3-30.2-2.2-3.2-.3-6.5-1.6-9.5-3.9 3.6-2.1 6.5.2 9.6 0 17.4-.7 34.8 1.7 52.2 2.5 17.6.8 35.4 1.4 52.9 3.6.8.1 1.5.6 2.2.9-24.3 0-48.7 0-73 0" style="fill:#111556"/><path d="m297.5 604c-5.7 0-11.3 0-17 0-4.8-8.3-4-11.4 3.1-17.9 4.7-4.3 10.3-7.1 15.2-11.1 2.8-2.3 6-2.8 8.9.1-1 3.7-3.4 6.8-5.5 9.8-2.7 3.8-3.5 7.6-3.4 12 .1 2.4.5 5-1.3 7.1" style="fill:#495e4e"/><path d="m297.5 604c0-1.2.1-2.4-.1-3.5-1.8-10.6 4.1-18.1 10.1-25.5.8-2.8 3.4-3 5.4-4 1.9-.4 3.4-2.3 5.6-1.7.7 3.1 3.8.9 5.3 2.3-6.3 11-13.6 21.2-19.2 32.5-2.4-.1-4.8-.1-7.1-.1" style="fill:#758362"/><path d="m603.6 592.1c-4 4-8 8-12.1 11.9-10.3 0-20.7 0-31 0-2.1-3-.9-5.4 1.6-7.3 2.5-1.9 5.3-3.5 8.2-4.8 9.9-.7 19.7-1.1 29.6-2.1 1.5 0 3.4-.1 3.7 2.3" style="fill:#91a270"/><path d="m569.5 593c-1 2.1-3.3 2.5-5.1 3.5-3 1.7-4.6 3.9-3.9 7.4-13.3 0-26.7 0-40 0 2.6-3.1 7.1-4.1 9.2-7.9 3-2.8 6.8-3.8 10.7-4.3 7.6.6 15.1-.7 22.6-.2 2.2.1 4.6-.3 6.5 1.5" style="fill:#aab771"/><path d="m315.5 604c3.1-7.9 8.2-14.6 13.6-21.1 3.7-4.4 9-7.3 11.4-12.8 2.6-2.4 5.9-1.2 8.9-1.5 5.2 1.1 5.2 1.3 2.1 5.2-.2.3-.4.5-.6.8-7.9 7.2-15.7 14.5-23 22.3-.9 1-2.2 1.3-3.3 2-1 .5-1.9 1-4 2 3.1 0 5.1.1 7.1 0 2.1-.1 3 .9 2.9 3-5.1.1-10.1.1-15.1.1" style="fill:#b3bc81"/><path d="m313.5 572c-2 1-4 2-6 3-4.5-1.8-7.6.6-10.9 3.3-3.9 3.2-8.4 5.6-12.3 9-6.1 5.5-6.5 5.4-4.1 13.2.3 1.1.2 2.3.3 3.4-1.7 0-3.3 0-5 0-1-4.3-1-8.7 1.9-12.2 1.9-2.3-1.2-3.1-.8-4.8-.5-5.3 1.8-8.8 6.7-10.8 4-1.7 7.2-3.9 9.6-8.1 2.1-3.6 6.5-1.4 10-1.3 1.4 2.2 3.5 2.7 6 2.9 1.7.2 4-.4 4.6 2.4" style="fill:#3b3935"/><path d="m751.5 588c-.9 3.5 1.9 1.7 3 1.9 1.4.3 3.1.1 3.7 1.7.7 1.7-.6 2.7-1.6 3.8-2.7 2.9-5.4 5.7-8 8.6-7 0-14 0-21 0 2.8-2.1 4.1-4.6 4.5-8.5.3-2.9 5.2-3.3 7.6-5.5 3.5-2.9 7.3-4.1 11.8-2" style="fill:#e5e273"/><path d="m1046.5 604c-4.3 0-8.7 0-13 0-3.8-1.3-5-3.9-3.8-7.8.5-1.7.7-3.3-1.3-4.3-3.5-1.8-5.1-4.6-3.1-8.2 2.1-3.9 5.4-3 8.6-1.3 2 2.7 4.4 4.3 7.9 5.2 7 1.8 9.2 10.2 4.7 16.4" style="fill:#fcf981"/><path d="m1046.5 604c1.2-5 2.8-10.1-2.5-13.9-1-.8-2.6-2.1-3.4-1.8-5.4 2-5.6-2.5-7.2-5.4-.6-.5-1.6-.8-1-2 3.9-2.1 7.3.1 10.8 1.4 2.9 1.1 5.4 3.4 8.8 2.8 1.3-.2 2.7-.1 2.8 1.3.2 2.3-1.8 1.2-2.9 1.5-.4.1-.9.2-2.7.5 5.1 1 9.6-.2 13 4.3-6.6-.6-8.2 2.1-6 7.4.5 1.3-.3 2.6-.9 3.8-2.8.1-5.8.1-8.8.1" style="fill:#d7c25f"/><path d="m1139.5 604c-.4-1.6-2.4-1.6-3.1-2.9.1-5.3.9-5.9 8-6.5.2-1.1-2.2-2-.3-3.3 2.3-1 4.7-.7 7-.6.8 0 1.6.2 2.3.3 1.8.8 4.9.6 4.6 3.6-.3 3.2-3.3 3.7-5.8 3.5-4.7-.3-5.7 1.8-4.7 5.8-2.7.1-5.3.1-8 .1" style="fill:#bdd2ad"/><path d="m345.5 604c2.6-3.8 13.4-6.9 17.5-4.1 2.1 1.5 6.8-1 6.5 4.1-8 0-16 0-24 0" style="fill:#fdfdb7"/><path d="m1032.5 581c.3.7.7 1.3 1 2-1.6-.3-3.3-1-4.8-.7-2.2.3-3.2 2.1-3.2 4.3.1 2.5 1.4 4.2 3.8 4.3 2.5.2 3.4 1 2.2 3.3-1.9 3.8-1.4 7.1 1.9 9.8-3 0-6 0-9 0 .3-.6.5-1.2.8-1.8 3.8-6 3.8-6-2-10.2.3-1.5-.2-2.9-.3-4.4-.1-6.2 3.5-8.7 9.6-6.6" style="fill:#e0d265"/><path d="m1147.5 604c-.8-1.8-3.3-3.1-2.1-5.6 1.3-2.5 3.8-1.1 5.8-1.4.3-.1.7 0 1 0 2 0 4.4.1 5-2.1.7-2.8-2.9-1.2-3.7-2.9 1.4-1.4 3.1-1.3 4.8-.7 1.6.9 2.3 2.3 2.1 4.1-1.1 3.8-5.1 5.3-6.9 8.5-2 .1-4 .1-6 .1" style="fill:#9aa87c"/><path d="m460.5 604c.4-4.2 2.8-7.1 7-6.8 3.7.2 6.8 2.4 7 6.8-4.7 0-9.3 0-14 0" style="fill:#fdfdf4"/><path d="m1153.5 604c-.3-4.5 4-5.4 6.1-8 .9-.2 1.3.1 1 1.1-.6 4.5 4.3 4.3 5.9 6.9-4.3 0-8.7 0-13 0" style="fill:#3c5c40"/><path d="m255.5 569c1.9.1 4 .2 3.8 2.8-.2 2-1.8 3.1-3.8 3.3-1 .1-2 .1-3 .1-9.4.4-18.8-1.3-28.2 1.5.7-3.3.2-7.2 4.5-8.7 2.4-.9 4.9-1.9 6.6.7 1.2 1.9 2.9 1.8 4.3 1.4 5.2-1.7 10.5-.7 15.8-1.1" style="fill:#0e134e"/><path d="m144.1 539.7c0 0 0 0 0 0-1.5 1.2-3.1 2.3-4.8 3.3 2.2-.7 4-1.9 5.6-3.4-.4 0-.6 0-.8.1" style="fill:#62655e"/><path d="m1385.8 563.8c-1.2 1.3-1.3 3.1 0 3.8 3.7 1.9 4 5.5 5.5 8.7 1.5 3.3.3 3.7-1.9 4.6-7.4 3-14.6 1.2-21.7-.9-8.3-2.5-16.9-2.7-25.3-3.9-.3 0-.7.1-.9.2-1.6.7 1.4 3.7-1.9 3.5-2.5-.2-.6-3.8-2.3-3.6-4.6.4-8.2-2.6-12.3-3.1-13.6-1.8-27.6-.7-40.7-5.7-.3-.1-.9-.3-.9-.2-3.9 5.2-6.2-.2-9.2-1.3-3-1.1-5.8-1-9 .3-2.8 1.1-6.4-.1-9.6 0-1.3 0-3.4-.8-3.6 1.4-.2 1.7 1.6 1.9 2.8 2.4 1 .4 2.6.3 2.1 2-.3 1.1-1.5 1.1-2.6 1.1-1.2 0-2.3 0-3.5 0-6.3.1-9.3 3-9.5 9.3-2.4-.6-.8-5.6-4.8-4.2-2.4.8-4 3.3-5.7 4-4.1 1.7-8.9 4-13.3 2.1-5.9-2.6-12.8-2.2-18-6.6-2.5-2.1-4.3 2.2-6.8 1.4-2.4-1.1-4.4 0-6.6 1.1-2.6 1.2-5.4 4.2-8.1 1.5-2.8-2.8-5.1-6.7-4-10.8 1-3.7 1-7.6 1.9-11.2 3.4-6.6 6.1-7.5 12.1-3.5 4.9 3.3 10.2 4.7 15.9 5.3 1.2.1 2.6.5 3.4-.2 5.2-3.7 11.3-2 16.9-3.4 2.4-.6 5.1-.7 7.4 0 9.3 2.9 18.8 1.4 28.2 1.7 2 0 4 0 5.9.6 1.4.6 2.6 1.3 4.2 1.4 23.5 1.8 46.7 6.1 70 9.4 13 1.8 25.9 4 38.9 6 4.9.8 5.7-.3 4.2-5.1-.7-2-1.9-3.9-2.3-6.1-.3-1.7-1.3-3.7 1.4-4.6 1.6.1 3.2.6 3.7 2.6" style="fill:#080723"/><path d="m1176.5 560c-.3 3.5.9 7.2-1.6 10.5-.9 1.2 2.4 10 3.6 10.8 1.2.8 2.2-.1 3.2-.5 2.5-1.2 4.9-2.6 7.4-3.9 2.1-1.1 3.5-.7 3.3 2-3.1 4.4-8.7 4.7-12.6 7.8-1.9 1.4-4.2 2.3-2.4 5.2.6 1.1-.4 1.4-1 2 2.5 3.7.6 4.7-2.7 3.9-4.4-1-8.8-.8-13.2-.8-.3-.4-.7-.7-1-1.1-.1-1.4-.2-2.9-1.2-4-1.2-3.6-.7-7.3-1.2-11 .8-.9 1.8-.7 2.9-.5-1.2-3.4-3.2-6.1-5.6-8.6-3.9-4.1-3.9-6.2-.5-10.9 2.4-3.3 5.2-6 8.5-8.4 1.1-.1 1.9.6 2.3 1.4 2.6 4.9 6.2 7.6 11.8 6.1" style="fill:#23272c"/><path d="m1423.6 584.9c-5.8.2-11.4-1.3-17.1-1.6-2-.1-5.3-4-6.8 1.2-.2.8-2.3.2-2-.9 1.3-5.5-4.2-9.5-3.2-14.8 1.1-.9 2.2-.4 3.3.1 7.7 4.2 15.4 8.5 23.1 12.7 1.2.7 2.9 1.4 2.7 3.3" style="fill:#131b34"/><path d="m1423.6 584.9c-9.4-5.8-19.3-10.9-29.1-16-2.7-2.1-5.6-3.9-8.8-5-.8-1.1-2-1.5-3.2-1.9-5.1-.7-8.8-4.4-13.4-6.3-.9-.7-2.3-1.2-1.7-2.9.7-.5 1.4-.3 2.1 0 7.1 2.5 13 7.3 19.9 10.2 16.9 9.4 33.8 18.8 50.8 28.2.8.2 1.4.6 1.2 1.5-.1.5-.7.5-1.1.3-5.5-2.6-11.1-5.3-16.7-8.1" style="fill:#bdcdda"/><path d="m1176.5 594c.3-.7.7-1.3 1-2 4.1-2.2 8.1-4.4 12.2-6.5 1.1-.6 2.4-1.7 3.4 0 .7 1.2.7 2.7-.8 3.4-5 2.5-9.3 7.2-15.8 5.1" style="fill:#262431"/><path d="m539.6 593c-3.3 1-6.6 2.1-9.9 3.1-5.4-1.7-6.3-6.9-8-11.2-1-2.6-.2-5.5 3.9-4.8 3.2.5 6.2-.9 9.4-1 1.5-.1 2.7-.5 2.5-2.3-.2-1.5-1.4-1.8-2.6-1.6-1.5.1-2.9.7-4.4.8-1.8.1-4.2 1.3-4.9-1.8 3.6-2 6.6-4.5 8-8.7.6-1.8 2.1-3.4 3.8-4.3 1.9-1 4.1-1.5 3.2 2.2-1.2 2.8 1.8 6.3 5.5 5.6 3.7-.7 7-1.1 10.4 1.1.7.5 2 .2 2.9.1 9.4-1 18.9-.7 28.3-1.1 4.8-.2 8.9 1 12.6 3.6 2.1 1.5 4.3 2.3 6.8 2.8 5.9 1.4 7 .4 6-5.4-1.1-5.9 1.4-8.6 7.3-9 6.4-.4 12.4 1.7 18.7 2.1.9 0 1.6.2 2.2 1 .6.9.5 13.9-.3 14.2-6.8 2.7-2 5.1 1.1 8.8-10.1 0-19.3 0-28.5 0-2.3-3.3-5.6-3.9-9.2-3.2-8.5 1.7-17.1 1.6-25.7 1.1-7.3-.4-14.9.1-21.8 3.7-2.1 1.1-4.3 1.7-6.6 2.2-1.7.4-3.4.9-5.1 1.3-2-.1-3.9-.4-5.6.7" style="fill:#f6fab7"/><path d="m540.5 563.1c-.2-1.5-1.2-2.9-2.5-1.5-1.6 1.8-4 3.2-4.4 5.8-.7 4.8-3.8 6.5-8.1 6.6-1.3-.9-.8-2.4-1.3-3.6-1.3-2.9-6.6-3.8-7.6-1-2.3 6.3-7.6 6.4-12.5 6.4-4.6 0-7.5 1.7-9.7 5.4-3 5-8.8 8.1-9.8 14.4-.2 1.4-1.8 1.2-2.9 1.4 1.2-2.9.1-5-2.2-6.8-3-2.2-2.7-4.1.6-5.7 1.3-.6 2.6-1.5 3.6-2.5 1.5-1.5 2.2-3.3.8-5.3-1.4-2-2.8-2-5-.8-4.8 2.6-7.9 1.1-8.8-4 2.2-.9 3.8 3 6.2.8.3-.3.6-.6.9-1 1-1.5 1.6-3.2 3.3-4.2 1.2-.8 2.6-1.7 2.1-3.5-.6-2.1-2.4-1.8-4-1.8-14 .4-28-.8-41.9 1-7.5 1-14.9 1.1-22.4 1-3.3 0-6-.7-6.8-4.5-.2-1-.6-2.1-1.8-2.2-1.5-.1-2.5.9-2.9 2.3-1 3.2-3.1 4.5-6.4 4.3-1.4 0-2.9 0-4.1-.9-.7-.6-.9-1.4-.6-2.3 1.5-4.4 12.3-10.3 16.9-8.9 2.4.7 4.4.6 6.8 0 4.9-1.4 9.9-.6 14.9-.6 1.3 0 3 .7 3.9 0 4.8-3.8 9.8-2.2 15-1.2 3.5.6 7-.6 10.2-1.8 10.6-3.6 18.7 1.3 26.6 7.2 3 2.2 2.4 5.7 2.4 8.8-.1 3.4 1.2 4.8 4.6 3.9 6.4.3 12.2-2.2 18.3-3.7 11.3-2.8 21.2-8.9 32.4-11.8 2-.7 3.9-1.5 5.9-2.1 7.2-1.1 14.3-2.6 21-5.7 1.5-.7 3-1.4 4.8-.6 3 4.8 2.4 6.5-2.6 7.6-3.1.7-5.9 2.1-8.6 3.7-.9 2.1-2.8 2-4.6 2-1.3 0-2.5.4-2.1 1.9.3 1.5 1.4 2.2 3 1.2.6-.3 1.1-.8 1.7-1 1.8-.4 3.1.7 3.5 2.1.5 2.3-1.6 1.5-2.7 1.6-8 1.1-15.5-.1-23.1-.4" style="fill:#fbfba2"/><path d="m751.5 588c-4.1-.1-8 1.1-11.9 2-1-2.1-1.9-4.4-4.9-4.1-1.1.1-1.9-.4-2.1-1.7-.1-1.4.6-1.9 1.9-2.3 3.5-1.2 6.5-2 4.6-7.5-1.8-5.3 2.6-9.4 8.5-9.4 8.5-.1 16.9 0 25.4-.1 1.3 0 3.6.8 3.8-1.1.1-2.1-2-2.8-4-2.8-5 0-10 0-14.9 0-2.5 0-5 0-7.5-.1-2.6-2.8-1.8-6.7-3-9.9-.7 0-1.3 0-2-.1-.6-.7-.6-1.5-.1-2.2.6-.5 1.4-.8 2.2-.9 1.7-.2 3.4 0 4.7 1 5.8 4.4 11 2.6 16.3-1 2.1-1.4 4.3-3 5.8.8.3 1.4-.9 2.4-1.1 4.2 5.4-1.1 10.2.7 15.2 2.2 4-.4 6.1.7 4.3 5.2-.5 1.4-.3 4.5.1 4.7 5.4 1.4 7.2 8.9 13.8 8.2 3.1-.4 5.7.1 5.7 4.2-.6.6-1.5 1.1-2.2.8-5.1-1.9-10.5-1.1-15.7-2-5.6-1.9-11.3-.7-17-1.2-2 2.9-5.1 2.2-7.9 2.3-2 .1-3.9.2-5.9.3-2.7.2-4.7.7-4.5 4.3.1 2-1.2 4.1-3.9 4.3-1.4.1-2.8.6-3.7 1.9" style="fill:#fbfdaf"/><path d="m564.5 556c1.3-3.2 4.4-4.9 7.2-4.8 6 .2 4.9-2.9 3.7-6.4.4-2.7.3-5.8 4.6-4.8 1.5 3 4.1 4 7.4 4.1 5.1.2 10.3.3 15.4 1 4.4.6 8.5 1.5 11.6 5 .8.9 1.9 1.5 3.1 1.4 10.2-.4 20.6 1.5 30.5-2.9 6.7-3 14-2.4 21.1-2.7 9.9-.4 19.9-1 29.8.8 1.5.3 3.9-.3 3.4 2.7-6.2 1.1-12.5 1.1-18.8 1.1-3.5 0-6.8.6-10.2 1.8-6.3 2.2-13 2.5-19.6 3.2-2.2.2-4.3 0-6.1 1.6-11.2 1.9-22.5 1-33.7.6-.6 0-1.3-.5-1.9-.5-12.9.4-25.5-3.5-38.5-2.1-3.1.3-6 .6-9 .9" style="fill:#e1f8c5"/><path d="m549.5 589.9c8.5-4.1 17.4-6.3 26.8-6.9 2.8-.2 5.2 1 7.8 1 6.8 0 13.5 0 20.2-1.7 3.7-.9 7 .1 9.9 2.6 1.5 1.3-.7 1.3-.7 2.1-2.8 1.2-6.5.4-8.1 4-.6.3-1.2.7-1.8 1-5-2.2-10-.1-14.9.3-6.4.5-12.8.3-19.2.7-8 .4-16.1-.8-24.1.7-1.8.3-3.8-.5-5.8-.8 1.3-1.5 3-2.1 5-1.8 2.5.4 5-.7 6.9 0-.5.2-1.4-.1-2-1.2" style="fill:#aaba8f"/><path d="m647.5 557c.5-2.6 2.5-3 4.5-3 6.2.1 12.8-.2 18.1-2.4 10.8-4.4 21.7-1.6 32.4-2.7.5-.5 1-1 1.7-1 10.4-.4 20.8-.8 31.2-.5 3.3.1 7.1-1 10.1 1.6 0 .6 0 1.3 0 1.9-14.9 0-29.8-.4-44.7.3-6.3.3-13.6-1.2-18.5 5.1-.9 1.2-2.8.6-4.3.6-10.2.1-20.3.1-30.5.1" style="fill:#e7fac7"/><path d="m747.5 551c1.9 3 1.9 6.7 3 9.9-4.4-2.2-2.5-6.4-3-9.9" style="fill:#e7fac7"/><path d="m313.1 565.6c-5.1-.4-6.4-3.7-7.4-8.1-1-4.2-3.4-4.9-7.4-2.6-3.1 1.8-4.9.6-5.7-2.1-1.8-6.8-3.5-13.7-1.1-20.4-7.3.9-14.7 1.7-22 2.5-.2 10.7.5 21.3 3.7 31.6.5 1.6.4 3.2-.4 4.8-3.4 7.1-2.4 10.8 3.8 15.8 1.1-5.6 4.4-9.2 9.8-11 3.5-1.2 6.6-3.1 7.2-7.3.2-1.3 1.1-1.5 2.2-1 2.4 1 4.5-.3 6.8-.6 3.7 2 7.4 2.3 11-.2 0-.6 0-1.3-.5-1.4" style="fill:#1e1d23"/><path d="m984.6 580.9c-.7 0-1.4 0-2.1.1-2.1 1.7-4.1.4-6.2-.1-3.1-.7-5.5-.6-6.2 3.4-.7 4.1-4.3 4.1-7.5 4.1-14.2.1-28.3 0-42.4 0-2.2 0-4.4-.3-6.2 1.4-3.2.9-4-1.4-4.6-3.6-.9-3.5-2.8-4.9-6.4-4.3-3.9.7-7.3-1.1-10.7-2.9 0-2.2 1.5-2.8 3.3-3.2 3-.3 6-.2 9.1-.2 6.1.7 12.2 1.9 18.3 2.2-2.8-.4-4.2-2.3-4.4-5.1-.1-1.5-.2-3.7-1.6-3.9-5.4-.9-8.8-6.1-14.3-6.5-4-.3-7.4-1.9-9.6-5.4-.5-.8-1.2-1.6-1.9-2.3-5.9-5.8-9.5-6.7-14.7-.6-7.4 8.6-16.4 6-25.3 6.2-1.6 0-2.8-.9-3.6-2.3-2.7-4.4-6.8-6.7-11.6-8-3.1-.8-6-2.1-7.1-5.6 0-3 2.1-3.6 4.4-3.5 6 .1 12 .9 17.4 3.6 3.7 1.8 6.8 1.8 10.5.8 8.7-2.5 17.5-4 26.5-3.5 2 .1 4 .1 5.8 1.2 3.7 4.9 8.6 7.5 14.7 8.3 1.9.3 3.5.3 4.7-1.6 3.5-5.4 9.6-6.2 15.1-7.7 2.2-.6 3.8.9 5 2.6 1.5 2.2 1 3.9-1.8 4-2 .1-3.9.6-5.9.8-2.3.2-4.2.8-5.1 3.3-.9 2.6.7 4 2.3 5.6.7.7 1.4 1.4 2.3 1.9 2 .7 4.2 1.1 6.1 2.2 3 1.7 5.9 2.1 9 .7 3.3-1.6 6.3-.8 9.4 1 5.4 3.2 12 3.9 17.3 7.3 2.1.9 4.4 1.4 6.6 2.2 2.5.9 4.9 2 7.5 2.8 2 .5 4.1 1.7 3.9 4.6" style="fill:#fefd9e"/><path d="m924.6 560c-5.8-1.8-7.3-4-5.9-8.2.9-2.7 2.5-4.2 5.5-3.8 1.6.2 3.3.1 5 0 1.4-.1 3.8.4 3.5-1.5-.2-1.9-2.2-4.6-4.4-3.7-5.3 2.2-12.6 1.4-14.9 8.8-.4 1.2-1.4 1.6-2.3 1.3-6.5-1.8-14.2-1.1-17.5-8.9 2.9-1.5 6.4-.6 9.3-2.2 2-.8 4.1-1.7 6.2-1.3 9.6 1.8 18.5-1.7 27.5-4 3.1-.8 6.2-1.2 9.3-.4 3.7 1 7.5 1.5 11.1 2.4 5.2 1.6 10.3 2 15.7.6 3.9-1 8 .2 11.9.9 22.7 4.1 45.3 9.4 68.1 12.5 11.8 1.6 23.4 4.1 35.2 6.1 1.3.2 2.9.1 3.8 1.1 3.7 3.8 8.9 5.2 12.9 8.4 1.9 2.3 2.9 5.2 4.5 7.7 2.2 3.5 4.2 7 8.1 9.1 1.5.8 4.6 2.4 1.4 5.1-4.9-2.1-8.7-5.9-13-8.9-8.4-4.8-15.6-12.1-25-14.9-9.2-2.8-18.7-4.6-28.2-6-4.2-.6-9 .7-13.1 2-5.5 1.8-9.8.1-13.8-3.1-5.3-4.2-11.3-6.8-17.9-8.2-6.1-.9-12.1-.8-18.1.6-5.2 1.2-10.1 1.3-14.1-3.3-2.4-2.7-5.7-2-8.8-1.4-3.5-.3-7 .4-10.4 1.1-8 1.7-16 2.4-24.1 1.1-1.6-.3-3.8-.7-4.6 1.8-1 3.1-2 6.1-2.9 9.2" style="fill:#f9fa91"/><path d="m972.5 574c-2.5.1-4.5-1-6.1-2.9 4.4-2.3 10.2.6 14-3.8.6-.7 2.1-.1 2.5.9 2.4 5.1 8.4 6.9 10.9 12.1 1.6 3.2 5.2 2.1 8 .8 1.5-.7 2.8-1.6 3.7.4 1.5 3 2.6 2.7 4.3 0 2.4-3.8 6-4 9.5-1.7 2.1 1.3 3.7 1.4 5.9.2 2.3-1.2 5.3-2.4 7.1 1.1-7.8 0-8.8 1.2-7.5 8.8.3 1.6-.2 2.1-1.6 2.2-5.3-2.2-11.3-2.4-15.8-6.4-1.2-1-2.9-.8-4.2.1-6.5 3.9-11.1-.3-15.9-3.6-1.7-1.6-2.7-3.8-4.4-5.3-2.9-2.8-6.7-2.9-10.4-2.9" style="fill:#d7c25f"/><path d="m966.5 546.9c2.8-2.8 7.2-3 9.5 0 3.2 4.2 7.1 4.8 11.8 3.5 6.6-1.8 13.2-2.1 19.7.5-3.4-.2-6 .6-8.6 3.4-6.5 6.9-21.6 5.3-26.1-2-1.6-2.5-4.2-3.6-6.3-5.4" style="fill:#ede267"/><path d="m829.5 545c2.5 2 5.1 3.4 8.3 4.1 4.7 1 8.5 3.8 10.7 8.1.8 1.6 1.8 1.8 3.1 1.8 1.7 0 3.4-.2 5 0 7.7.9 13.9-.7 19.6-6.8 5.5-5.9 13.1-4.1 17.5 3.3 2.2 3.8 5.3 5.2 9.3 5.5 2.9.2 6.6-.8 7 4.1.1 1.2 1.6.5 2.5.5 5.4.3 6.9 1.9 7.1 7.5.1 2.4 1.6 3.5 3.8 3.8 1.4.2 3-.4 4.3.6.2 1.3-.7 1.3-1.5 1.4-4.5.3-8.8-1.4-13.5-.2-2.1.5-4.4-3-7.5-1.8 1.1-8.4-2.5-12.5-11.3-12.5-4 0-7.8-.9-11.7-1.8-4.9-1.1-10.2-.9-15.3-.5-5.8.4-11.6.2-17.4.3-1.5 0-3-.1-4.2-1.3-3.7-1.6-5.6-6.9-10.9-5.1-1.2.4-2.1.6-3.2 1.6-1.7 1.5-4.1 4.1-6.5.4-.7-1-2.1-1.2-3.2-.8-7.7 2.9-12.7-3.3-18.8-5.6-2.2-.8-.5-3.8-2.5-5.1-1.6 1.7-.2 3.9-1.4 5.9-1.1-2.9.2-5.9-1.4-8.3.9-1.9-2.6-3.6-.4-5.2 1.8-1.3 3.8.1 5.7.6 2.6.7 4.8 2.1 7 3.5 2.5 1.7 5.1 3.1 8.3 1.6 1.1-.5 2.6-.6 3.3.2 2.8 2.9 5.5 1.1 8.2.2" style="fill:#fbfdaf"/><path d="m829.5 545c-2.4 3.8-4.9 5.5-8.1.7-.5-.8-2.1-1-2.8-.4-3.6 3.6-6.8.5-9.2-1.3-3.6-2.7-7.7-3.6-11.7-5.1-1.7 1.7 1.9 3.4-.2 4.9-1.8-4.2-4.6-4.2-8-1.8.2.5.2.9-.1 1.4-2.7 1.8-3.9 5.3-7.1 6.5-3 .4-6.1 1-8.9-.9-.4-2.1-1.2-2.5-3-1.1-2 1.5-4 2.9-6.3 3.9-3.6 1.6-7.4 2-10.8-.9-1.7-1.4-3.6-2.4-5.9-2 .9-4 4.3-4.8 7.5-5.9 11.7-.8 22.7-4.6 33.9-7.4 2.9-.7 3.5-2.5 3.3-5.2-.2-3.5-.4-7 2.4-9.9 4-2.3 7-.1 9.9 2.3 3 2.5 4.2 5.9 2.7 9.4-1.8 4-.7 5.5 3.3 5.9 2 .7 4.2.7 6.2 1.4 3 1.1 5.7.7 8.2-1.4 2.1-.7 4.2-.5 6.3-.2 3.8.9 7.6 1.4 11.2-.7.5-.2 1-.3 1.6-.4 2.1-.3 3.8.6 5.6 1.7 4.7 2.9 9.7 3.4 15.2 2 6.1-1.6 12.6-.8 18.7-2.2 7.4-1.7 13.2 1.5 19.2 4.6-2.9 1.5-5.9 2-9 1-7.9-2.2-15.8-.9-23.6.4-3.1.5-6.1 1.6-9.1 2.4-3.9 1-7 1.1-11.1-1.2-5.1-2.8-11.5-3.8-17.8-3.6-2.2.2-2.5 1.4-2.5 3.1" style="fill:#f5f893"/><path d="m892.5 579c4.7-.2 8.9 2.8 13.9 1.4 2.1-.6 4 2.1 4 4.8 0 2.3 1 3.8 2.9 4.8.4.2.5.5.3.9-13.3-.1-26.8 1.8-41-3.1 3.4-2.7 6.3-.9 9.2-2.4-5.1-.3-9.8.9-14 .3-6.1-.9-12.4.2-18.2-2-2.7-1-5.7.6-8.2-1.4 0-1.2 2.7-.2 1.8-2.2 4.2-1.7 8-5.6 13.1-2.1.5.4 1.7.2 2.4-.1 3-1.1 5.7-2 9-.4 1.2.6 4.1.5 4.8-2.2.5-.7 1.1-.9 1.9-1.1 1.8-.2 3.4.5 4.3 1.9 2.9 4.3 6.7 5.1 11.3 3 .9-.5 1.7-.6 2.5-.1" style="fill:#dfd973"/><path d="m874.4 575c-.6 0-1.2.1-1.8.1-2.5 0-4.9 0-7.3 0-.1-.9-.3-1.3-.1-1.5 4.4-8.6 4.4-8.6-5-8.6-4.1 0-8.3-.1-12.4 0-3.4.1-3.6-1.5-2.2-4 10.2 0 20.5 0 30.7-.1 1.3 0 2.7.4 3.8-.6 1.5-1.4 2-1.2 3.2.7 1.2 1.8 4 1.9 6.3 2 2.2.1 4.3-.1 6.5 0 2 .1 4.6-.9 5.8.6 2 2.6 4.5 5 6.1 7.8 1.2 2.1-1.5 3.7-2.5 5.5-3.3 0-6.6.1-9.9.1-.1-.1-.3-.3-.3-.4.4-7.6.4-7.6-7.3-8.4-.8-.1-1.7-.1-2.5-.4-3.9-1.5-7.2-2.1-7.7 3.7-.1 1.8-2.1 2.4-3.4 3.5" style="fill:#fdfcf3"/><path d="m773.5 549.1c3.3 0 6.7-.1 10-.1 3.1-.9 4.9-3.1 6-6 0-.3 0-.6.1-.9 3.4 1 6.9 1.2 7.4 6.3.3 3.6-.4 4.5-3.6 4.7-1.8.1-4.2-1.1-4.9 1.9-3.3-.4-6.9 1-9.9-1.5-.9-.8-2.1-.2-3.1.6-1.5 1.3-2.9 1.3-4.1-.5-1.4-2.2.7-2.3 1.7-3.1.2-.3.3-1 .4-1.4" style="fill:#fdfde6"/><path d="m794.5 576c6.2-2.5 12 0 17.9 1.2.8 5.4-3.9 6.4-7 8.7-1.3-.6-2.6-1.3-3.8-1.9-.7-2.8 1-4.1 3.1-5.9-2.3 0-4.7 0-7 0-2.3 0-4.6 0-7.3 0 1-1.9 3.3-.5 4.1-2.1" style="fill:#b7bb72"/><path d="m843.4 579.9c1.2.4 2.7-.5 3.7 1.3-1.7 1.5-3.7.5-5.5.9-.7-.3-1.3-.7-2-1 1.2-.4 2.5-.8 3.8-1.2" style="fill:#b8b662"/><path d="m396.5 563.1c2.8.1 5.2.1 5.2-4 0-2.5 2.8-3.7 5-3.8 2.3-.2 2.9 2.2 2.8 4-.3 3.9 2.1 3.6 4.8 3.8 15.8.8 31.5-3 47.3-2 6.3.4 12.6.1 18.9.1 2.2 3.8 1.6 5.1-3 5.3-6.4.3-12.9.3-19.3.1-4.3-.2-8.1 1.1-12.1 2.1-1.4.3-2.4 1-2.5 2.6-.1 1.5-.8 2.9-2 3.9-.3.3-.7.7-1 1-.3.3-.7.6-1 .9-3.1 2.2-6.4 1.9-9.8.8 2.6-2.9 2.8-6.7 4.1-10.6-8.5 0-16.9 0-25.2 0-7 1.5-14 1.6-21.1 0-.7 0-1.3 0-2 0-.6-.6-.6-1.3-.3-2.1.3-.4.8-.7 1.2-.8 3.2-1.6 6.9.8 10-1.3" style="fill:#fdfcf4"/><path d="m436.5 581c4.5.4 7.5 5.3 5.8 9.6-.5 1.2-1.4 1.3-2.4 1.3-12.1.7-24.2 1.4-36.3 1-.7 0-1.5-.6-2.2-1 2.3-4.4 6.8-5.4 10.9-6.9 5.5-1.9 11-3.7 16.2-6.2 3.2-1.3 5.8-.1 8 2.2" style="fill:#e3d66c"/><path d="m324.5 599c7.2-6.7 12.7-15.2 21.1-20.8 2.5-1.7 4.4-4.4 6.3-7 1.6-2.2-1-.7-1.4-1.3-.3-.7-.1-1.2.5-1.6 6.2-1.1 12.4-2.2 18.4.6-4.1 6.5-9.8 11.4-16.9 13.8-7.6 2.6-14.6 5.2-19.2 12.5-1.6 2.8-5.5 3.4-8.8 3.8" style="fill:#d3d78e"/><path d="m369.4 569c-6.3 0-12.6 0-18.9 0-1.9.9-3.8.5-5.7.4-4-.2-4.5-1.5-2.1-5.1 5.9-1.5 12-.6 18-.8 6.1.3 12.2-.2 18.2-.1 2.3.1 4.7-.3 6.5 1.5 0 .7.1 1.4.1 2.1-.4 2.4-2.3 1.9-3.8 1.9-4.1.1-8.2.1-12.3.1" style="fill:#f4fad8"/><path d="m387.5 567c7 0 14 0 21.1 0-3 2.9-18.3 2.9-21.1 0" style="fill:#f4fad8"/><path d="m436.5 581c-2.9.4-4.9-2.9-8-2 .4-.4.8-.8 1.2-1.3 3.2-1.2 6.5-.3 9.8-.8.3 2.3-2 2.7-3 4.1" style="fill:#fdfd91"/><path d="m913.7 590.8c-.1-.3-.2-.6-.3-.9-1-3.3 1.2-3 3.3-3 15.3 0 30.6 0 45.9 0 3.8 0 7.8.5 6.1-5.6-.6-2 1.4-2 2.9-2.4 4.1-1.1 7.2 2.1 11 2.1 1.9 3.7 2.8 8.3 8.5 8.1 1.2 0 2.2.8 2.2 2.2 0 1.7-1.4 1.7-2.5 1.6-8.6-.7-17.5 1.9-26-1.8-.7-.3-1.6-.1-2.5-.1-15.6 0-31.2 0-46.9.1-.5-.1-1.1-.2-1.7-.3" style="fill:#fdfdf4"/><path d="m972.5 574c6.7-2.7 12 .1 15 8.1-1-.4-1.9-.8-2.9-1.1-2.5-5.1-8.7-3.6-12.1-7" style="fill:#e7de68"/><path d="m441.5 575c2.2-2.3-2.1-6.5 1.8-7.7 2.7-.8 5.6-1.2 8.4-2.2 1.8-.6 3.9-.1 5.9-.1 6.6 0 13.3-.2 19.9.1 3.6.1 3.9-1.3 2.9-4 2.6-.6 3.6 1.4 4.4 3.1 1 1.9-1.4 3.7-2.1 3.8-3.2.5-2.5 4.4-5.1 5.1-1.1-.8-1.6-2.1-2.6-3.3.3 1.8 1.7 2.3 2.6 3.3-3.2 4.9-4.7-.4-7-1.1-.6-1.1 1.2-3.4-1.6-3.2-1.6.1-3.2.2-3.4 2.7-.1 1.9 1.4 4.9-1.8 5.4-2.5.4-5.4 1.4-6.7-2.8-.6-1.9-2.7-1.3-3.6 1.3-2.2 6.4-3.5 6.6-8 1-1.3-1.7-2.6-1.1-4-1.4" style="fill:#fcfdcc"/><path d="m769.6 577.1c2.6-.8 5.3-1.5 7.9-2.3 1.5 1.2 3 2.3 5.1 2.7-4.5.3-8.8 1.4-13-.4" style="fill:#9ea45b"/><path d="m1118.5 589.9c1.3-2.1-.4-3.6-1.6-4.1-7.5-3.2-9.5-10.4-12.4-16.9-.6-1.6-.2-3 .8-4.3.6-.5 1.3-.7 2.1-.7 3.8.5 6.6 2.2 9.1 5.4 3.7 5 9.1 8.2 14.3 11.6 2.8 1.8 5.7 3.6 7.9 6.1 1.3 1.5 3.3 3.1 1.5 5.5-3.5 1.3-7.1.8-10.6.3-2.1-.3-4.2-.7-6.2.3-2.1-.4-3.5-1.8-4.9-3.2" style="fill:#d8de92"/><path d="m1123.3 593.1c-.1-4.2 3.3-2.2 4.5-1.9 4.3.9 8.5.8 12.8.7 1-.8 2-.8 2.9.1.9 1.2 3.8.9 3.1 3.1-.5 1.5-2.7.9-4 .7-4.1-.5-5.4 1.9-6.2 5.2-4.4-2.6-8.8-5.2-13.1-7.9" style="fill:#ebf8d3"/><path d="m370.1 527.3c0 0 0 0 0 0-4.7 0-9.3.1-14 .1-1.9 0-3.8-.2-5.6-.6-.9.3-1.6.8-2.2 2 .7.6 1.5.7 2.3.8-.5.1-.9.4-1.3.9.5 1.5 1.5 1.4 2.5.8-2.7 4.7-10.5 4.6-11 11.5 0 .1 0 .2 0 .2 0 0-.1-.2-.4.1-2.6 2.4-5.4 4.2-8.9 5.2-2.6.7-5 2.1-6.3 4.6-1.4 2.7-3.5 4.8-5.9 6.7-2.2 1.7-4.3 4.1-1.5 7.1 1.6.7 3.1.5 4.5-.5 1.3-.1 2.7-.2 4-.3 5.1-.9 10.2-1.9 14.9-4.2 12.1-7 21.9-16.5 31-27 4.8-5.2 4.7-5.3-2.1-7.4m-18 2.2c.7-.1 1.5-.1 2.2.1-.7.1-1.4 0-2.2-.1" style="fill:#2f3a24"/><path d="m317.4 566c1.7.1 3.4.2 5.1.2-.2 2.6-2.2 2.7-4 3-1.4 1.4-3.2 2-4.9 2.8-2-1.7-4.5-.9-6.7-.9-2.9 0-4.5-.9-4.2-4 3.7-.6 7.5.7 11-1 1.1-1.3 2.4-1.1 3.7-.1" style="fill:#4e6181"/><path d="m342.6 565.1c-1.6 2.5-.7 3.7 2 3.9 2 .1 3.9 0 5.9.1 0 .3 0 .6 0 1-3.4 0-6.7.1-10.1.1-5.6 0-11.2 0-17.4 0 4.4-4.1 10.2-2.4 14.5-5 .8-1.5 2-1.9 3.6-1.6.8.3 1.3.7 1.5 1.5" style="fill:#bbd1bd"/><path d="m341.5 564.1c-1.5-.5-2.5 1.1-3.9 1.1-3.7.2-7.4.5-11.1.7 5-1.6 9.7-4.2 14.9-4.9.2.2.3.3.5.5.3.7.3 1.4 0 2.1-.1.1-.2.3-.4.5" style="fill:#4d5d2f"/><path d="m1143.5 592.1c-1 0-1.9-.1-2.9-.1-3.2-7.2-10.7-9.3-16.1-13.9-3.7-3.1-7.8-5.7-10.6-10-1.3-2.1-4.1-2.4-6.3-3.1-1.1-2.6.9-2.7 2.5-3.1 1.1-.1 2.2 0 3.2.3 1 .3 1.9.8 2.7 1.5 2.4 3.1 6.2 2.1 9.2 3.3 6.2 2.1 12.6 2.7 18.9 4.1.5.2 1.1.3 1.3.7 3.2 5.1 4.2 11.3 7.7 16.3.8 1.1-.4 2.8-1.5 3.9-2.8 0-5.4 0-8.1.1" style="fill:#a7b07d"/><path d="m1151.5 592c.8-3 .4-5.5-2.1-7.9-2-1.9-2.5-4.9-3-7.7-.3-1.6-.3-3.3-1.9-4.3 1.7-1.7 3.4-1.1 5.2-.1 2.1 1.7 3.8 3.7 6.2 5 1.5.8 2.9 1.9 1.8 4 1.3 3.6 1.6 7.3.7 11-1.6 0-3.2 0-4.9-.1-.7.1-1.3.1-2 .1" style="fill:#767e6b"/><path d="m1217.5 536c5.7.6 11.4 1.2 17 1.8 1.4.3 2.9-.1 4.1 1.1-.3.4-.7.6-1.3.5.3.4.7.1 1 .1 5.2 0 10.4.5 15.5 1.6 1.9.9 4.4.1 5.7 2.2-.1.5-.2.9-.5 1-4.5 1.2-7.3 3.2-7 8.8.2 3.9-4.8 6-11.2 6-9.2-1.3-18.5-1.8-27.6-3.5-6.1-1.1-7-2.1-8.5-7.9-3.6-14.7 0-11.9 10.8-12.1.8-.1 1.4 0 2 .4" style="fill:#123e70"/><path d="m1253.6 542.1c-6.2-1.7-12.6-2.1-19.3-2.1 1.4-1.6 3-.6 4.3-1.1 18.2.9 36.3 3.5 54.4 5.5 18.8 2.1 37.6 4.3 56.4 6.5 5.3.6 10.5 1.3 15.8 1.9.6-.5 1.1-.3 1.6.1 1 .7 2 1.4 2.9 2-1.7 1.7-3.7.9-5.7.7-21.7-2.2-43.4-5-65.1-7.5-4.5-.9-9.1-.9-13.6-1.7-2 0-4.1 0-6.1-.4-8.5-.8-17.1-2-25.6-3.9" style="fill:#217094"/><path d="m1298.6 546.9c16.7 1.1 33.3 3.8 49.9 5.6 7.1.8 14.2 1.6 21.3 2.4 4.3 2.3 8.6 4.7 12.8 7-3.1 1.8-.7 4.2-.1 5.7.8 1.9 1.7 3.9 2.3 5.9 1.5 4.9.4 6.2-4.6 5.3-10.9-1.8-21.7-4-32.6-5.7-15-2.3-30-4.1-45-6.3-11.3-1.6-22.4-4.2-33.9-4-1.5 0-2.5-.6-3.2-1.9 1-1.2 2.3-.9 3.6-1 6.3-.3 10-4.3 9.7-10.5-.1-1.6-.7-3.3.8-4.6 2 .1 3.9.2 5.9.2 3.4 3.6 8.1 2 12.1 3 0-.5-.5-1.5 1-1.1" style="fill:#131d45"/><path d="m1217.5 536c-3 0-6 .1-8.9 0-3.8-.1-4.7 2.1-3.8 5.2.9 3 1.6 6 1.9 9.2.3 3.3 3.4 3.4 6.1 3.7 9.6 1.3 19.2 2.6 28.7 3.9 4.4.9 8.9-.5 13.3.6 1.8.4 4.2-.4 4.7 2.4-6.8 0-13.6 0-20.5 0-4.6 0-8.7-3.2-13.5-2-1.1.3-2.8-.1-3.3.6-1.7 2.2-2.8 4.1-4.5 0-.6-1.3-2.5-.5-3.6.2-9.2 5.9-17.7 3-26-2-6.6-3.9-7.3-4.5-11.7 2.2-4.4 3.3-7.8 1.7-10.7-2.2-1.1-1.6-2.2-3.2-3.3-4.7-.5-1.2-.1-2.2.7-3.1 4.1-2.3 8.4-1.5 12.5-.5 3.6.8 7.1 1.1 10.8.5 5.3-.7 10.5.2 15 1.7-1.3-5.2-3.5-10.7-2-16.7 6.1.6 12.2-1.2 18.1 1" style="fill:#0a1847"/><path d="m1259.5 561c-4.5-1.8-9.3-.8-13.9-2-1.4-.4-3 .4-4.1-1 2.6.2 5-.4 7.1-1.8 1.6-1.1 3.6-2.7 2.7-4.8-2.6-6.3 1.5-6.9 5.9-7.4.5-.1.9-.2 1.5-.4-1.5-1.4-3.8.2-5.1-1.5 8.7.5 17.4 1.2 25.9 2.9 0 .3 0 .7 0 1 1.2 12.1-2.1 15.7-14.1 15.1-1.9-.1-3.9-.1-5.9-.1" style="fill:#10285d"/><path d="m1163.5 551c-.3.7-.6 1.4-1 2-2.1 3.8-5.9 6-8.4 9.6-2.3 3.3-2.1 5.6.7 8.2 2.3 2.1 4.5 4.3 5.6 7.4.4 1.2.9 2.5.4 3.2-.8 1.1-2-.7-3.2-.4-1.3-4.1-6.8-4-8.2-8.1-5.8-4.7-8.9-11.5-13.2-17.3-2.4-3.3-5.2-5.2-9.4-5.7-4.6-.5-9.2-1.7-13.1-4.3-3.1-2-2.9-3.1.3-5 5.7-.8 11.2.7 16.8 1 3.6.2 5.4-.2 4.6-4.4-.6-2.8.1-5.6 1.6-8.1 2.6-.8 2.5 1.2 2.7 2.7.4 2.9.6 5.9 1.9 8.8 1.8-1.8 1.4-4 1.7-6.1.5-2.7 1.3-4.9 4.7-4.3 1.1.5 1.1 1.5 1.3 2.5.9 4 2.8 7.3 6.6 9.3 3.6 2.2 6.1 5.2 7.6 9" style="fill:#373f39"/><path d="m549.5 589.9c1 .4 2.1.8 3.1 1.1-2.7.9-5.4 1.7-8 .1 1.6-.4 3.3-.8 4.9-1.2" style="fill:#aab771"/><path d="m385.4 564.9c-8.3 0-16.6 0-24.9-.1-.1-1 .6-1.7 1.4-1.7 6.8.1 11-5.4 16.8-7.5 3-2.2 6.7-1.7 10-2.6 18.2-5.4 36.9-6.4 55.7-7.5 4.8-.3 9.4-2 14.3-1.2 7.6-1.2 15.3-.6 22.9-.7 2 0 4.2 0 5.5 1.8 1.9 2.9 4.4 2.5 7.1 1.6 4.7-1.6 9.4-3.3 14.4-4 3.5-.5 6.9-.6 10.4.1 7.8 1.7 8.8 5.2 3.4 11.3-3.3 2.3-7.2 2.5-11 2.8-2.7 0-5.3-.5-7.9-.9-3.7-.6-6.6.4-7.9 4.3-.3 1-.7 2-1.4 2.6-2.8 2-1.7 4.3-.6 6.6-5.4.3-7-1-6.2-6.6.6-4.2-1.4-5.9-4.4-8.3-8.6-6.9-17.7-7.1-27.6-3.8-4.1 1.4-8.1 1.5-12-.8-1.3-.8-2.7-1.4-4 .2-2.2 2.8-5 2.6-8.4 2.6-5.8-.1-11.9-1.8-17.5 1.5-.7.4-2 .3-2.9 0-6.5-2.1-15 1.7-18.1 8.2-2 2.3-5.1.2-7.1 2.1" style="fill:#f2f58e"/><path d="m493.6 570c-4.7-1.8-2.4-3.4-1.1-7 3.7-10.2 10.8-7.9 18-6.8.8 5.7 1.5 6.4 7.1 4.5 5.8-1.9 11.3-4.4 17-6.6 3.3-1.2 6.6-2.3 9.8 0-7.1 2.6-13.9 6.8-21 8.5-9.8 2.4-19 8.5-29.8 7.4" style="fill:#c7c469"/><path d="m544.5 554c-8.2-1.1-14.8 3.9-22.1 6.2-2 .6-3.8 1.6-6 2.1-2.5.6-5 1.4-7.1-.5-2.2-2.1 1.5-3.6 1.1-5.6 3.8-.2 7.5-.8 11-2.1.9-.7 1.9-1.3 2.6-2.2 2.5-3.5 1.2-6.1-2.9-7.5-5-1.7-10.1.2-14.9-1.4-.1-.6 0-1.1.5-1.4 8.9-3.7 17.3-2.4 22.1 3.6 3.6 5.8 7.8 7.5 14.8 6.2 1.9-.4 3.7-1.5 5.8-.6.4.4.4.9.1 1.3-1.4 1.3-3.3 1.4-5 1.9" style="fill:#a8b257"/><path d="m549.5 552.1c0-.4 0-.7 0-1.1.6-.8 1.6-1.2 2.5-1.4 5.8-.8 10.4-2.9 13.2-8.8 1.9-3.9 10.2-4.7 15.3-2.6.1.9-.3 1.5-1 1.9-2.9.3-2.3 3.5-4.1 4.8-8.3 3.6-16.6 6.9-25.9 7.2" style="fill:#98ba78"/><path d="m385.4 564.9c1.5-3.6 4.7-1.2 7-2 1.4 0 2.7.1 4.1.1-1 3.3-3.8 1.6-5.8 1.9-1.7.3-3.5.1-5.3 0" style="fill:#f4fad8"/><path d="m579.5 540.1c.3-.3.6-.6.9-.9.3 0 .6 0 .9 0 12.5 1.7 25 2.1 37.7 1.9 12.6-.1 25.2.1 37.8 1.3 5.8.6 11.6 1.2 17.4 1.2 11.2.1 22.3 1.5 33.4 2.4 3.7.3 7.3.4 10.9 0 6.5-.7 13-.7 19.5.1 2.8.3 5.3.2 7.7-1.3 1.7-1 3.6-1.7 5.7-1.8 1.3.1 2.6.2 3.2 1.6-2.9.7-4.8 2.7-7 4.6-.7 0-1.4 0-2.1 0-14.3 0-28.6 0-42.9-.1-2.4-1.9-5.6-1.6-8.1-1.6-16.7 0-33.6-2.2-49.9 3.9-6.8 2.6-14.3 2.2-21.5 1.4-1.2-.1-2.2-.5-3.3.2-2.3 1.5-4.4.7-5.7-1.1-4.9-6.7-12.4-5.1-19-6-3.5-.5-7.1-.6-10.6-.5-4.4 0-4.8-2.3-5-5.3" style="fill:#cee6aa"/><path d="m643.2 556.9c-9.1 0-18.2 0-27.3 0 0-.2 0-.3 0-.5 9.2 0 18.4 0 27.6 0-.2.1-.3.3-.3.5" style="fill:#cee6aa"/><path d="m340.9 529.8c-10.8 2-21.8 2.1-32.6 3.6-4.4.6-8.8.8-13.2-.3 0-.4 0-.8 0-1.2-1.7.2-3.4.4-5.2.6-2.4 7.1-.7 14.5 1.8 21.7 1.6 4.7 3.6 5 7.3 1.7 2.9-2.7 4.3-1.3 5.4 1.4.7 1.7 1.3 3.4 1.1 5.3-.3 2.7 1.1 3.5 3.6 3.3 1.5-.1 3 0 4.5.1 1.3 0 2.5-.1 3.8-.1 0-1.9.4-4.1 1.9-4.9 3.8-2 6-5 7.7-8.7.4-.8 1.5-1.2 2.3-1.7 3.6-2.2 8.1-2.5 11.3-6.2 1.5-1.8 5.1-1.4 2.7-5.3-.9-1.5.6-2.2 1.8-2.1 4.4.5 5.9-2.5 7.5-5.9-1.2-.1-2.1-.1-3.1-.2-2.6-2-5.8-1.6-8.6-1.1" style="fill:#11131c"/><path d="m874.4 575c.9-2.5 3.2-4.1 2.7-7.5-.4-2.6 2.8-2.9 4.9-2.1 3.3 1.3 6.6 1.8 10.2 1.7 5.4-.1 7 2.8 4.4 7.8-.4.7-.7 1.4-1.1 2.2-1.4.1-2.5.6-3 2-8.4 4.1-8.5 4.2-14.7-2.5-1-1.2-2-1.5-3.4-1.6" style="fill:#fdfdbb"/><path d="m1105.5 565c.2 1.5-.3 2.8-1 4-4.1-2.9-9.1-4-13-7.9-2.4-2.4-7.4-2.4-11.3-2.9-5-.7-9.7-2.3-14.6-3-8.1-1.2-16.2-1.3-24.3-3-14.8-3.2-29.8-5.8-44.8-8.6-7-1.3-14.1-2.2-21-3.6-2.6-.5-4.1 1.4-6.5 1.6-4.4.3-8.4-1-12.6-1.6-.1-2.1 1.6-2.2 2.6-1.8 2.3.9 3.1-1 4.4-2 8 1.8 15.8-.5 23.7-.5 3.1 0 5.7.6 8.6 2 7.5 3.7 15.9 4.5 24.1 6 11.8 2 23.8 2.6 35.5 5.3 12.7.8 24.9 4.1 36.9 7.8 5 1.4 9.3 4.7 13.3 8.2" style="fill:#e3eb6d"/><path d="m962.5 537.1c.4.8.8 1.7 1.2 2.5-.8.1-1.5.4-2.2.2-1.7-.4-3.3-1.7-4.9.2-7.9-1.7-15.3-3.9-24-1-7.2 2.3-15.1 5.8-23.3 2.8-2.4-.9-4.4 1-6.7 1.2-1.3-.1-2.9.4-3.9-.2-11.9-6.9-23.8-1.3-35.7-.1-4.8.5-9.9.7-14-2.8-1.7-1.5-3.4-1.9-5.4-1.8 1-3.4 3.6-2.2 5.6-1.9 3.6.5 7.1 1.3 10.6 2.1 1.8.4 3.6.6 5.3-.2 1.1-.4 2.1-.8 3.3-1 11.8-.8 23.5-1.9 35.3-1.4 1.7.1 3.4-.3 5 .2 11.8 3.7 22.9.4 34.1-2.7 3.6-1 7.3-.6 10.9-.2 2.9 1.2 6.1 2.1 8.8 4.1" style="fill:#e9f280"/><path d="m1014.7 580.1c2 .2 3.5 1.3 3.6 3.3.1 1.6-.5 3.6-2.6 3.4-1.9-.2-3.9-1-4.1-3.4-.2-2.2 1.5-2.7 3.1-3.3" style="fill:#e0d265"/><path d="m754.5 544.4c-1-.1-2.1-.3-3.1-.4-.3-.5-.2-1 .2-1.4.6-.5 1.3-.8 2.1-1 5-.9 10.4-1.2 14.9-3.7 6.2-3.5 13.2-5.2 18.9-9.6 1.9-1.5 3-3.4 3.8-5.7.8-2.2 1.8-4.4 4.8-4 1.3 1.2.1 1.7-.6 2.4-2.6 3.3-2.3 7.3-1.6 10.9.5 2.9-.4 4.1-2.8 4.7-12.2 2.7-24 7.2-36.6 7.8" style="fill:#b1b54c"/><path d="m795.5 521c.3-.7.5-1.4.8-2.1-.1-1.1.4-1.9 1.3-2.4.5-.2 1-.3 1.5-.3 5.6 1.9 8.1 7.1 11.5 11.3.2.3.2.6.4.9 1.1 2.1-1.4 5 1 6.5 2.3 1.5 5.2.9 7.8.7 7.9-.6 15.9.6 23.8-.8 4.3-.8 8.5.8 12.8 1.3 3 1.1 6.4.9 9.1 2.9-5.6 2.5-10.6-1.2-16-1.5-2.1-.1-4.1-1.1-6 .5-.3 0-.6 0-1 0-3.6 1.4-7.3 1.3-11 1-2.3 0-4.7 0-7 0-4.7 2.5-9.3.2-14 0-1.5-.1-3.1.1-4.4-.5-1.7-.7-3.4-2-1.4-4.2 2.5-2.7 2.8-5.9.9-8.6-2.4-3.2-5.4-5.9-10.1-4.7" style="fill:#c8df70"/><path d="m810.5 539c4.7 0 9.3 0 14 0-1.3 2.6-3.2 3.4-6.1 2.2-2.5-1.1-5.5-.7-7.9-2.2" style="fill:#e9f280"/><path d="m789.5 543c.8 4.9-1.1 6.9-6 6 1.4-2.6 2.5-5.5 6-6" style="fill:#fbfdaf"/><path d="m831.5 539c3.6-.8 7.3-1.3 11-1-3.4 3.5-7.2 2.2-11 1" style="fill:#e9f280"/><path d="m378.4 557c-5.6 3.5-10.8 7.7-17.9 7.9-6 .1-12 .2-18 .2-.4-.3-.7-.7-1.1-1l-.1-.3c1.3-1.6 2.8-2.9 4.9-2.9 7.2 0 13.9-2.3 20.6-4.5 1.6-.5 3.2-.7 4.9-.7 2.3.1 4.8-.6 6.7 1.3" style="fill:#bbbf70"/><path d="m477.5 573.1c-1.1-.1-2.4.1-3.1-1.2-.6-1.1-2.1-1.9-1.1-3.5.4-.6.7-1.2 1.5-.9 1.3.4 1.5 1.7 1.8 2.8.4.9.7 1.8.9 2.8" style="fill:#fdfcf4"/><path d="m1105.5 565c-10.7-6-22.1-10.1-34.1-12.5-5.3-1-10.7-1.6-16-2.5 2.1-2.1 4.9-1.2 7.4-1.5 1.3-.1 2.6-.2 3.9-.7 7.9-3.6 15-1.3 21.3 3.7 4.5 3.7 10.8 4.3 14.5 9.2.8 1.1 2.8.5 4.3.4 1.5-.1 3.5-.8 3.8 1.8-1.4.1-2.9-.1-3 2-.8.1-1.4.1-2.1.1" style="fill:#abc04a"/><path d="m368.6 527.3c.8 3.4 4.8.3 6.3 2.6-.7.8-1.4 1.5-2 2.2-6 6.5-12.2 12.8-18.7 18.8-4 3.8-9.8 5-12.7 9.9l.3.3c9.6.7 18.5-2.1 27.2-5.9 1.7-.8 2.9-2.5 3-4.4.6-6.5 3.9-10.7 9.9-12.9 4.3-2.1 8-5 11.7-8 1.1-.9 3-1.5 1.7-3.4-8.9.5-17.8.7-26.7.8" style="fill:#4d5d2f"/><path d="m357 527.4c-.2.1-.3.3-.5.4 3.4.2 7 2 10.2-.5-3.3.1-6.5.1-9.7.1" style="fill:#2f290a"/><path d="m294.5 532.8c14.5 1.2 28.6-2.3 43-3.2 3.6-.2 7.3-.5 10.9-.8 2.4.1 4.7.2 7.4.4-2.1 1.6-4.6 0-6.2 1.8-13.3 1.2-26.6 2-39.9 3.7-5.2.6-10.5-.4-15.7 1.1-.5.1-1.6-.3-1.6-.7-.2-1.5 1.4-1.6 2.1-2.3" style="fill:#355986"/><path d="m341.7 561.2c8.2-1.2 16.3-2.7 24.1-5.7 3.3-1.3 5.2-3.3 5.4-6.4.3-5.9 2.8-9.6 8.6-11.1.6-.1 1.1-.8 1.6-1.2.4-.3.8-.3 1.2-.1.1 2.6 1.9 2.7 3.9 2.6 4.5.4 8.2-.4 11.7-3.9 6.9-6.9 18.5-7.6 26.7-2.3 1.5 1 3.1 1.6 4.7 1.2 4-1 7.1.5 10.1 2.9 3.7 1.7 7.6 2.1 11.6 2.1 10.1 0 20.2 0 30.3 0 4.1 0 8.3-.3 12.1 1.9 1.7 1 3.5.2 5.3-.2 2.6-.5 5.2-1.3 7.5.8 0 .3 0 .6 0 .9-5.4 2.4-10.7 5-16.7 1.7-1.8-1-3.8-1.3-5.8-1.1-8.4.8-16.9.2-25.3 1.3-8.1-.2-16.1 1.8-24.2 2-3.1.1-6.3-.2-9.4.6-3.8.9-5.1-1.2-5.3-4.6-.1-1.2.4-2.3.2-3.5-.5-2.9-2.1-4.9-5.1-5.4-2.9-.4-5.1 1.3-5.7 3.8-1.3 5.8-5.5 8.6-10.4 10.5-8.9 3.5-17.7 7.5-27.3 8.7-6.3.3-11.9 3.9-18.1 4.7-4 .5-8.3-.1-12 2.2.1-.7.2-1.5.3-2.4" style="fill:#89963c"/><path d="m1110.5 563c-.8-1.1-2-1.2-3.2-.8-3.7 1.3-6.7 1-8.6-3.1-.5-1.2-1.8-2.2-3.2-2-3.2.4-5.8-1.8-7.3-3.6-2.9-3.6-7.2-3.8-10.7-5.8-2.5-1.4-6.8-.1-9.9 1.3-1.4.7-2.7 1-4.2 1-9.7-.3-19.2-2.4-28.8-3.5-1-.1-1.9-.4-2.8-.8-1.7-3.5.6-4.6 3.3-4.7 3.6-.1 7.2.9 10.6-1.3 1.1-.7 2.1.4 3 1.2 6.5 6 10.2 6.2 17.6 1 3-2.1 6.7-3 9.4-5.6 4.9-.5 9.8.3 14.7.7 5.4.4 5.5.4 4.9-5.2-.2-2-.6-3.9.8-5.7 4.3 2.4 5.6 7.5 3.4 13.4-2.1 1.9-1.5 4.5-.8 6.5 2.4 6 4.7 12.2 12 14.2 1.3.3 3 .9 2.6 3-.8-.1-1.8-.2-2.8-.2" style="fill:#869a44"/><path d="m1113.6 542c-3.1 1.3-.2 2.3.4 2.7 4.3 2.5 9.1 3.9 14 4.3 2.4.2 4.7.6 6.3 2.4 5.6 6.8 10.4 14.2 15.2 21.6-1.6-.8-3.2-1.3-5-.9-6.8-.7-13.5-1.6-20-4.1-1.7-1.5-4.3-1.4-5.8-3.3-2.4-5.2-6.4-9.2-10-13.5-1.8-2.1-3.9-4.2-4.3-7.2-.1-2.8 1.5-4 4.1-4.3 2 .2 4.3-.6 5.1 2.3" style="fill:#375f31"/><path d="m1105.5 545c3.6 4.6 7.1 9.3 11.3 13.4 1.4 1.3 1.8 3.7 2.6 5.6-1.3 1.2-2.7.9-4 0-.8 0-1.6-.1-2-.9-1-1.8-3-1.9-4.6-2.5-6.8-2.3-12.9-13.4-11.2-20.3 0-.1.6-.1.9-.2 1.1 3.4 2.8 5.9 7 4.9" style="fill:#557537"/><path d="m1115.4 564c1.3 0 2.7 0 4 0 1.2 2 4.6 1 5 3.9-2.4-.4-4.8-.8-7.2-1.1-1.6-.1-1.6-1.4-1.8-2.8" style="fill:#869a44"/><path d="m1163.5 551c-3.6-5.9-11-7.7-14.2-14.1-1-2.1-1.3-3.8-1-5.9.2-1.7 1.6-2.2 2.8-2.2 5.2.3 10.5-.1 15.5 1.9 10.8 2.6 22 2.5 32.9 4.3 1.1 6.1 2.2 12.2 3.3 18.2-5.5-1.3-10.8-2.9-16.1-1.8-4.1.8-7.8.2-11.7-.6-3.8-.9-7.7-1.7-11.5.2" style="fill:#164874"/><path d="m1298.6 546.9c-.5.4-.1 1.1-.1 1.2-2.2 2.7-11.7.6-13-2.9 4.3.5 8.8.4 13.1 1.7" style="fill:#10285d"/><path d="m1283.5 555.9c-.9 0-1.7-.2-1.6-1.3.1-.9.9-1.5 1.8-1.2.5.1 1.2.7 1.3 1.2.2 1.1-.6 1.3-1.5 1.3" style="fill:#10285d"/><path d="m1119.5 527c6 .7 12 1.4 18 2.1-.1 3.9-1.6 7.7-.2 11.8.9 2.6-.8 3.2-3.5 2.9-6.7-.9-13.4-1.9-20.3-1.7-1.4-1.5-3.3-.8-5-1-6.3-1.2-7.9-5.9-4.7-13.7.3-.5.8-.8 1.3-1 2.1-.7 4.2-1.1 6.4-.2.7 0 1.3 0 2 .1 1.8 1.1 4.2-1.2 6 .7" style="fill:#546467"/><path d="m371.5 557c7.9-3.2 16.2-5.3 24-8.9 5.4-2.4 11.2-3.7 12.5-11.2.5-2.9 3.6-5.3 7.3-4.5 4.1.9 6.3 3.7 6.1 7.8-.2 6.6-.4 6 5.9 6 10.5.1 20.8-2.1 31.2-2.3.5.6.7 1.3-.1 1.9-3.1-1.5-6.2.1-9.2.4-12.7 1.4-25.4 1.9-38.1 3.6-5.6.7-11.1 1.8-16.3 3.4-5.3 1.7-11.2 1.1-16.3 3.8-2.4 0-4.7 0-7 0" style="fill:#c1c84c"/><path d="m458.4 545.8c0-.6.1-1.2.1-1.9 4-.3 8-.7 12-.9 4-.2 7.9-.2 11.9-.8 3.3-.5 6.3-.1 9.7 2 4.3 2.6 9.6-.3 14.4-1.3 4.8.3 9.5-.8 14.3.5 2.4.7 5.3.6 5.3 3.9 0 3.1-.7 6-4.5 6.6.9-1.2 2.1-2.3 2.6-3.6.8-2.6.8-4.6-2.9-5.5-8.8-2.1-17.1-.3-25.1 3.1-2.2 1-4.5.7-6.7 1.7-1 .4-2.3-.2-2.4-1.2-.5-4.6-4-3.5-6.8-3.5-7.4.1-14.7-.3-21.9.9" style="fill:#d5df71"/><path d="m542.4 522.2c-4 .6-5.6 4.1-8.1 7.5-1.1-4.1.1-7.7-1.3-10.9-.8-.6-1.4-1.4-2-2.2-2 .2-4.1.4-6.1.6.2 1.2.5 2.4.8 3.6 1.6 6.3 1.1 7.2-5.5 7.1-4.2 0-8.7-.3-12.2 1.9-8.2 5-16 4-24.3.5-3.8-1.6-7.8-3-12.1-2.2-2.5.5-4.9.5-7.2-1-1.6-1.1-3.3-.9-4.4.7-1.6 2.5-3.8 2.9-6.4 2.8-2.4-.1-4.6.4-6.8 1.3-3 1.7-6.6 2.6-8.4 6 3.1 2.6 6.9 3 10.7 3 11 .1 22 0 32.9 0 3.9 0 8-.9 11.2 2.3 1 1 2.5.4 3.8-.1 3-1.3 6.1-1.4 9.3-1.2 7.7-.7 15.9-3.5 22.1 4.1 4.1 3.9 5.8 4 9.3 0 1.5-1.7 2.6-1.9 4-.3 1.5 1.6 3.1 2.5 5.3 1.6 4.3-1.8 7.9-4.2 8.6-9.4-2.8-3-5.1-6.3-6.7-10.1-1-2.9-2.8-5.5-6.5-5.6" style="fill:#73844b"/><path d="m528.6 546.1c3.7 1.8 7.3 4 9.1-2.4.8-2.9 3.2-.8 4.3 0 4.1 3 6.7 3 10.1-.8 1.3-1.5 2.3-3.2 3.4-4.8.4-1 1.1-1.8 2.1-1.9 6.3-.4 12.3-3 18.7-2.4 3.1.3 6.5.6 6.5 5.1-.7.9-1.5.8-2.4.3-6.9-2.5-13.1-.3-16 5.9-1.5 3.2-4.4 4.3-7.5 4.9-2.4.5-4.9.7-7.3 1.1-5.7 2.9-11.8 1.9-17.6 1.4-2.2-.3-2.5-4.2-3.4-6.4" style="fill:#869a67"/><path d="m580.4 539.1c.7 0 1.4-.1 2.1-.1 1.5-1.1 3.2-.6 4.8-.6 11.6.3 23 1.5 34.7.4 6.5-.6 13.2.7 19.8 1.1 12.2.9 24.4 2.3 36.7 1.5 4.2-.3 7.8-2.8 10.8-5.7 3-2.9 6.3-3.4 10-1.8 4.5 1.9 8.7 1.5 13.4.1 5.7-1.7 12.3 1.2 17.9-2.6 6.5 3 14.2 3.7 19.7 8.9.7.7 1.3 1.5 1.1 2.6 0 .4-.1.7-.1 1.1-2.2.6-4.6 1-6.3 2.8-1.3 1.4-3.1 1.4-4.7 1.1-8.4-1.5-16.8-.5-25.3-.2-9.4.3-18.9-.6-28.2-2-7.3-1.1-14.6-.3-21.9-1.5-13.1-2.1-26.6-.4-39.8-2.1-3.6-.5-7.3.7-10.9.7-10.6.2-21.2-.5-31.7-1.9-.8-.1-1.6-.8-2.1-1.8" style="fill:#98ba78"/><path d="m1031.5 545c9.4 1.6 18.8 3.7 28.3 4.1 1.3.1 2.7-.2 3.7.9-2.7 0-5.5.1-8.2.1-17.7-3.1-35.8-4.1-53.3-8.4-3.1-.8-6-2-8.9-3.8-4.1-2.5-10.1-1.8-13.8-.2-5.2 2.1-9.3-.1-13.9-.2-1 0-2-.3-2.9-.4-3.1.1-5.7-1.1-8.2-2.9.2-.2.4-.4.5-.6 3-1.1 5.9.4 8.8.7 2.3.2 4.8.9 6.5-1.3 2.3-2.8 5.1-3.4 8.5-2.8 2.2.4 4.3-.1 6.4-.4 8-1.1 15.2.8 21.1 6.4 4.6 4.4 10.4 5.5 16.4 6.3 3.1.5 6.3.4 9 2.5" style="fill:#a6b949"/><path d="m954.3 534.2c-8.2-1.9-15.5 2.3-23.4 3.2-7.2.8-14 1.6-21.5.2-9.2-1.7-18.9-1.3-28.3-.2-4.6.6-9.1.9-13.7.6-.3-.6-.2-1 .2-1.5 4.1-1.8 8.6-.6 12.8-1.8 3.3.5 6.4-2 9.8-.8.5.1 1 .2 1.6.4 6.1.6 12.3-.1 18.4.4 10.4 2.6 20.3.3 30.2-2.7 5.1-1.6 9.8-2.1 14.1 1.8l-.2.4" style="fill:#a6b949"/><path d="m867.5 537c0 .3 0 .7 0 1-.7.3-1.4.6-2 .9-3.2 0-6.2-.4-9.1-1.8.2-.2.4-.5.6-.7 3.6-1.1 7.1-1.7 10.5.6" style="fill:#8fb64f"/><path d="m751.5 542.9c-5.3-6.5-14-6.3-20.4-10.4-1.5-.9-3.1.7-4.3 1.8-1.3 1.2-2.9 2.3-4.4 1.6-4.9-2.3-9.2-1-14 .9-3.2 1.3-6.8-.3-10-1.9-2.2-1.1-4.7-1.8-6.4.3-7.6 9-17.8 8.6-27.9 7.6-6.3-.6-12.6-.6-18.8-.8-1 0-2-.1-2.7-.9 2.1-2 4.7-1.4 7.1-1.4 7-.2 14 .6 20.7-2 1.7-.7 3.6-1 4.8-2.5 6.6-8.1 15.9-8.2 25-8.3 8.6-.1 17.2.4 25.1-4.2 3.7-2.1 7.7-.7 10.9 1.4 4.1 2.7 7.8 3 11.9.5 5.3 1 7.3 3.2 6.2 8-.8 3.5 0 6.9-.8 10.3-.7-.1-1.3-.1-2 0" style="fill:#789762"/><path d="m753.5 542.8c-1.6-2.9-1.8-6.1-.7-9 1.8-4.7-.1-7.2-4.3-8.7-.4-.4-.6-.9-.6-1.4.8-3.6 2.9-4.1 5.9-2.4 1.3.7 2.6 1.4 3.7 2.5.5 1 .2 1.9-.2 2.9-1.1 3.3 0 5.1 3.6 5.3 1.5.1 2.9.8 4.3 1.2 1.3.4 2.4.1 2.8-1.3.5-1.5-.6-2-1.8-2.4-1.8-.6-4.8.1-4-3.5 4.2-2.6 8.5-4.2 13.6-5.1 6.2-1.1 12.9-3.4 17.3-8.9 3 .4 3.7 2.7 4.3 5.1-.4.6-.8 1.3-1.2 1.9-1.6.3-3.2 1.2-3.4 2.7-1 7.9-7.3 10.6-13.3 12.4-4.4 1.3-7.1 4.9-11.7 5.9-4.7.8-9.5 1.9-14.3 2.8" style="fill:#86923d"/><path d="m806.9 512.5c-.2-.4-.4-.7-.6-1.1-9.6-.2-19.1-.3-28.7-.3-.9 0-1.9 0-2.8 0-.4 4.3 3 2.7 5 3.2 4.6-.5 9.3-.2 13.6-2.4 1.3 1.7 2.6 3.3 3.9 5 .4 0 .7 0 1.1-.1 1.3-1.6 1.7-1.6 3.5.5.8 1 1.8 1.9 2.9 2.6 1.6.7 2.7 3 5 1.8.6-.9.6-1.8.5-2.8-.7-2.3-2.2-4.2-3.4-6.4" style="fill:#898459"/><path d="m805.5 519.1c1.3 1 2.7 2 4 3 3 2.6 6.4 4.8 8.7 8 2 2.9 4 2.5 6.3 1 1-.6 1.6-1.7 2.3-2.6 1-1.3 1.9-3.1 3.8-2.7 2.1.4 2 2.4 2.2 4 .3 4 2.5 5 6.1 4.4 4.3-.8 8.6-.5 12.9-.3 2.1.1 4.5.1 4.7 3.1 0 0-.2.2-.2.2-13.6-2-27.3.2-40.9-.1-6.4-.2-6.5-.1-5.4-6.2.3-1.5-.8-2.5-.6-3.8-1-2.9-4.7-4.3-3.9-8" style="fill:#8fb64f"/><path d="m805.5 519.1c.3 3.1 3.7 4.8 3.9 8-4.1-2.9-5.7-8.5-11-10.1.5-1 .9-2.1 1.6-3.5 2 1.8 3.1 4.3 5.5 5.6" style="fill:#b1b54c"/><path d="m434.6 527.4c-3.4-.2-6.4-.8-9.2-2.1-9.9.6-19.8 1.1-29.7 1.4-.1.1-.1.2-.1.3-4.6 3.4-9 7.2-14.2 9.9.4 0 .7.1 1.1.1.8 1.1 1.6 2.2 2.8 2.8 4.2 2.8 9.3 1.6 11.7-1.1 4.9-5.6 10.9-7.2 17.5-7.5 2.9-.1 6.6-.2 8.7 2.5 1.6 2.2 3.5 2.8 5.5 2.2 3.7-.9 6.8-.1 9.8 2.1 2.7-1.7 5.3-3.3 8-5-2.3-5.3-7.6-5.4-11.9-5.6" style="fill:#7b793b"/><path d="m385.2 527h10.4c.8-.2 1.6-.3 2.4-.4-4.3.1-8.5.3-12.8.4" style="fill:#8a886e"/><path d="m381.4 544.8c-.1 2.3-1.3 3.2-3.2 3.1-2.1-.1-2.7-1.5-2.7-3.4 0-2 1.1-2.5 2.8-2.5 2 .1 3.1 1.1 3.1 2.8" style="fill:#cdd162"/><path d="m382.5 537c1.8.1 3 .8 2.8 2.8-1.2.8-2.5 1.9-3.8.4-1.3-1.4.6-2.2 1-3.2" style="fill:#d3db7e"/><path d="m1103.6 532.3c.1-1.8.6-3.5 1-5.3.4-2.5 1.1-5.7-.9-7.1-.1 0-.1-.1-.1-.1-3.9.2-7.8.3-11.7.4-7 .2-14.1.1-21.1-.2.6.8 1.1 1.6 1.7 2.3 5.9 1.1 11.8 2.6 17.7 3.8 2.1.4 4.3.5 6.4-.2 2.3 4.5 4.5 9 2 14.1.4 2.1-1 4.6 1.7 6.2 2.3 1.4 3.6-.5 5.3-1.3-.1-2.2-.1-4.3 3-4-4.4-1.3-5.1-4.8-5-8.6" style="fill:#635b3f"/><path d="m1056.7 535.1c-.3-2.6-2.7-3.1-5.3-3.7-9.6-1.9-9.5-1.9-10.6-11.1 0-.3-.3-.6-.5-.8-2.2-1.4-4.5-2.3-7-.5-.1 1.9 1.5 2.9 2.1 4.4 1.8 4.4.9 5.8-3.7 5.3-19.5-1.8-38.9-5-58.4-7.4-3.2-.4-6.6-3.1-9.7.5-.8 1-1-.3-1.2-.7-1.4-2.8-4.1-2.5-6.5-2.6-7.8-.2-15.6-1.5-23.4-1.1-3 .2-4.4-1.3-4.6-4.3-2.2.1-4.4.1-6.5.1.1.3.2.6.3.9.8 2.4.5 4.8-1.7 6.3-4.3 2.8-8.1 7.1-14.2 5.1-1.5-.5-3.3-.2-5-.1-5.7.5-10.5-1.2-13.9-6.1-1.1-1.5-2.7-3.1-4.6-1.5-2.7 2.3-6.4 2.9-9 5.3-2.8 2.6-6.2 3.3-9.7 3.1-9.6-.5-19.3-1.1-27.9-6.1-2.2-1.5-5.4 1-7.3-1.8-2.4-.5-2.6 1.5-3.4 2.9-2.4 4-3.2 4-7.5 2-2.8-1.3-4.3-4.7-7.9-4.5 0 1 0 2 0 3 1.2 5 6.3 7 9.1 10.8 2.2 3 6.4.7 8.7-2.4 1-1.4 1-4.2 3.2-3.7 1.8.4.8 2.9.9 4.4.2 3.9 2.4 5.5 6 4.6 4.5-1.2 8.9-.6 13.4-.7 2.1-.1 4.4-.5 5.8 1.9 3.6 0 7.3.1 10.9.1 4.7 0 9.4.1 14-1.1 3.3-.3 5.9-1.3 5-5.8 1.2 2 2.2 3.8 4 4.8 1.7.9 3.6.4 5.3.5 4.9.3 9.9-.6 14.7.5 10.1 3.7 20 .7 29.4-2.3 5.4-1.7 9.8-.8 14.7.2 2.7.6 5.5 1.4 8.2 1.7 3.4.3 7.6 2.7 9.4-3 .3-1.1 2.2-1.9 3.5-1.4 3.6 1.4 7.1.3 10.7-.1 6.2-.8 12.5.1 16.7 4.5 8 8.4 18.3 8.1 28.4 9.4 1.3-3.6 4-3.3 6.9-2.5 2.4.7 4.6 1.2 6.7-1.2 1.7-2 2.6-.5 3.4 1.3 1.1 2.6 10.9 6.1 13.1 4.6 4.1-2.7 7.7-6.1 12.5-7.6 1-.3 1.3-1.4 1.3-2.5-6.1-1.3-11.9-6.3-18.8-1.6" style="fill:#788c40"/><path d="m1096.5 526c-8.1-.9-15.7-4.7-24-4.1-1.2-1.1-2.5-1.6-4-2-3-.1-6-.3-9-.5-4.5-.1-9-.2-13.5-.8-1.9-.3-4-.2-5.6 1.4-2.7 8.3-1.1 10.7 7.3 12.2 3.3.6 8.7-.7 8 5.9-.1.7.7 1.6 1.7 1.3 1-.3 1-1.3.9-2-.3-3.7 1.8-3.6 4.5-3.1 4.2.9 8 3.4 12.5 2.8 5.8.6 11.5 1 17.3 1.8 3.8.5 5.4-.7 4.7-4.5-.3-2.8-1.1-5.5-.8-8.4" style="fill:#a7a263"/><path d="m1105.5 519.7c-.9 0-1.9.1-2.8.1.7.6.7 2 .8 3.1.1 1.4-.4 3 1.1 4.1.3 0 .7-.1 1-.1 0-2.3 0-4.6 0-6.9 0-.1 0-.2-.1-.3" style="fill:#4a4e3d"/><path d="m413.8 543.2c-2.5-.2-4.3-1.5-4.2-4 .1-2.6 1-5.2 4.3-5 2.4.2 4.6 1.2 4.6 4.3-.1 3-1.8 4.4-4.7 4.7" style="fill:#faf9ac"/><path d="m748.5 524c0 .4 0 .7 0 1.1-3.6 3.5-7.1 4.2-11.6.9-4.4-3.2-8.9-3.8-14.6-.2-5.6 3.5-13 2.8-19.8 2.8-9.7 0-19.3-.9-26.7 8-3.1 3.7-9.2 4.1-14.4 4.4-6.3.3-12.6.1-19 .1-10.5.2-21-.7-31.6-.3-9.4.3-19 .6-28.3-1.8-.8-3.7-3.6-4-6.5-3.9-7 .1-13.7 1.9-20.5 3-4.3-1.2-5.4-5.1-6.9-8.5-1.3-3-2.5-5.8-6.1-6.6-1-4.7 3.2-4.2 5.6-5.6 3 .1 4.5 3 7 4 2.3 1.1 3.4 3.1 3.8 5.5.5 2.6 2.2 3.4 4.8 3.2 3.3-.4 6.5-1 9.3-3.1 7.4-5.4 15.3-7 23.8-2.7 1.2.6 2.4 1.3 3.8 1.2 6-.2 11.2 1.3 14.9 6.3.7 1 2.1 1.6 3.1 1 3.2-1.7 5.8 0 8.8.9 6.8 1.9 13.6.7 20.1-2 2.3-2.3 4.9-4.2 8.3-4 11.9.8 23.3-2.6 35-3.5 3.5-.3 7-.3 10.4-.4 7.5-.2 14.8-.6 21.4-5.1 2.5-1.7 5.5-.1 8.3-.1 1.3.1 2.7.4 3.8 1.1 3.5 2.4 7.1 4.1 11.6 3.2.8-.1 1.6.5 2.2 1.1" style="fill:#5a845c"/><path d="m526.4 517.1c-34.4 3.3-68.7 6.4-103.2 8.3 1.1 1.7 2.8 2.4 4.9 2.6 6.4.7 13.1.4 18.4 5 3.9-1 7.9-1.2 11.8-1 3.3.2 1.4-5.8 4.6-4.3 2.2 1 4 3 6.6 2.2 5.9-1.9 10.9.8 16.2 2.7 4.6 1.7 9.3 2.5 14.4 1.9 5.2-.5 8.4-4.9 13.7-5.1 3.7-.1 7.5.6 11.2-.4 2.7-.7 4.7-1.6 3.2-4.6-.9-2.3-1.4-4.8-1.8-7.3" style="fill:#5e6040"/><path d="m532.4 516.5c0 .8 0 1.7 0 2.5 0 2.8-.1 5.6.1 8.4.1 1.5-.9 3.7 1.3 4.2 1.8.4 2.2-1.7 2.8-3 1.2-2.7 3.1-4.6 5.9-5.7.3-3.8 4.4-2.8 6.1-4.9.6-1.1 1.2-2.2 1.7-3.3-6 .7-11.9 1.2-17.9 1.8" style="fill:#829176"/><path d="m529.5 516.8c.9.9 1.8 1.7 3 2.2.8-.8 1.3-1.7 1.5-2.6-1.5.1-3 .2-4.5.4" style="fill:#757c67"/><path d="m881.4 536c3-1.1 5.2-2.4 3.2-6.2-.4-.7-.3-1.8.5-2.2 1.2-.6 1.8.4 2.2 1.3 1.1 2 2.1 4.1 3.1 6.1-3.1-1.1-5.8 1.8-9 1" style="fill:#8fb64f"/><path d="m890.5 535c6.7.6 13.5-1.2 20.1 1-6.7-.5-13.5 1.2-20.1-1" style="fill:#8fb64f"/><path d="m779.5 513c-3.6 1.1-7.1 2.3-10 4.9-1.2 1-3 1.4-3.7-.6-.7-2.1-1.8-4.1-2.9-6-13 .2-25.9.7-38.8 1.8 0 .3 0 .6 0 .9 1.6 3 4.7 4.3 7.4 6 5.4 2.4 10.4 6.5 17 4 1.1-2.5 2.4-4.2 5-1.5 1.1 1.2 2.5 1.5 4 1.6 1.4 1.2 2.9 2.3 4.9 1.9 1.6.1 3.1-.2 4.2-1.2 2.5-2.3 5.1-3.6 8.5-2 .9.4 1.8-.4 2.8-.8 3.1-1.6 6.1-3.3 9.5-4.2 3.1-.8 5.4-2.5 6.1-5.9-4.7-.3-9.3.9-14 1.1" style="fill:#65673f"/><path d="m757.5 524.1c2.1-.4 3.5.8 4.9 1.9.5 2.8 2.8 1.7 4.4 1.9 1.9.2 3.8.4 3.1 3.2-.6 2.5-1.8 4.9-4.6 3.5-2.3-1.1-4.6-1.5-7-1.8-3.6-.4-3.8-4.1-.8-8.7" style="fill:#aeaf5f"/><path d="m773.1 525.1c-.3 1.2-1.2 1.9-2.5 1.7-.8-.1-1.7-.6-1.4-1.6.3-1.3 1.2-2 2.5-1.8.8 0 1.4.6 1.4 1.7" style="fill:#d3db7e"/><path d="m775.6 511.1c-4.6 0-9.3.1-13.9.2 1.4 2.4 2.6 4.9 3 7.7.2 1.2 1.3 2.2 2.6 1.4 4.1-2.4 8.1-5 12.2-7.5-1-1.1-4.3 2.3-3.9-1.8" style="fill:#51523c"/><path d="m807 511.4c1.1 2.1 2.6 4 4.4 5.7 4.6 4.2 8.6 3.6 11.8-1.5.7-1.2 1.2-2.4 1.7-3.7-5.9-.2-11.9-.4-17.9-.5" style="fill:#5b503c"/><path d="m823.8 511.8c-.1.4-.2.7-.4 1.1-3.1 7.1-7.4 7.8-12.5 2-.9-1-1.7-2.2-2.4-3.4-1.2 0-2.3-.1-3.5-.1 1.2 2.7 2.7 5.2 4.5 7.6 2.8 2.2 5.7 4.3 8.6 6.4 2.9 2.1 4.1.8 6.3-.7 2.2-1.5.9-5.1 4-5.8.8-2.5.7-4.8.1-7-1.5 0-3.1 0-4.7-.1" style="fill:#677342"/><path d="m393.9 537.2c0 1.3-.9 1.6-1.9 1.8-1.1.1-2.1-.1-2.3-1.4-.1-1.1.5-2 1.6-2.2 1.3-.3 2 .7 2.6 1.8" style="fill:#89963c"/><path d="m1037.2 517.6c-13.9.1-27.9-1.1-41.7-3-8.2-1.1-16.4-2.4-24.6-3.7-2.8.2-5.7.4-8.5.6-.7.2-1.4.5-2.2.8 4.9 2.9 9.3 2.8 13.5 3.2 17.4 1.5 34.8 2.5 52.2 4.7 2.6.3 5.3 1 7.6-1 2.4-.6 4.6 1 7 .9 10.7.6 21.4 1.3 32 1.9-.1-.6-.2-1.2-.5-1.8-11.6-.5-23.2-1.5-34.8-2.6" style="fill:#585021"/><path d="m922.6 513.4c-4 .1-8 .1-12 .2 0 .2-.1.3-.1.5-.2 1.8-3.3.1-4.7 1.3-4.4 3.5-9.2 1.8-13.9.8-2.1-.5-3.7-1.4-4.8-2.7-.6 0-1.2 0-1.8 0-12.5-.2-24.9-.6-37.4-.9-4.3 2-7.8 1.9-10-.3-2.6-.1-5.1-.2-7.7-.2.6 3.4 1.7 6.4 4.2 9 7.5 4 15.6 5.2 24 6.5 10.1 1.6 16.6-3.6 23.6-7.9 2.7-1.6 3.2-.6 3.9.7 2.6 4.9 6.8 6.7 12.1 6.6 3.5 0 7.2-.6 10.4.3 3.5 1 5.4.2 7.5-2.5 1.9-2.4 6-2.3 7.2-5.7.3-.9.6-2.1.2-2.9-.3-.9-.6-1.8-.7-2.8" style="fill:#62723c"/><path d="m1033.5 519.1c-23.7-2.1-47.3-4.2-71-6.3 0-.3 0-.6 0-.9 4.8 0 9.7 0 14.5 0-2-.3-4.1-.7-6.1-1-10.5.8-21 1.6-31.5 2-4.3.2-8.5.3-12.8.4 0 .5 0 1-.1 1.5-.4 3 1.3 4.3 4.1 4.1 8.3-.5 16.5.8 24.8 1 3.2.1 6.7-.6 6.1 4.5-.1 1 .5 2.1 1.7 2 1.4-.1 1.1-1.5 1.1-2.4 0-2.4.6-3.1 3.3-2.6 22.2 4.3 44.8 6.2 67.2 9.3 1.2.2 3.5.5 3.2-1.2-.6-3.6.4-8.4-4.5-10.4" style="fill:#a7a263"/><path d="m826.9 511.9c.4 2.4 1.1 4.7 1.5 7 .5 5.3 4.1 1.1 6 2-1.4-2.9-2.1-5.9-2.6-9-1.5.1-3.2.1-4.9 0" style="fill:#827a4d"/><path d="m1083.7 527.1c-4.5 1.6-8.7.2-13-.7 4.3-.3 8.7-.9 13 .7" style="fill:#6a682c"/><path d="m549 514.9c-.2 1-.4 2.1-.4 3.1 2.3.9 3.2 3.9 6 4 6.4 1.2 10.1-2.8 13.6-7.1.5-.6.8-1.3 1.1-2-6.8.7-13.5 1.3-20.3 2" style="fill:#535463"/><path d="m653.9 518.1c-3.7-2-3.7 2.9-6.1 3.2-2.8 0-5.2.9-6.6 3.5-1.3 2.3-3.5 2.8-5.9 2.9-7.6.3-16.9-5.7-19.4-13.4 0-.1 0-.1-.1-.2-10.4-.8-20.7-1.7-31-2.7-5.6.5-11.3 1-16.9 1.6-2.6 5.4-7.5 7.7-13.2 8.9 1.7 1.4 3.1 2.7 3.1 5.3 0 2.2 1.2 4.3 4 4.1 4.1-.2 8.3-.3 11.8-3 7.5-5.9 15.4-7.2 23.9-2.5 1.7.9 3.5 1.3 5.3 1 5-.7 8.7 1.5 11.5 5.4 1.9 2.6 3.9 3.5 6.6 1.1 1-.8 2.1-1.2 3.6-.2 4.7 3.2 9.7 4.2 15 1.4 1.1-.5 1.9-.2 2.8 0 2.1.6 3.9-.1 5.3-1.8 1.5-2 2.9-4 5.6-4.6 3-.6 3.5-2.6 2.5-5.2-.8-1.3-.8-3.2-1.8-4.8" style="fill:#4f6156"/><path d="m724.5 514c-.3-.4-.6-.6-.9-.9-8.4.7-16.8 1.5-25.1 2.1-1.9 1.1-4.3 1.3-6.9 1.4-1.5 0-2.9-.3-4.3-.6-5.4.3-10.7.5-16.1.5-5.8 0-11.5-.1-17.3-.2-.2.6-.3 1.1-.4 1.8.1 6.1-.1 6.6-4.7 11.8-.7.8-.9 2.1-1.3 3.2 4-4.3 9.3-4.2 14.6-4 2.5.1 5 .3 7.4-.2 13.1-2.7 26.3-3.8 39.6-3.7 2.7 0 5.3-.1 7.6-1.7 4.5-3 9.2-4.9 14.7-3.4-1.4-3.1-4.4-4.3-6.9-6.1" style="fill:#576554"/><path d="m510.6 524.5c1.4.2 2 1 2.4 1.9.3.7 0 1.3-.8 1.4-1.3.2-2.3-.4-2.4-1.8 0-.5.6-1 .8-1.5" style="fill:#73844b"/><path d="m647.2 516c-.1 2.2.3 4.6 1.4 7 2.6-.7 1.9-4.8 5-5 .4-.6.8-1.2 1.1-1.7-2.6-.1-5.1-.2-7.5-.3" style="fill:#4f4c49"/><path d="m673.7 516.4c2 .6 4.1.8 6.2.4 2.6-.5 4.9.1 7.3.6 3.6.8 7.1 1.2 10.7-.3 1.3-.5 2.5-1.2 3.4-2.1-9.2.7-18.4 1.3-27.6 1.4" style="fill:#4f4c49"/><path d="m709 514.3c2 .7 4.2.6 6.8-.4.3-.1.6-.2 1-.3-2.6.3-5.2.5-7.8.7" style="fill:#4f4c49"/><path d="m724.1 513.1c-.9.1-1.8.2-2.7.2 1 .1 2.1.4 3.2.7.1-.3.2-.7.3-1-.3 0-.6 0-.8.1" style="fill:#4f4c49"/><path d="m836.2 512.2c2.2 3.9 6.2 5.1 9.8 2.9 2-1.3 4-2.1 6-2.4-5.3-.2-10.5-.4-15.8-.5" style="fill:#5f5639"/><path d="m858.4 512.8c.1 0 .2 0 .2 0 1.3.3 3 1.4 4.4.3 0-.1 0-.2 0-.3-1.5.1-3.1.1-4.6 0" style="fill:#5f5639"/><path d="m885.4 513.5c-.3 0-.6 0-1 0 4.2 2.9 8.5 5.1 13.7 5.4 6.1.4 10.7-4.7 16.8-4.2-1.1-.3-2.2-.6-3.3-1-8.7-.1-17.5-.1-26.2-.2" style="fill:#5f6e3a"/><path d="m648.5 516.1c-11.4-.4-22.7-1.1-34.1-2 .1.3.2.5.3.8.9 3 2.2 6.6 4.9 7.8 3.2 1.5 5.8 3.5 8.7 5.4 4.2 2.7 11.8 1 14.3-3.3 1.7-2.9 3.9-1.8 6-1.8.4-1.6.3-3.2.1-4.9-.2-.7-.3-1.4-.2-2" style="fill:#3d474c"/></g></svg>