<svg xmlns="http://www.w3.org/2000/svg" xmlns:xlink="http://www.w3.org/1999/xlink" x="0" y="0" viewBox="0 0 1500 603" style="enable-background:new 0 0 1500 603"><g id="Layer_3"><g id="ForeLeftUp.svg_1_"><path d="m29.2 167.1c-8 1.6-16.2 2.4-23.7 5.9-1.5.7-3 1.4-4.5 2 0-22 0-44 0-66 6-3.5 10.7.7 15.1 3.4 4.2 2.6 8.3 3.7 13.1 3.2-.9-1.4-2.3-1.9-3.5-2.7-7.1-4.7-10.2-11.1-8.3-19.7 1.1-5 1.7-10.2.5-15.3-.3-1.3-.1-2.7.6-3.9 1.2-1.3 2.6-2 4.4-1.2 1 6.7.6 13.5-.2 20.2-.7 5.6.8 9.2 5.5 12.6 9.3 6.8 19.7 8.2 30.7 8.1 2 0 3.9-.8 5.7-1.6 5.1-2.1 9.5 1.2 8.1 6.6-3.6 12.9-9.7 24.1-21.8 31.5-7.8 4.6-15.7 9.6-21.7 16.9" style="fill:#18141b"/><path d="m1 60c0-18.7 0-37.3 0-56 2.6-.5 3.5 1.5 4.4 3.2 1.5 3 3.6 5.6 5.7 8.1 3.2 3.9 5.6 4.2 9.8 1.1 4.4-3.3 7.6-7.9 11.4-11.9 3.7-3.9 5.2-4 9.1-.6.1.5-.1 1-.4 1.4-9.9 4.1-14.7 11.7-15 22.2-1.3 5.7-2 11.4-5.6 16.6-2.4 3.4-1.2 8.7-3.7 12.6-1 1.5-1.4 3.4-3.3 4.1-4.2.8-8.4 1.7-12.4-.8" style="fill:#1b141c"/><path d="m1 60c4.3 0 8.7 0 13 0 1.1.3 2 1.3 1.6 2.1-1.7 4.2.5 7.1 3 10 .4.5.5 1.2.4 1.9 1.5 7.7.5 15.3-.8 23-1 6.4 2.9 11.2 8.3 14.7 2 1.3 4.4 2.2 6.1 5-6.3 0-11.9 1.3-17.4-3.5-3.5-3.1-8.7-5.4-14.2-4.3 0-2.3 0-4.7 0-7 .6-.6 1.3-.9 2.2-1.1 12-2.3 16.3-14.5 8.8-24.4-2.9-3.7-7.1-5.2-11-7.4 0-3 0-6 0-9" style="fill:#1e1d1e"/><path d="m41 4c-3.1-2.4-5.5-1.6-7.9 1.3-3.9 4.6-7.4 9.7-12.7 13-4.4 2.8-6.7 2.1-10.2-1.7-3.5-3.9-4.9-9.3-9.2-12.6 0-1.7-.7-3.6 2.5-3.1 3.1.5 6.3.1 9.5.1 1 1 1.1 2.3 1.5 3.6 2.1 5.9 6.9 6.9 11.3 2.3 1.9-1.9 2.7-4.6 5.2-5.9 3.7 0 7.3 0 11 0 1 1.4.4 2.3-1 3" style="fill:#2a1c25"/><path d="m1 95c0-5.7 0-11.3 0-17 4.3-1.6 8.2-.3 11.1 3.6 2.7 3.8 2.7 8 0 11.5-2.8 3.4-6.3 4-11.1 1.9" style="fill:#263c3f"/><path d="m31 1c-1.3 2.5-2.5 4.9-4.5 7.1-2.4 2.7-5.3 3.8-8.4 2.7-3.3-1.2-5.1-4.1-5.1-7.8 0-.7 0-1.3 0-2 6 0 12 0 18 0" style="fill:#382a32"/><path d="m1 69c11.6 1.1 15.6 9.9 15.9 19.8.2 8.8-5.6 13.2-15.9 13.2 0-1 0-2 0-3 1-1 2.3-1.1 3.6-1.3 5.7-1.1 8.9-4.5 9.4-9.8.4-4.6-3.1-9.9-7.5-11.8-1.8-.8-4-.6-5.5-2.1 0-1.7 0-3.3 0-5" style="fill:#22292b"/><path d="m1 74c8.5.2 14.7 5.6 13.8 13.2-.8 7.8-2 12.4-13.8 11.8 0-1.3 0-2.7 0-4 2.9-.4 6.1 1 8.7-1.2 2.4-2.1 4-4.6 3.1-7.9-1.1-4.2-4.2-6.7-8.3-7.8-1.1-.3-2.3-.1-3.5-.1 0-1.3 0-2.7 0-4" style="fill:#232a2e"/><path d="m52 1c4.3 4.1 9.9 6.4 15 9.3 1.2 1.8.2 3.2-.7 4.7-.4.3-.9.4-1.4.3-3.7-1.5-6.8-3.9-9.9-6.3-2.1-1.7-4.4-2.9-7.1-2.9-.7-.1-1.4-.4-2-.9-.8-2.1.6-3.2 2.1-4.2 1.3 0 2.7 0 4 0" style="fill:#2c0f16"/><path d="m48 1c-.7 1.3-1.4 2.6-2 4-1.6 1.4-3.3 1.4-4.9 0 0-.3 0-.7 0-1 .3-1 .7-2 1-3 1.9 0 3.9 0 5.9 0" style="fill:#3f2b2d"/><path d="m29.2 167.1c-1.9-1.3-.6-2.4.4-3.1 2.5-1.8 4.7-5.1 6.9-6 5.7-2.4 9.6-6.9 14.7-9.9 7-4.1 12.8-9.8 15.8-17.8 1.3-3.6 2.7-7.1 4.2-10.6 1.1-2.4.9-4.6-1.1-6.4-2-1.8-3.8-1.1-5.8.4-1 .7-2.4 1.2-3.7 1.3-13.5 1-26-2-36.8-10.6-2.1-1.7-3.2-4.3-2.8-6.6 1.6-8.3 0-16.7 2-24.8 5.3-5.2 14.2-6.5 21.1-3 5.3 2.7 10.5 5.6 14.1 10.7 1.7 2.4 4.2 4.2 6.2 6.4 2.8 3 5.9 4.2 9.8 2.5.6 0 1 .2 1.4.6 3.7 5.6 5.4 11.6 4.7 18.3-.6 16.5-7.6 30.3-19.7 40.9-6.7 5.9-14.9 10.4-22.9 14.8-1 .6-2.1 1-3 1.7-.8.6-1.9.5-2.8.9-.8.1-1.8.2-2.7.3" style="fill:#170e12"/><path d="m34.1 165.9c.4-2.9 3.2-2.4 4.9-3.5 6.6-4.1 13-8.5 19.5-12.6 7.3-4.6 11.1-12.9 15.4-20.3 3.7-6.5 4.3-13.5 5.1-20.5 2.6-2.8 4.6-5.9 6.8-9 2.4-3.4 4-3.3 6.6-.1-.1 3.5-3.1 6.4-2.4 10.2-2.8 6.6-5.3 13.5-8.7 19.9-4.6 8.6-8 17.6-10.6 27-3 1.2-4.6 3.3-5.4 6.5-.6 2.7-2.2 4.9-5.7 3.6-1.9-.1-3.8-.2-5.8-.3-5-.7-10.1-.1-15.2-.3-1.4-.1-3.1.5-4.5-.6" style="fill:#0b040b"/><path d="m115 60.8c-2.3 1.4-4.7 2.8-7 4.2-3.4 1.1-3.3 4.7-4.9 7.1-3.9-1.2-2.3-4.8-3.3-7.3-2.4 1.4-5 2-7.7.5-1.1-3.3 3.1-3 3.6-5.3 3.3-5.4 1.7-10.3-1.4-15.2-1.5-2.4-4.3-4.3-3.7-7.7 1.4-1.4 2.5-2.8 2.4-5-.1-1.8.5-3.5 2.1-4.7 1.2-.6 2.6-.6 3.9-.3 3.9 1 7.9 1.8 11.9 1.9h.1c.7 2.2 1.7 4 3.5 5.7 2.9 2.9 5.5 6 6.6 10.3 1.4 6.7-.4 12-6.1 15.8" style="fill:#590101"/><path d="m95 28c-.2 1.9-1.6 3.7-.9 5.6 1 3.3-1.1 3.4-3.3 3.5-1 .2-1.7-.3-2.5-.8-1.1-1-2.3-1.9-3.9-2.4-.4-.1-.8-.3-1.2-.5-5.7-.7-10.2 3.2-10.9 9.4-.3 2.2.6 4.7-1.5 6.5-.6 0-1-.2-1.3-.6-1.3-4.8-1.5-9.5.6-14.1 1.7-3.8 4.2-6.8 8.8-7.2 1.4-.1 2.4-1 3.6-1.7 1.5-.8 3-.3 4.5-.1 2.4.6 3.8-.9 5.2-2.5 1.2.9 2.6.9 4 .8.6 1.7-.2 2.9-1.2 4.1" style="fill:#4c0404"/><path d="m115 60.8c9.3-10.2 5.6-19.2-2.8-26.4-2.6-2.2-1.8-3.3-1.2-5.3 9.7 4.6 11.9 13.9 14 23.1.9 4.2-.4 7.5-5.6 7.8-1.5 0-3 .5-4.4.8" style="fill:#882138"/><path d="m95 28c-.2-1.5.3-2.7 1-4 5.8-.8 10.6 1.2 14.8 5.1-3.6 3.2-7 .2-10.5-.2-1.7-.2-3.5-.6-5.3-.9" style="fill:#802734"/><path d="m90.1 110.1c-2.8-4 .5-6.9 2-10.1 3.5-2.4 6.8-5.4 11.4-5.8.7 1.3.6 2.5-.4 3.6-1.6 1.7-3.5 2.8-5.6 3.9-3.7 1.8-5.9 4.8-7.4 8.4" style="fill:#331821"/><path d="m87 26.9c-1.4-.3-2.7-.6-4.1-.9-4.4 1-6.7-1.6-8.7-4.8-.2-1.9.2-3.7 1.7-5 3.3 1.9 6.7 3.9 10 5.8 1.3 1.5 1.9 3.1 1.1 4.9" style="fill:#591422"/><path d="m102.9 72c0-3.5 0-7.1 5.1-7-2.9 4.3-3.1 8.3 1.4 11.7 3.4 2.6 2 5.5.6 8.4-1.9-.6-2.1-2.4-2.9-3.9-.4-3.5-4-5.6-4.2-9.2" style="fill:#6b2034"/><path d="m76 16.2c-.3 1.6-.7 3.2-1 4.8-4.1-.4-7-2.6-9-6 .3-1.5.6-3.1 1-4.6 3.3 1.4 6.5 3.1 9 5.8" style="fill:#3e121b"/><path d="m59.7 167.1c3.5.1 4.9-2.8 4.9-5.1 0-4.7 2.4-5.5 6.2-5-1.7 3.1-3.2 6.3-5 9.3-1.6 2.4-3.9 1.5-6.1.8" style="fill:#040a2f"/><path d="m108 81c.7 1.4 1.4 2.7 2 4.1-.7 3-1.4 6-2.1 9-.6 2.6-2.7 3.3-5 3.8 0-1.3 0-2.6 0-3.8.1-1.7 1.4-2.9 2.2-4.3 1.9-2.7.8-6.3 2.9-8.8" style="fill:#441b2b"/><path d="m87 26.9c-1-1.5-1.1-3.2-1-4.9 2.1-.1 4.1.1 6 1.1.6 4.2-2.1 4.1-5 3.8" style="fill:#721e2d"/><path d="m34.1 165.9c6.6.6 13.3-.9 19.9.9-7.3 0-14.6 0-22 0 .7-.3 1.4-.6 2.1-.9" style="fill:#18141b"/><path d="m74 90c-2.9 3.8-6 2-8.5-.2-3.7-3.3-7.3-6.9-10.4-10.8-5.4-6.9-16.6-10.8-25-8.2-2.4.7-4.7 1.5-7.1 2.2-1.3.3-2.7.7-4 1-1.1-1.2-2.1-2.6-3.2-3.7-2-1.9-3.9-3.7-1.3-6.6 1.1-1.2 0-2.5-.5-3.7 3.2-11.2 8.6-21.6 11-33 6.1 1.7 12.4 3.1 17.8 6.6 1.6 1 3.4 2.1 3.8 4.3 0 .5-.2 1-.5 1.4-3.6 2-3.9 5.5-5 9.1-2.8 10 1.2 15.9 10.1 19.5 6.5 5.9 12.7 12.1 19.8 17.3 1.6 1.3 3.6 2.3 3 4.8" style="fill:#241419"/><path d="m46 38c-3.2-3.8-7.4-5.8-12.1-7-3.2-.8-6.3-2-8.9-4-1-8.7 4-14.5 9.6-20 1.7-1.7 4-2.2 6.4-2 1.6 0 3.3 0 4.9 0 .7 0 1.4 0 2 0 .3 3.5-2.6 3.8-4.8 4.7-2.8 1.1-5.7 1.8-7.7 4.2-3 3.6-2.8 6.9.9 9.8 3.2 2.6 7.4 3.8 10.1 7.1.4 2.6 3.2 4.5 2.3 7.5-.9.6-1.8.5-2.7-.3" style="fill:#1b0c0f"/><path d="m46 31c-3.1-1.9-6.2-3.8-9.3-5.6-2.9-1.7-5.3-3.6-4.6-7.4.7-3.9 3.1-6.4 6.6-8 3.2-1.5 7.3-1.2 9.3-5 2.6-.2 4.8.6 6.8 2.3 3.3 2.7 6.8 5.1 10.2 7.7 1.2 1.4 1 3.1-.4 3.9-3.7 2.3-4.7 6.2-6.7 9.7-3.1 5.6-7.7 6.5-11.9 2.4" style="fill:#130101"/><path d="m46 31c6.4 2.5 9.5 1.3 11.9-5.1 1.2-3.1 1.9-6.4 5.8-7.5 1.5-.4 1.3-2.1 1.3-3.5.3 0 .7 0 1 0 3 2 6 4 9 6 2.2 2.5 4.7 4.3 8 5-.7 1.5-1.4 2.8-3.5 3-5.6.7-9.3 4.8-9.5 10.4-.1 3.2 0 6.3 0 9.5-.5.5-1.5.9-1.7.6-3-4.8-8.7-3.1-12.6-5.4-2.7-1.5-6-2.4-6.7-6-1.4-2.2-3.7-3.9-3-7" style="fill:#270102"/><path d="m49 38c2.2 1.9 4.3 3.9 7 5 2 2.5 4.7 4.1 6.8 6.5 1.7 1.9 3.2 3.8 3.4 6.5 0 .7 0 1.4.6 1.8 1.4 1 4.2-.5 4.5 2.1.9 9.5 9 17.5 5.5 27.8-.3 1-.9 1.8-1.8 2.3-.3 0-.7 0-1 0-2.7-3.8-6.6-6.4-10.3-9-4.8-3.4-8.3-8.2-12.7-12 .1-.9.6-1.5 1.1-2.2 5.2-5.4 5.3-7.3.3-13.1-3.6-4.3-5.1-9.4-6.5-14.7 0-.3 0-.7 0-1 1.1 0 2.1 0 3.1 0" style="fill:#360f12"/><path d="m75 90c0-.8.2-1.6 1-2 8.9-11.3 6.2-11.4 20.7-8 .6.2 1.3.3 2 .4 8.5 1.3 8.9 1.8 7.4 10.6-1 1-2 2.1-3 3.1-3.2 2.9-6.7 5.2-11 6-2.4-2.8-4-1.5-5.6 1-2 3.1-3.1 7.1-7.4 8 1.2-7-2.2-12.9-4.1-19.1" style="fill:#1f0001"/><path d="m106 91c-.2-2-.2-3.9-.5-5.9-.3-1.9-1.3-3.2-3.7-3.1-4.2.2-8.2-.9-12.1-2.2-3.8-1.3-6.4-.4-8.2 3.1-1.2 2.4-2.5 4.7-5.5 5.1.3-6.5.1-12.9-3.1-18.9-.5-1-.8-2.7-1.6-3-4.2-1.6-3-3.8-.8-5.8-.3-1.2-1.2-1.4-1.7-1.1-3.3 2-4.2.7-3.8-2.6.3-2.4-1-4-2.5-5.7-2.3-2.6-5.7-4.1-6.5-7.9 2.9.9 5.4 3.1 8.8.9 1.8-1.1 2.1 1 2.1 2.2 0 2.2.9 3 3 2.9.3 0 .7 0 1 0 2-.4 2.4 1.4 3.1 2.6 2.3 4.3 5.8 7.2 10.2 9.2 1.1.3 2.1.8 3.1 1.4 1.4 1.1 3.3 1.4 4.5 2.7 2.8-.4 6.5 1.9 7.5-3 0-.2.9-.5 1.2-.3 1.1.5 1.2 1.4.8 2.5-1 2.9.3 5.4 1.5 7.9 2.2 2.7 4.8 5.2 5.1 9 .2 3.5 0 6.9-1.9 10" style="fill:#340201"/><path d="m86.9 63.1c-1-.4-1.9-.8-2.9-1.2-1.9-4-8.8-3.9-8.6-8.8.2-3.9 2.3-7.7 2.5-11.9.2-3.7 1.5-7.5 6.2-8.4.3 0 .6 0 .9.1 1.3 1 .7 4.5 3.9 3.2.6.3 1.2.6 1.8.9 1.6 2.5 3 5.1 4.7 7.4 4 5.2 4.5 10.7 1.5 16.5-3.2 1-6.1 4.2-10 2.2" style="fill:#ef0102"/><path d="m86.9 63.1c3.7.8 6.4-2.9 10.1-2.1-.8 2.6-4.2 1.6-5.1 3.9-1.9 0-3.7-.3-5-1.8" style="fill:#c3080e"/><path d="m84.1 32.9c-4.1 3.2-5.6 7.5-5.2 12.6.2 2.1.2 4-2 6.1-2.6 2.4.5 4.5 2.7 5.2 2.8.9 4.4 2.1 4.3 5.1-4.4-1.5-7.6-4.5-10.1-8.4-1-1.5-1.9-3-2.9-4.5-.3-5.1-.1-10 3.6-14.3 2.6-2.9 6.7-3.9 9.6-1.8" style="fill:#d80303"/><path d="m88.9 36.2c-1 .7-1.9 2.5-3 1.8-1.8-1.1-.7-3.3-1-5 2.3 0 3.2 1.5 4 3.2" style="fill:#d80303"/><path d="m46 39c3.7 5.5 5.2 12.2 9.8 17.5 3.3 3.7 3.2 8.2-2.4 10.8-.9.4-1.6 1.2-2.3 1.8-2.7-1.5-4.9-3.8-8.3-4.3-2.4-.3-3.8-2.4-3.6-4.7.4-5.6 1-11.2 1.7-16.7.3-2.9 2-4.6 5.1-4.4" style="fill:#321519"/></g></g></svg>