<svg xmlns="http://www.w3.org/2000/svg" xmlns:xlink="http://www.w3.org/1999/xlink" x="0" y="0" viewBox="0 0 1500 603" style="enable-background:new 0 0 1500 603"><g id="Layer_2"><g id="ForeRighLow.svg"><path d="m1501 316c0 75.7 0 151.3 0 227-2.2 1.8-4.8 1.7-7.1.8-7.5-2.8-15.2-2.7-23-1.7-4.1-.5-6.8-3.8-10.3-5.5-3.1-1.5-5.9-3.5-9.1-4.8-1.3-.5-2.9-1-2.5-3 1.4-1.2 3.1-1 4.7-1.2 2.4-.2 4.8-.2 5.8-3 1-3 1.1-6-1-8.5-3.8-4.6-13.2-3.4-15.8 1.9-1.2 2.3-1.3 5.3-4 6.7-2.2.7-4.4.8-6.5-.4-1.3-1.8-.3-3.9-.5-5.8.5-6.3-1.9-12.1-2.8-18.1-2.2-14.7-3.1-29.3-1.7-44.1.2-2.4.6-4.6-1.7-6.3-1.8-3-3.5-5.6-7.8-5.9-3.9-.3-5.3-4.1-5-7.6 1.1-12.7 1.7-25.4 4.5-38 2.5-11.6 7.9-21.9 11.8-32.8 1.2-3.3 2.2-6.8 2.1-10.2-.1-9.5 6.4-13.7 13.3-17.7 1.3-.8 2.8-1.1 4.2-1.6 10.6 1.4 16.7-6.5 24.2-11.5 7.6-5.1 16.3-6.9 24.9-9.4 1.2-.3 2.4-.2 3.3.7" style="fill:#19161d"/><path d="m1501 549c-11.1.3-21.9-1-32-6-.1-.9.3-1.5 1-2 3.6 0 7.1-1 10.7-1.1 4.6-.2 8.7 1.4 12.9 2.6 2.5.7 4.9.4 7.3.6.1 1.9.1 3.9.1 5.9" style="fill:#101f2a"/><path d="m1501 316c-13.2 3-26.3 6.2-36 16.6-4.6 4.9-10.2 4.6-16 4.4-1.3.7-2.7.7-4.1.2-.6-4.7 3.6-2.8 5.6-4 3.7-.1 6.9-1.7 10.1-3.5 2.3-.5 3.7-2.2 5.3-3.6 8.8-8.4 20.3-10.9 31.4-14 1.3-.4 2.6-.1 3.7.9 0 1 0 2 0 3" style="fill:#1d2832"/><path d="m1483.1 303.3c5.3-3.1 11.7-3 16.9-6.3 2.1 2.4.5 5.4 1 8-4.8 3.8-10.1 6.7-16.5 6.6-2.2-2.6 1.6-2.9 1.6-5.1-.5-1.1-3.4-.7-3-3.2" style="fill:#1d567a"/><path d="m1484 311c6.2-.4 11.2-4.3 17-6 0 1.3 0 2.7 0 4-1 2-3 2.5-4.9 3-5.5 1.4-10.7 3.4-16.1 5.1-4.8 1.5-9.4 3.5-12.5 7.8-.7.9-1.5 1.9-2.9 1.1-1-1.5-.9-3-.3-4.6 4.5-7.5 11.7-9.7 19.7-10.4" style="fill:#244e64"/><path d="m1465 326c5.5-8.9 15.1-10.1 23.9-13 4-1.3 8.1-2.7 12.1-4 0 1.3 0 2.7 0 4-7.9 1-15.1 3.8-22.6 6.4-7 2.4-11 8.7-17.4 11.6-.2-3 1.8-4.1 4-5" style="fill:#1e3449"/><path d="m1444.9 337c1.4 0 2.7 0 4.1 0-2.6 1.4-5.3 2.7-7.7 4.3-5.4 3.5-8.4 7.8-8.8 14.9-.5 9.4-5.3 17.9-9.1 26.5-4.4 9.8-5.6 20.6-7.5 31.1-1.3 6.9-.3 13.8-1.7 20.7-1.2 6.1.7 8 7.2 8.4 4.2.3 3 4.1 4.7 6 1.4 2.2 2 4.4-.6 6.2-2.9-2.9-6-4.8-10.2-5.8-4.2-1-5.6-5.3-6.2-9.4-.5-3.5-.3-6.9.5-10.4 1-4.7 1.3-9.5 1.6-14.3 1.9-5.7 2.3-11.7 3.5-17.5 1.9-9.5 4.5-18.7 9.1-27.3 2.5-4.7 3.7-10 3.2-15.4-.5-5.5 1.7-9.6 5.7-13.1 2.3-1.9 3.9-4.5 6.7-5.9 1.9-.4 3.8-.5 5.5 1" style="fill:#1b2333"/><path d="m1470 541c0 .8-.2 1.5-1 2-7.8-2.5-16.1-2.8-23.9-5-12.5-3.6-25-7.8-32.4-19.9.8-.9 1.8-1 2.7-.5 5.3 2.8 11.1 4.3 16.6 6.4 2.3 0 4.7 0 7 0 4.3-.3 6.9 3 10 5 7.2 3.6 14.3 7.6 21 12" style="fill:#09091e"/><path d="m1432 524c-5.5.5-10.2-1.8-14.8-4.3-1.5-.8-2.8-1.7-4.5-1.6-1.5-1.2-2.9-3.2-4.6-3.5-6.3-1.1-8.6-6.1-11.7-10.5-4.1-5.8-8-11.8-13-16.8-7.7-7.7-13.2-16.8-16.7-27.1 2.9-2 4.2.6 5.6 2.1 2.7 3 4 6.8 6.2 10.1 1.6 2.3 2.8 4.9 5.2 6.6 5.7 7.5 11.4 15.2 18.1 21.8 6.8 6.7 13.3 14 22.7 17.5 2.7 1.3 5.8-.9 8.5.8.1 1.7-.1 3.4-1 4.9" style="fill:#0b182e"/><path d="m1449 529c-4.2 0-6.4-3.9-10-5 .5-1.4 1.1-2.8 1.6-4.2 2.6-7.5 10.4-10.5 17.1-6.3 4.4 2.7 4.1 7.1 3.3 11.5-.8 3.9-3.9 3.9-7 4-1.7 0-3.3 0-5 0" style="fill:#0d1f2a"/><path d="m1433 519c-3 .5-6 2.2-9 0 3.1-3.2 4.9-6.7 2.8-11.2-3.4-12.2-4.9-24.7-4.1-37.3.3-5.2.1-10.5 2.3-15.5 1.8-1.8.7-4 1-6 3.7 1.2 3.2 4.2 2.8 7-1.2 9-.5 18-.2 27.1.4 11 2.4 21.5 4.9 32.1.3 1.1-.3 2.5-.5 3.8" style="fill:#1a2231"/><path d="m1461 407.2c-.1 5.5-3.1 8-8.7 10.1-5.7 2.1-10.4 2.1-15.5-1.3-6.8-4.5-7.8-11.8-1.9-17.4 6.2-5.9 15.3-9 22 .7 3.7 5.1 4.1 4.7 4.1 7.9" style="fill:#16292b"/><path d="m1335.2 412c.4-2.9 1.1-5.7 3-8 1.3-.4 2.2.5 3.1 1.1 3.8 2.4 6.2 1.9 8.1-1.6 2-3.7 1-6.4-3.2-8.2-.9-.4-1.9-.5-2.5-1.4.6-1.6 1.5-3 2.9-4 .9-.5 1.7-1.1 2.7-1 6.6.6 11-3 14.4-8 3.4-5 7.3-9.8 10.1-15.2.2-.4.5-.8.8-1.1 4-3.4 7.9-7 11.3-11 1.3-.8 2.7-1.2 4.2-1.1.5.1.9.4 1.2.9.9 2.4-.9 3.6-2.3 5-13.3 13.6-21.9 29.6-23.5 48.7-1.4 16.6-.4 32.8 10.1 47.1 6.3 8.5 10.4 18.5 16.9 27 5.9 7.6 11.6 15.3 19.3 21.3.3.4.6.8.7 1.4.1.8 0 1.5-.4 2.2-2.5 1.1-3.5-1.1-4.9-2.3-1.7-1.4-3.5-2.5-5.2-3.7-7-6.9-13.8-13.9-18.5-22.7-3.7-9.3-9.3-17.5-15.4-25.4-3.3-4.3-7-8.5-9.5-13.3-4.6-8.9-11.3-15.3-20.7-18.8-3-1.9-.2-5.9-2.7-7.9" style="fill:#215665"/><path d="m1385 477c1 3.6 3.8 6.2 6.1 8.9 3.8 4.5 7.2 9.4 11.9 13.1 4.7 5.4 10.7 9.3 16.5 13.4 5.3 3.2 5.3 3.2 8.6-3.4 2.1 5.6 1.5 7-4 10-5.4-.8-8.9-4.7-12.9-7.9-11.1-8.8-19.6-19.9-28.1-31.1-6.9-11.7-14.6-22.8-24.9-31.8-2.5-2.2-4.1-5.2-5.7-8.1-2.2-4.1-5.4-7-9.5-9.1-3.6-1.9-5.6-5.4-8.7-7.9-2-1.6-.5-3.3-.2-4.9.4-2.1.8-4.2 1.2-6.3 5.1.7.6 5.1 2.8 7 1.8 3.5 4.8 5.8 8.2 7.7 4.5 2.5 7.7 6.1 10.3 10.5 3.5 6.1 8.8 10.7 13.3 16 6 7.4 10 16 15.1 23.9" style="fill:#163145"/><path d="m1484 311c-2.1 1.3-4.5 2-6.9 2.5-5 .9-8.4 4.5-12.1 7.6-.4.3-.9.5-1.4.6-.5 0-1-.2-1.4-.4-6-4.8-12.5-2.9-19-1.3-.8 0-1.5-.1-2.2-.5-.3-.4-.5-.8-.5-1.3 3.2-4.3 8-5.6 12.8-6.2 2.2-.2 3.2-.8 3.7-2.8 8.9-1.2 17.6-2.6 26.1-5.7.1.1.2.3.3.4 5 2.8 5 2.8.6 7.1" style="fill:#24637e"/><path d="m1457 309c1.2 2.6.1 3.9-2.5 3.9-5.1 0-9.2 2.9-13.6 5-7.8 4.2-15.1 9.3-22.6 13.9-3.1 1.9-5.8 4.4-9 6-5.2 1.8-8.3 6.3-12.5 9.5-2.4 1.8-4.2 4.8-8 3.9-1.3-2.3.7-3.3 2-4.3 4.1-3.2 7.8-6.9 11.7-10.4 4.4-3.2 8.3-6.9 13.3-9.3 1.6-.8 3-2.1 3-4.2 10-7.6 22-10.4 33.8-13.6 1.4-.5 2.9-.3 4.4-.4" style="fill:#10253c"/><path d="m1351 384c3.9-7 10.4-11.9 15.4-18.1 2.9-3.6 5.6-7.4 9.5-10 1.2-.6 2.4-1.2 3.8-1 2.4.6 3.5 1.6.9 3.3-2.5 1.7-4 4.3-5.5 6.8-3.9 2.2-6.4 5.6-8.4 9.5-2 4-4.7 7.7-8.6 10.1-3.2 2-4.9 1.8-7.1-.6" style="fill:#152940"/><path d="m1418.8 322.9c1.9.9 2.2 2 .4 3.3-5.4 3.7-10.8 7.2-16.2 10.8-4 3.2-7.6 6.8-11.8 9.7-2 1.4-3.9 3.3-6.5 1.2 9.1-11.4 20.7-19.5 34.1-25" style="fill:#090e17"/><path d="m1342.9 431c4.2-.2 7.1 2.4 8.8 5.5 4 7.6 10 13.4 15.9 19.5 6.7 6.9 11.3 15.3 15.5 23.9-3.9-3-5.7-7.5-8.3-11.5-2.1-3.3-3.1-7.9-8.2-8.4-1.6-1.7-3.2-3.4-4.7-5-4-3.9-6.3-9.6-12-11.8-3.2-3.5-4.6-8.2-7-12.2" style="fill:#122135"/><path d="m1351 384c2.9 2.2 5.4.6 7.6-1.2 3.5-2.9 5.7-6.8 7.9-10.7 1.9-3.3 3.4-7.5 8.5-7.1-3.8 8.4-8.8 16-15.6 22.3-3.8 3.5-8.3 2.6-12.7 2.5 1.1-2.1 2.3-4.2 4.3-5.8" style="fill:#1a3f52"/><path d="m1343.8 393.9c3.5-.1 6.8.7 7.8 4.5.9 3.5-.5 6.5-3.3 8.6-4.6 3.5-7-.9-10-3.1 1.8-3.2 3.6-6.6 5.5-10" style="fill:#1c697e"/><path d="m1384.7 347.9c6.4 0 9.5-5.5 14.2-8.4 1.4-.8 2.2-2.6 4.1-2.5-3.3 4.8-8.2 7.9-12.4 11.7-.8.7-1.5 1.2-1.6 2.3-.9 1.8-2.9 1.9-4.3 2.9-2 0-4.3 2.5-5.7-.9 1.8-1.7 3.8-3.4 5.7-5.1" style="fill:#0d1627"/><path d="m1349.8 443.3c.5-.8 1.2-1.4 2-.8 4.1 3.6 8.3 7.1 10 12.6-4.6-3.3-9.4-6.4-12-11.8" style="fill:#0b182e"/><path d="m1378.9 352.9c2 1.7 4-.6 6-.1 1.7-.2 3.1-1.6 5-1.2.4.4.5.8.1 1.3-1.4.4-2.7.7-4.1 1.1-1.6 2-4 1.1-6 1.8-1.4 0-2.7 0-4.1 0 1-1 1.7-2.3 3.1-2.9" style="fill:#276371"/><path d="m1444.9 337c-2 0-4 0-5.9 0-4.4 2.4-7.2 6.5-10.8 9.8-1 1-1.5 3.3-3.7 1.9-.7-1.2-.8-2.5-.6-3.8 4.4-7 10.4-11.5 18.8-12.3 2.8.3 5.8-.9 8.3 1.4-1.4 2.3-5.3-.7-6.1 3" style="fill:#213f55"/><path d="m1451 334.1c-3 0-6-.1-9-.1-.3-.5-.3-.9.2-1.4 1.6-1.1 3.5-.9 5.3-1 7.6-.3 13-4.1 16.6-10.6.3 0 .7 0 1 0 0 1.6 0 3.3 0 4.9-1.3 1.7-2.7 3.3-4 5-3.3 1.4-6.2 4.1-10.1 3.2" style="fill:#3a6e5a"/><path d="m1428 509c.1 2.6.4 5.6-2.7 6.7-2.6.9-4.8-.4-6.3-2.6 6.7-1.4 4.3-6.7 4.6-10.8-.2-5.2-1.4-10.2-2.1-15.3-1.3-8.8-.2-17.5.1-26.3.2-6.6-.7-7.6-7-9.5-4.4-1.3-6.6-4-6.9-8.7-.2-4.3-.1-8.6 0-13 0-.9.1-1.7.4-2.5.9-3 1.7-5.9 1.7-9.1 0-1.6 0-3.4 1.9-4.1.7.2.8.6.4 1.2.3 5.7-.5 11.2-1.7 16.7-.9 4.1-.5 8.3 1 12.2 1 2.6 3 5.3 6.2 4.9 4.9-.5 6.4 2.4 7.6 6.1.5 7.1-1.2 14.1-1.1 21.3.1 9.1.7 18.1 3.4 26.9.3 2 .5 3.9.5 5.9" style="fill:#1f3346"/><path d="m1412 415c0-.3 0-.7 0-1-1.8-2-1.1-4.3-.7-6.6 1.3-7.8 3.1-15.5 4.4-23.3.1-5 2.4-9.4 4.5-13.6 2.5-5.1 3.9-10.2 3.5-15.8-.1-1.9-.3-4 1.4-5.6 3.2-3.4 6.5-6.8 9.7-10.2 1.2-1.3 2.5-2 4.3-1.8-.4.5-.7 1.2-1.2 1.6-7.7 5.6-11.1 13-10 22.7.5 4.1-1.7 8.3-3.7 11.7-6.5 10.9-7.7 23.1-10.1 35.1-.6 2.2-.7 4.7-2.1 6.8" style="fill:#1e2e45"/><path d="m1446.7 398c7 0 10.4 3 10.3 8.9-.1 5.5-5.1 10-11.3 10-5.3.1-10.8-5-10.8-10.1.1-6 3.9-8.9 11.8-8.8" style="fill:#2b523a"/><path d="m1412 503c-6-2.3-9.4-7.6-13.4-12.1-11.7-13.4-19.3-29.6-28.8-44.5-4.5-7.1-5.3-15.3-5.7-23.4-1-17 1.9-33.1 10.6-48.2 4.2-7.2 9.9-12.7 15.1-18.8.9-1 1.1-1.9 1.1-3.1 1.3-1.2 2.8-1.3 3.9 0 1.3 1.4.1 2.8-.7 4-2.7 4-6.4 7.1-9.3 11-8.6 12.2-12.9 26-13.5 40.7-.4 9.4-1.1 19 .9 28.4 2.3 11 9.1 19.9 13.8 29.8 6 12.3 15.6 21.9 24.5 32 .8 1.3 2.1 2.5 1.5 4.2" style="fill:#276371"/><path d="m1384 367c2.9-3.5 5.9-6.9 8.8-10.4.7-.8 2.2-1.5 1.6-2.7-.6-1.5-2.3-.7-3.5-.9-.3 0-.7 0-1 0 0-.3 0-.7 0-1 1.8-1.3 3.6-2.5 5.8-3.1 1.6-.2 3.3-.4 4.6-1.6 5.1-5 10.9-9.2 16.6-13.6 2.4-1.9 4.7-3.5 7.6-4.5 3.7-1.3 6.5-3.9 9.5-6.3 2-1.6 3.5-4.6 6.9-3.8.7 0 1.4 0 2 0 .3 1-.2 1.6-.9 2.1-3.7 2.9-4.4 6.3-1.8 10.3-.1.5-.4.9-.8 1.2-12.2 1.5-17.4 10.7-22.5 20.1-1.3 2.4-1 5.2-.4 7.8 1.1 4.9.3 9.6-2.1 14-2.5 4.6-3.8 9.5-4.6 14.6-.1.5-.2 1-.4 1.5-2.1 3.5-.8 8.4-4.7 11.1-.8.1-1.6 0-2.2-.5-1.7-2.7-.9-5.4-.4-8.2 1.4-7.2 3.9-14.1 6.6-20.9 1.4-3.5 1.9-7 1-10.8-.7-3.3-.5-6.6.6-9.9.4-1.2 1.1-2.5 0-3.9-7.3 2.6-11.9 8.2-15.9 14.4-1.8 2.8-3.8 5.1-7 6-1 .2-2.3.1-3.4-1" style="fill:#296c7f"/><path d="m1425 349c1.7 10.7-2.2 20-6.7 29.3-.9 1.8-1.5 3.7-1.3 5.7-2.5 7.2-3.7 14.6-5.1 22.1-1.3 6.9-1.9 14-2.9 20.9 0 .7 0 1.3 0 2-1.7 5.2-1.3 10.5-.5 15.7.6 3.6 2.5 6.2 6.6 7 5.5 1.1 7 3.1 6.8 8.6-.6 11.4-.7 22.8 1.1 34.1.4 2.9.8 5.9 2 8.6 0 1.8 0 3.6 0 5.4 0 5.6-.4 5.9-6 4.6-6.2-3.6-12.2-7.6-16-14 3.5 1.7 5.9 4.8 9 7 .3-.1.7-.3 1-.2 7.4 1.9 7.4 1.8 6.2-5.7-1.3-8.2-1.8-16.5-1.6-24.9.1-2.8.3-5.7-.1-8.5-.6-3.9-1-7.5-5.8-9.4-5.3-2.1-7.6-7.5-7.9-13-.4-7 .2-13.9 1.1-20.9 1-7.3 2.3-14.7 2.7-22.2 0-1.4.1-2.8.6-4.1 3.5-10.9 7.3-21.6 11.1-32.4 1.1-3.1.3-6.6-.1-9.9-.7-5 1.5-8.5 5.8-9.8 0 1.3 0 2.7 0 4" style="fill:#24495f"/><path d="m1409 401c-1.1 8.7-2.1 17.3-3.2 26-1 8-2.3 16 1.3 23.8 1.1 2.3 2.6 4.9 4.9 5.3 6.5 1.3 6.6 6.4 6.9 11 .6 9.3-.4 18.6 1 27.8.4 2.8 1 5.5 1.2 8.3.2 1.8 1.2 3.7-.6 5-2.1 1.5-4.1.4-6-.7-.9-.5-1.6-1.1-2.5-1.7 0-.7 0-1.3 0-2 6.2-1 6.3-1.1 5-7.5-1.6-7.8-1.8-15.8-1.4-23.7.2-3.2-.5-6.3-1.2-9.4-.3-1.3-.9-2.4-2.3-3-7.8-3.4-9.6-10.5-10.3-18-.9-9.7.9-19.2 2.5-28.7.5-3.1.1-6.3 1.4-9.3.5-1.4.7-3.4 3.3-3.2" style="fill:#275b70"/><path d="m1409 401c-2.7 1.2-2.5 4.1-2.7 6-.8 11.5-4.4 22.8-3.3 34.5.7 7.5 1.8 14.5 10.3 18.1 4.1 1.7 3.6 7.3 3.5 11.2-.1 9.4-.1 18.7 2 27.9.5 2.1 1.1 4.8-1 6.6-2.3 1.9-3.7-1.6-5.8-1.3 0-.3 0-.7 0-1-.7-1-1.3-2-2-3 5.8-1 5.8-1 4.8-7.3-1.3-8-2.6-16.1-2.3-24.3.1-3-.9-5.6-3.6-7.2-5.6-3.3-7.6-8.6-8.2-14.6-1.4-13.8.2-27.5 2.5-41.1.3-1.6.5-3.3 1.8-4.6 2.3-3.3 1.4-7.8 4-11 1.6 2.3 1.2 4.7 0 7 0 1.4 0 2.8 0 4.1" style="fill:#286176"/><path d="m1385 477c-3.8-1.9-4.7-6-6.4-9.3-5.2-10.1-14.1-17.2-20.4-26.2-4.8-6.9-9.9-13.1-17.7-16.9-2.1-1-2.6-3.3-2.5-5.6 6.7 2 13.2 4.6 16.8 10.8 5.8 10.1 13.4 18.9 19.9 28.5 3.9 6 8.3 11.7 10.3 18.7" style="fill:#1d4556"/><path d="m1379.9 355.9c1.8-1.2 3.8-1.9 6-1.8-2.2 5.1-6.4 8.2-10.9 10.9.2-4 1.7-6.9 5.8-8.1.1 0 .2-.2.3-.3-.4-.2-.8-.5-1.2-.7" style="fill:#1a3f52"/><path d="m1441 319c-4.1 1.6-6.2 6-9.9 7.9-11.4 5.7-21.4 13.1-30.4 22-1.4 1.3-3 1.1-4.6 1.1-.6-2.5 1.5-3.5 2.9-4.7 3.3-2.9 6.3-6.1 10.2-8.3 9-6.3 17.8-12.9 27.7-17.8 1.4-.7 2.7-1.3 4.3-1.2-.2.3-.2.6-.2 1" style="fill:#225866"/><path d="m1440 331c-4.6-2.7-2.7-5.9-.5-8.9.9-1.3 2.4-2.1 3.6-3.2 4.8-2.5 9.9-2.4 15-1.8 2.1.3 4 1.6 4.9 3.8-.5 2.3-.1 5.3-3.8 5.3-1.7-1-1.3-4.1-4-4.1-2.5-.8-5-1-7.5-.9-5.7 1.1-7 3-5.5 8.6.1.5 0 1-.3 1.4-.7.4-1.3.4-1.9-.2" style="fill:#379c97"/><path d="m1440 331c.7 0 1.4-.1 2-.1.6-.7 1.4-1.1 2.2-1 5.5.5 10.3-1.2 14.9-3.9 2.8-.5 2.6-3.4 3.9-5 .3 0 .7 0 1 .1-1.5 8.8-8.7 11-17.1 11.9-1.6.2-3.3 0-5 0-.3.3-.6.4-1 .3-.6-.3-.9-.7-1-1.3.1-.3.1-.6.1-1" style="fill:#468467"/><path d="m1409 337c-3.8 4.9-9.6 7.7-13 13-2 .7-4 1.4-6 2.1-1.7.3-3.4.6-5.1.9 1.1-1.1 2.5-1.7 4-1.9 6.1-2 9.6-7.6 14.6-11.1 1.8-1.4 3-3.4 5.5-3" style="fill:#1a3d4e"/><path d="m1441 333c.3 0 .7 0 1 0 0 .3 0 .7 0 1-7.6.7-12.7 5.3-17 11-3.6 2.8-5.6 6-4.2 11.1 1.9 7.1-1.7 13.5-4 19.9-2.3 6.4-5 12.6-6.1 19.3-.1.6-1.1 1.1-1.7 1.7 0-2.3 0-4.7 0-7 1.8-6.2 3.8-12.3 6.5-18.2 1.9-4.2 2.6-8.9 1.6-13.6-.9-4.3.1-8.2 2.8-11.7 3.3-4.4 7.2-8.3 11.4-11.8 2.7-2.5 6.2-2.7 9.7-1.7" style="fill:#265872"/><path d="m1425 503c-3.1-2.3-2.5-6-2.9-9.1-1.4-10.9-1.5-21.8-1.1-32.7.2-4.9-1.2-7.9-6.7-8.4-3.1-.3-5.1-2.1-5.9-5.7-1.4-6.2-3.1-12.2.6-18.2 0 4.3 0 8.7 0 13 0 4.6 1.9 7.5 6.8 8.1 4.9.6 7.1 3.7 7.2 8.6.1 4.8-.7 9.6-.9 14.4-.4 8.3 1 16.5 2.4 24.6.2 1.8.5 3.6.5 5.4" style="fill:#1f3449"/><path d="m1409 427c-.3-14.1 3.4-27.6 6.3-41.3.1-.7 1.1-1.1 1.7-1.7-1.5 7.9-2.8 15.8-4.4 23.6-.4 2.1-.5 4.2-.6 6.4-2.1 4.1 0 9.1-3 13" style="fill:#1f3449"/><path d="m1446.2 414c-5 0-8.8-2.9-8.9-6.7-.1-3.5 4.8-7.4 9.3-7.3 4.9.1 8.5 3.2 8.4 7.3-.2 4-3.6 6.7-8.8 6.7" style="fill:#579655"/><path d="m1405 401c-1.1 9.5-2.6 18.9-3.2 28.5-.4 7.8-.6 15.8 1.7 23.4.9 3.1 2.7 5.6 6 6.9 3.4 1.4 4.8 4.1 4.6 8-.5 9 1 17.8 2.5 26.5.4 2.4 1.4 5.1-.8 7-2.2 2-3.7-1.6-5.8-1.3-2.8-4-6.2-7.4-9.5-10.7-9.9-10.1-15.4-23-22.4-34.8-10.9-18.4-9-37.7-6.2-57.4 1.5-11 5.8-21 12.2-30 1.3 0 2.7 0 4 0 1 2.3 0 4.4-1.3 6.1-6.1 8.2-8.4 17.7-9.8 27.4-2 14.2-2.9 28.4 1.3 42.5 1.3 4.3 3.5 7.9 5.6 11.6 4.9 8.5 9.4 17.2 15.1 25.2 3 4.2 6.8 7.5 11 10.8.1-8.1.2-15.9-1.8-23.7-.2-.8-.8-1.5-1.5-2-8.8-6.6-9.9-15.8-9.3-25.9.4-6.1-.6-12.2.2-18.4.9-6.1 2.4-12.1 3.5-18.1.2-1 .6-1.9 2-1.7.6.1 1.2.1 1.9.1" style="fill:#2b6c7e"/><path d="m1403 401c-1.6 6.4-2.8 12.8-4.1 19.2-1.6 7.9-.2 15.8-.4 23.6-.3 7.5.9 16.2 9.7 20.3 2.8 1.3 1.8 4.1 2 6.2.8 6.6 1.3 13.2 1.8 19.7.1 1.1.2 2.6-1.1 3.1-1.4.6-2.4-.5-3.4-1.4-10.2-10-16.4-22.7-24-34.5-9-13.9-10.3-29.2-9.3-44.9.7-12.1 2.7-24.1 8.1-35.1 1.7-3.5 4.9-6.2 5.8-10.2 5.8-2.9 7.6-9.3 11.7-13.7 3.2-3.4 7.6-4.7 10.8-7.8 1-.9 2.3-.2 2.4 1.3.2 1.7.2 3.3-.8 4.8-1.7 2.8-1.8 6-1 8.7 2.2 6.8-.8 12.5-3.1 18.2-3 7.3-4.9 14.7-5.1 22.5" style="fill:#2f7585"/><path d="m1441 333c-12.9.1-24.6 14.2-22.2 26.8.9 4.4-.9 8.3-2.5 12-2.5 6.1-3.9 12.6-7.4 18.2 0-5.6 1.8-10.7 4.3-15.6 2.4-4.6 3.5-9.2 1.9-14.4-1-3.2-.1-6.4 1.4-9.6 3.3-7.1 9-12.1 14.6-17.2 2.5-2.3 5.8-.9 8.6-1.2.6.3.9.7 1.3 1" style="fill:#286176"/><path d="m1446.9 320.1c3.2-.4 6.3-.2 9.3 1 2.4 3.7.3 7.9-4.4 8.8-1 .2-2 .1-3 .1-2.8 0-6 .4-6.7-3.4-.7-3.7 1.8-5.4 4.8-6.5" style="fill:#6cf0c1"/><path d="m1446.9 320.1c-1 .8-2.1 1.6-3 2.6-1.3 1.4-1.2 3.1-.6 4.7.6 1.4 1.9 1.5 3.3 1.7 6.8.7 10.7-2.6 9.5-7.9 3.4.2 2.7 2.8 3 4.9-4.3 6.5-10.9 5-17.1 4.9-3.8-5.5-1.9-9.6 4.9-10.9" style="fill:#5bc193"/><path d="m1451 406.9c.3 3.2-1.5 4.2-4.5 4.2-3 0-5.3-.9-5.5-4.2-.2-3.5 2.5-3.7 5-3.9 2.8-.2 5.1.2 5 3.9" style="fill:#81d569"/></g></g></svg>