<?xml version="1.0" encoding="utf-8"?>
<!-- Generator: Adobe Illustrator 18.0.0, SVG Export Plug-In . SVG Version: 6.00 Build 0)  -->
<!DOCTYPE svg PUBLIC "-//W3C//DTD SVG 1.1//EN" "http://www.w3.org/Graphics/SVG/1.1/DTD/svg11.dtd">
<svg version="1.1" id="Layer_1" xmlns="http://www.w3.org/2000/svg" xmlns:xlink="http://www.w3.org/1999/xlink" x="0px" y="0px"
	 viewBox="0 0 221.4 314.1" style="enable-background:new 0 0 221.4 314.1;" xml:space="preserve">
<style type="text/css">
	.st0{fill:#094577;}
	.st1{fill:#0F9CCA;}
	.st2{fill:#0FCDEE;}
	.st3{fill:#011256;}
	.st4{fill:#033B82;}
	.st5{fill:#0BB8DE;}
	.st6{fill:#055A97;}
	.st7{fill:#0A6EA9;}
	.st8{fill:#012269;}
	.st9{fill:#023177;}
	.st10{fill:#0DB0DC;}
	.st11{fill:#099FCE;}
	.st12{fill:#0C84BB;}
	.st13{fill:#0982BB;}
	.st14{fill:#0FE5FD;}
	.st15{fill:#0A779A;}
	.st16{fill:#10FAFD;}
	.st17{fill:#0FCFD4;}
	.st18{fill:#0DB4C8;}
	.st19{fill:#0AD9F4;}
	.st20{fill:#0C97BB;}
	.st21{fill:#10D0D4;}
	.st22{fill:#15E1E5;}
	.st23{fill:#0ECBE9;}
	.st24{fill:#0A8EAA;}
	.st25{fill:#1AFBF8;}
	.st26{fill:#0A5D8C;}
	.st27{fill:#32FBF7;}
	.st28{fill:#0FD8F6;}
	.st29{fill:#0ABCD6;}
	.st30{fill:#12CDE6;}
	.st31{fill:#000D43;}
	.st32{fill:#099EC8;}
	.st33{fill:#031047;}
	.st34{fill:#11BFDF;}
	.st35{fill:#117E9C;}
	.st36{fill:#0E5A82;}
	.st37{fill:#0C7092;}
	.st38{fill:#143A5C;}
	.st39{fill:#12A8B7;}
	.st40{fill:#2A4159;}
	.st41{fill:#1ABBC1;}
	.st42{fill:#1C8290;}
	.st43{fill:#0882AB;}
	.st44{fill:#279CB7;}
	.st45{fill:#112143;}
	.st46{fill:#388298;}
	.st47{fill:#39CEE0;}
	.st48{fill:#6DBFDA;}
	.st49{fill:#3A6E85;}
	.st50{fill:#374C76;}
	.st51{fill:#486185;}
	.st52{fill:#17203D;}
	.st53{fill:#809ABA;}
	.st54{fill:#7FB3CA;}
	.st55{fill:#0A6186;}
	.st56{fill:#046085;}
	.st57{fill:#0B638B;}
	.st58{fill:#0B7DB3;}
	.st59{fill:#16B9DD;}
	.st60{fill:#13A9D1;}
	.st61{fill:#005B95;}
	.st62{fill:#16E3FD;}
	.st63{fill:#31F0FC;}
	.st64{fill:#2E82BA;}
	.st65{fill:#014A89;}
	.st66{fill:#217EBC;}
	.st67{fill:#41FBFC;}
	.st68{fill:#2AFAFA;}
	.st69{fill:#2FF4FC;}
	.st70{fill:#0BAEBA;}
	.st71{fill:#0B90AD;}
	.st72{fill:#1E86AD;}
	.st73{fill:#2898BA;}
	.st74{fill:#4CFCFB;}
	.st75{fill:#72FCFB;}
	.st76{fill:#76FCFD;}
	.st77{fill:#9CFBFE;}
	.st78{fill:#73FCFD;}
	.st79{fill:#23F9F5;}
	.st80{fill:#35F9FA;}
	.st81{fill:#18E7E4;}
	.st82{fill:#38FCFC;}
	.st83{fill:#0AA4BB;}
	.st84{fill:#53FCFB;}
	.st85{fill:#C1FBFD;}
	.st86{fill:#19E0FA;}
	.st87{fill:#14D0F0;}
	.st88{fill:#6FFDFC;}
	.st89{fill:#07BCD9;}
	.st90{fill:#1FFAFB;}
	.st91{fill:#1EC9DD;}
	.st92{fill:#0ADDEC;}
	.st93{fill:#8FFCFD;}
	.st94{fill:#18F5F7;}
	.st95{fill:#32EAFA;}
	.st96{fill:#57F2F9;}
	.st97{fill:#000A36;}
	.st98{fill:#1B4477;}
	.st99{fill:#11D9D5;}
	.st100{fill:#0EA9D0;}
	.st101{fill:#14B9C2;}
	.st102{fill:#0F92AA;}
	.st103{fill:#1DC9D7;}
	.st104{fill:#03275D;}
	.st105{fill:#08447A;}
	.st106{fill:#0A95BF;}
	.st107{fill:#075B8C;}
	.st108{fill:#087DAB;}
	.st109{fill:#05548D;}
	.st110{fill:#0A6EA7;}
	.st111{fill:#076DA1;}
	.st112{fill:#2ECAE9;}
	.st113{fill:#5BF7FC;}
	.st114{fill:#1DBDC9;}
	.st115{fill:#0A7AAA;}
	.st116{fill:#21F6FC;}
	.st117{fill:#35F1FC;}
	.st118{fill:#46FBFD;}
	.st119{fill:#04184B;}
	.st120{fill:#052C6E;}
	.st121{fill:#22A1CA;}
	.st122{fill:#94FDFD;}
	.st123{fill:#0ED3D6;}
	.st124{fill:#43F0F2;}
	.st125{fill:#15F7EF;}
	.st126{fill:#13EEE6;}
	.st127{fill:#8BFDFE;}
	.st128{fill:#28F6FC;}
	.st129{fill:#D5FCFC;}
	.st130{fill:#78F8FD;}
	.st131{fill:#65FBFD;}
	.st132{fill:#20DDDB;}
	.st133{fill:#18B6C0;}
	.st134{fill:#043C62;}
	.st135{fill:#49ABC7;}
	.st136{fill:#218096;}
	.st137{fill:#147198;}
	.st138{fill:#7CFBFC;}
	.st139{fill:#1BA7B8;}
	.st140{fill:#1C93A7;}
	.st141{fill:#206571;}
</style>
<g id="ForeRightUp.svg">
	<path class="st0" d="M0.1,300.1c1-2.9,2.6-5.5,4.6-7.6c4.3-4.4,5.1-9.3,3.6-15.1c-2.1-7.9-2-15.7,2.8-23c1.5-2.3,1.9-5.2,2.3-8
		c1.2-8.9,3.4-17.5,9.7-24.4c3.3,0.3,2.4,3,2.5,4.9c0.3,5.7-3,10.3-4.9,15.4c-0.7,2-2.1,3.8-1.9,6c0.7,3.9-1.8,7.3-2.1,11.1
		c-0.5,6.6,1.1,12.7,3.6,18.8c2.1,5.1,2.4,10.2-1.2,15c-0.4,2.5-1.1,4.9-3.4,6.4c-0.3,0.2-0.6,0.3-0.9,0.4c-1.4,0.6-3.9,0.8-3.4,2.7
		c0.6,2.3,2.7,0.2,4.1,0.3c0.6,0.1,1.3-0.1,1.9-0.2c3.9,0,7.7-1.6,11.6-1c2.2,0.3,4.7,0.1,5.2,3.2c-5.1,4-11,6.6-17,9.1
		c-2.3,0-4.7,0-7,0C1.9,311.2-0.6,307.8,0.1,300.1z"/>
	<path class="st1" d="M221.3,42.1c0,6,0,12,0,18c-2.8,1.4-4-0.9-5.1-2.5c-2.5-3.5-4.7-7.2-6.6-11.2c-1.1-2.4-2.8-3.2-5.2-2.1
		c-2.1,0.9-4.4,0.8-6.3-0.1c-5.1-2.2-9.5-1.7-13.2,2.6c-5.9-1.8-11.3-0.5-16.7,2c-2.1,1-4.6,0.7-6.9,0.6c-3.7-0.1-7.4,0.3-10.8,1.7
		c-3.6,1.5-6.8,1.1-9.6-1.7c-1.6-2.1-5.2-2.9-4.6-6.5c5.8,0.2,11.3-2.7,17.4-0.1c3.8,1.6,7.5-1.9,10.4-4.7c2.3-2.2,4.5-4.4,7-6.3
		c3.7-2.9,6.7-2,9.4,2c2.1,3.3,5.8,2.7,9,1.9c1.5-0.3,3.1-1.2,4.7-2.4c-4.1-1.9-7.8-3.9-12.4-2.4c-1.5,0.5-3.6,0.5-4.6-1
		c-1.7-2.6-4.3-3.5-6.9-4.6c-0.9-0.4-2.5-0.7-1.5-2.4c0.1-0.2,0.5-0.1,0.7-0.4c-2-1.1-2-1.1,0.2-2.6c1.5-0.2,3.1-0.1,4.6,0.2
		c6.4,2.1,13,3.4,19.2,5.9c4.4,2.2,8.7,4.2,13.7,5.3C212.9,32.7,217.5,37.2,221.3,42.1z"/>
	<path class="st2" d="M182.4,125.2c-1.8,0.2-3.6,0.7-5.3,0.5c-4.3-0.3-7.2,1.2-8.8,5.3c-2.4,0.7-3.4-0.9-4.3-2.7
		c-0.1-0.5-0.1-0.9,0.1-1.4c3-2.8,6.3-5.4,9.6-7.8c11.3-8.3,20.9-18.3,30.2-28.7c2.4-2.7,3.9-5.7,4.9-9.1c0.1-0.5,0.1-1.1,0.4-1.4
		c5.8-5.1,1.1-10.9,0.9-16.3c0-0.7-0.3-1.4-1-1.5c-6.5-1.4-10-8.3-16.8-9.3c-1.3-0.7-2.6-1.4-3.8-2.4c-0.6-0.7-0.6-1.4,0.3-2
		c4.2-1.3,8.4-2.1,12.8-1.4c4.8,0.5,7.7,2.9,10,7.5c2.8,5.4,5.7,10.8,9.7,15.6c0,3.3,0,6.7,0,10C211.2,97.6,197.9,112.4,182.4,125.2
		z"/>
	<path class="st3" d="M88.1,4c1.4-1.3,2.8-2.6,4.2-3.9c16,0,32,0,48,0c0.9,3.1-1.5,5-3.2,6.8c-3,3.3-4.8,7-4.7,11.5
		c-1.9,1.8-4.3,2.4-6.9,2.5c-1.7-0.4-3.3,0.1-4.9,0.5c-2.7,0.7-5.2,0.6-5.4-3c-0.1-1.8-1.2-1.2-1.9-1.2C102.9,16.8,95.3,10.8,88.1,4
		z"/>
	<path class="st4" d="M191.3,0.1c9.2,0,18.3,0.1,27.5-0.1c2.2,0,2.7,0.4,2.6,2.6c-0.2,4.5-0.1,9-0.1,13.5c-3.7,2.1-6.8-0.2-9.9-1.5
		c-9.2-4-18.8-3.6-28.4-2.4c-6.3,0.2-12.6,2.3-19,0.9c-3.7-2.5-1.3-3.6,1.1-4.4c8.1-2.7,15.6-7.3,24.4-7.6
		C190.2,0.9,190.8,0.5,191.3,0.1z"/>
	<path class="st5" d="M182.4,125.2c-0.1-3.4,3.3-3.9,5.1-5.6c11.4-11.1,22.5-22.4,30.4-36.3c0.7-1.3,1.4-3.2,3.5-3.2
		c0,4.3,0,8.7,0,13c-8.6,11.3-17.3,22.6-28.1,32C189.6,127.7,186,124.7,182.4,125.2z"/>
	<path class="st6" d="M183.3,11c9.4-1.7,18.6-2,27.6,1.8c3.3,1.4,6.7,2.9,10.4,3.2c0,3,0,6,0,9c-2.4,1.9-4.7,0.4-6.9-0.4
		c-6.9-2.6-13.8-5.7-21.4-5.2c-5.2-0.4-10.3-0.7-15.4-1.9c-1.4-1.6-0.7-3.1,0.3-4.5c2.7-1.8,5.7-0.5,8.3-1
		C185.3,12,184.1,12.1,183.3,11z"/>
	<path class="st7" d="M193.3,18.1c7.6-0.7,14.2,2.5,21,5c2.3,0.8,4.4,2.3,7.1,2c0,3,0,6,0,9c-0.9,0.8-1.9,0.7-2.7,0.2
		c-7.6-5.3-16.5-6.1-25.3-7.1c-6.4-2-12.7-4-19.1-5.9c2.3-4,6.5-1.6,9.6-2.8C186.9,17.4,190.2,20.1,193.3,18.1z"/>
	<path class="st8" d="M132.3,17.8c-1.9-3.2-0.8-6,1.4-8.6c2.5-2.9,5-5.7,6.7-9.2c8,0,16,0,24,0c0.4,3.2-2.2,4.1-4.2,5.4
		c-3.2,2-6.9,3.2-10,5.3c-1.3,0.9-3.7,1.4-1.9,4C143.1,16.9,138,19,132.3,17.8z"/>
	<path class="st9" d="M148.3,14c-0.3-0.9-3.6-0.8-0.7-3c3.3-2.5,7.2-4,10.8-6c2.4-1.3,4.6-2.6,5.9-5c9,0,18,0,27,0
		c-0.9,2.3-3.3,2.7-5,2.7c-8.4,0.3-14.9,6.3-23,7.5c-0.7,0.1-0.2,1.1,0,1.7C158.6,15.4,153.6,15.7,148.3,14z"/>
	<path class="st10" d="M221.3,70.1c-1.5,0-2.8-0.7-3.2-1.9c-2.2-5.7-7.2-9.8-8.8-15.7c-1-4-4.9-2.5-7-4.3c-3-1.6-6.7-1.2-9.6-3.2
		c-1.5-1-2.2,0.7-3.2,1.5c-2.1,1.8-2.1,1.7-4.2-0.3c2.1-4.9,5.4-5.9,10.3-3.9c3.1,1.3,6.3,2.2,9.8,0.2c1.9-1.1,4.1-0.3,5,2.5
		c1.4,4.4,4.4,8.1,6.8,12.1c1,1.6,2,3.1,4.1,3.2C221.3,63.4,221.3,66.7,221.3,70.1z"/>
	<path class="st11" d="M193.2,125c-0.9-1.1,0-2,0.6-2.5c9-7.7,16.7-16.4,23-26.4c1-1.6,2.8-2.3,4.4-3.1c0,3.3,0,6.7,0,10
		c-3.9,4.5-8.6,8.3-10.9,14.1C204.7,119.8,198.9,122.4,193.2,125z"/>
	<path class="st12" d="M193.3,27.1c9-1.9,16.9,0.9,24.5,5.3c1.1,0.6,2,1.8,3.5,1.7c0,2.7,0,5.3,0,8c-2.2-0.9-3.8-2.6-5.6-4
		c-3.8-3-7.3-6.3-13-6.2C199.2,31.9,196.2,29.2,193.3,27.1z"/>
	<path class="st13" d="M210.4,117.1c-2.2-2.4,0.8-3.5,1.6-4.9c2.2-3.9,5-7.4,9.4-9.2c0,3,0,6,0,9C218,114.5,214.2,115.7,210.4,117.1
		z"/>
	<path class="st14" d="M123.4,171.2c-2.8,2.6-5.6,5.2-8.3,7.7c-3.4-2-1.7-4.6-0.6-6.8c2.5-5.1,5.9-9.6,9-14.3
		c1.2-1.8,2.4-3.6,3.2-5.6c0.6-1,1.5-1.8,2.2-2.7c1-2.9-1.9-1.8-2.9-2.6c-2.2-1.6-6-1.8-5.6-5.4c0.4-3.9-0.2-8.6,4.7-10.7
		c4.9-2.5,11-2.8,14.7-7.8c0.4-0.5,1.1-0.9,1.7-0.9c4.7,0.1,8-2.7,11.5-5.3c1.6-1.2,3.8-2.9,5.1,0.7c0,0.7-0.1,1.3-0.4,1.9
		c-2.2,5.1-2.2,5.1,3.4,6c1.7,0.3,2.7,1.1,3.3,2.6l0,0.1c-1.2,5.6-4.4,8.7-10.9,8.6c2.6,0.7,6-0.5,4.9,3.7c-2.4,1.2-4.9,1.7-7.6,1.4
		c-4.6-2.1-9.2-0.1-13.8,0c-1.7,0.9-4.1-0.5-5.3,1.6c5.6,4.4,5.5,4.4,1.8,11.3c-1.9,3.5-4.3,6.7-6.7,9.9
		C125,166.6,123.8,168.7,123.4,171.2z"/>
	<path class="st15" d="M49.1,274.1c0.2,7.4,0.7,14.8-2,22c-1.8,1.5-3.6,2.7-6,1.6c-2.2-1.5-4.6-1.5-7.1-0.9c-2.3,0.5-4.5,0.9-6.7,0
		c-1.3-1.8-5.1-0.4-4.9-3.9c3-0.4,6-0.2,9-0.1c-2.3-0.2-4.6,0-6.9-0.2c-0.6-0.4-1.1-0.9-0.9-1.6c1.7-6.6-1.4-12.1-3.7-18
		c-4.4-11.3-4.3-22.7,3.5-32.9c0.4-0.3,0.9-0.5,1.5-0.6c0.8-0.1,1.6,0,2.2,0.5c0.9,1.5-0.3,2.3-1.1,3.2c-2.8,3.4-2.9,7.7-4.1,11.6
		c-0.4,1.4-0.3,3.2,1.2,4c1.7,1,2.7-0.6,3.8-1.6c0.6-0.6,1.1-1.2,1.7-1.9c1.3-1.4,2.5-3.6,4.9-2c2.1,1.4,3,3.6,1.9,6.1
		c-0.5,1.2-0.8,2.5-1.2,3.8c-0.1,0.5-0.3,0.9-0.6,1.3c-3.4,8.1-1.1,15.6,5.9,19.9c1.9,1.2,3.1,0.4,4.1-1.2c1-1.6,1.1-3.5,1.7-5.2
		C46,276.1,46.5,274,49.1,274.1z"/>
	<path class="st16" d="M127.3,152.1c0.6,5.2-4.4,7.4-6.2,11.5c-1.4,3.3-3.9,6.2-5.7,9.3c-1.1,1.9-1.9,4-0.3,6.1
		c-1.3,1.7-2.6,3.4-3.8,5.1c-3.1,1.9-4.5-0.5-5.9-2.5c-1.2-1.7-1.9-3.9-4.3-4.5c-0.4-0.2-0.8-0.6-1.1-1c-1.4-5.2,1.5-9,4.5-12.7
		c0.8-1.2,1.6-2.5,2.7-3.5c0.4-0.3,0.9-0.5,1.3-0.7c0.7-0.2,1.5-0.3,2.2-0.4c2.9-0.8,4.7-3,6.6-5
		C120.2,150.5,123.5,149.8,127.3,152.1z"/>
	<path class="st17" d="M102.3,218.1c0.7,6-0.8,11.3-4.8,16c-1.9,2.2-3.5,4.7-5.2,7.1c-1.7,0.7-3,2-4.7,2.9c-2.5,1.3-5.1,1.9-7.3-0.5
		c-1.8-2.1-3.8-1.7-5.8-0.5c-3.5,2-7.3,3.3-10.8,5.1c-2.7,1.4-5.6,2.1-8.5,0.3c0.1-3,2.8-2.3,4.4-3.2c5.6-0.8,8.9-5.6,13.6-8
		c1.5-0.4,2.8-1,3.9-2.1c2.7-2.7,5.8-3.6,9.5-1.8c2.7,1.3,5.4,0.1,4.4-2.9c-2.5-7.7,1-11.1,7.7-13
		C100,216.9,101.2,217.1,102.3,218.1z"/>
	<path class="st18" d="M55.2,248c6.6,1.2,11.5-3.3,17.1-5.3c3.4-1.3,6.7-5.4,9.8,0.8c0.8,1.5,3.2,0.4,4.9-0.4
		c1.7-0.8,2.7-3.8,5.4-1.9c-1,2.8-2.5,5.2-5.1,6.7c-6.6,4-13,8.5-20.5,10.7c-0.9,0.3-1.8,0.8-2.8,1c-1.4,0.3-2.7,0.2-3.6-1.1
		c-0.9-1.3-0.5-2.5,0.4-3.6c0.7-0.9,1.9-1.4,2.1-3c-4.9-1.1-8.8,3.7-13.7,2.4c-1.1-3.2,0.8-5,3-6.6C53.3,247.2,54.3,247.1,55.2,248z
		"/>
	<path class="st19" d="M136.3,141c4.7-0.3,9.3-3.6,14,0.1c-3.2,4.7-6.5,9.3-8,14.9c-5.3,6.4-12.2,10.7-18.9,15.3
		c-1.5-2.2-0.5-4.1,1-5.7c4.4-4.8,7.1-10.6,10.8-15.9c2-2.9-0.7-3-2.2-3.4c-1.7-0.5-4-0.1-2.7-3.1c4.4-2.1,9.4-0.2,13.8-2
		c0.6-0.3-0.4-0.7,0-0.2C141.5,141.6,138.9,142.8,136.3,141z"/>
	<path class="st20" d="M49.3,254.1c4.1-1.4,8.1-3.4,12.5-4c1.2-0.2,2.8-0.4,3.3,1.3c0.5,1.6-0.6,2.2-1.9,2.9
		c-1.4,0.7-3.4,1.6-2.1,3.7c1.2,1.9,3.1,0.3,4.5-0.2c6.6-2.3,12.8-5.6,18.6-9.6c0.9-0.6,1.9-1.6,3.1-0.4c-5.1,7.3-12.8,10.7-21,12.9
		c-4.2,1.1-8.2,2.4-12.1,4.3c-3.1,1.6-6.9,2.5-9.3,0.1c-2.1-2.2,1-5.1,1.7-7.7C46.9,256,47.8,254.7,49.3,254.1z"/>
	<path class="st21" d="M49.3,254.1c-1.8,3.3-2,7.2-5,11c3.8,0,6.9,0,9.9,0c-0.6,0.6-1.2,1.1-1.8,1.7c-3.1,0.4-5.7,1.9-8.3,3.6
		c-1.7,0.7-1.8,2.7-3,3.8c-2.7,2.6-5.9,1.9-6.7-1.7c-0.7-3.4-1.1-7.2,0.7-10.2c2-3.4,2.1-6.8,2-10.4c-0.1-3.6,1.2-6.5,5.1-7.4
		c3,1.3,0.4,2.9,0.2,4.4c-0.1,1-0.3,2,0.8,2.6c0.9,0.4,1.6-0.2,2.2-0.7c1.4-1.1,2.5-2.7,4.2-3.4c1-0.2,2-0.2,2.7,0.7
		C51.2,250,49.4,251.6,49.3,254.1z"/>
	<path class="st22" d="M98.3,218.1c-0.1,1.1-0.7,1.7-1.8,2c-5.2,1.4-6.4,3.3-4.5,8c1,2.4,1.4,4.4-0.6,6.3c-2,1.9-4,1-5.9-0.2
		c-2.8-1.8-5.1-0.5-7.1,1.4c-1.5,1.4-2.8,2.9-5.1,2.6c-0.7-2.3,1.4-3.2,2.5-4.6c1-1,2.1-1.9,3.4-2.4c2.7-0.9,4.6-2.5,5.1-5.6
		c0.5-3.7,4.3-6.4,2.8-10.7c-0.3-0.9,1.2-1.5,2.2-1.6c1.7-0.3,3.2-0.9,4-2.5c0.3-0.4,0.6-0.7,0.9-1c3.4-1.1,5-5.2,9-5.4
		c-0.3,3.7-0.6,7.4-1,11c-0.9,0.8-2,1.1-3.1,1.1C97.3,216.2,98.1,217.3,98.3,218.1z"/>
	<path class="st23" d="M142.3,155.9c-0.1-6.5,3-11.2,8-14.9c2.7,0,5.2-1.5,8-1c1.9-2.5,3.7-2.5,5.4,0.2
		C158,147.4,150,151.6,142.3,155.9z"/>
	<path class="st24" d="M44.3,269.1c2.4-1.6,4.5-4.7,8.1-2.3c-1.5,2.2-3.5,4.2-3.2,7.3c-2,1.3-2.6,3.3-2.9,5.5
		c-0.4,2.9-1.1,5.8-4.1,6.9c-3.2,1.2-4-2.2-5.7-3.8c-5-4.4-7.3-9.6-5.2-16.3c0.4-1.2,0.6-2.2,2-2.4c2,2.9,0.6,6.3,1.1,9.4
		c0.1,0.3,0.1,0.7,0.2,0.9c1.4,2.2,2.9,5,5.7,4.5c3.2-0.6,2.7-3.9,2.8-6.5c0-0.5,0.1-1,0.1-1.5C43.4,270.2,43.8,269.6,44.3,269.1z"
		/>
	<path class="st25" d="M103.2,204.1c-3,1.9-4.8,5.7-8.9,6c-6.9-2.9-7.4-6.8-1.6-12.7c3.1-1.1,6.3-1.5,9.4-2.5
		c1.3-0.4,3.3-1.4,3.4,1.5C104.7,198.9,103.9,201.5,103.2,204.1z"/>
	<path class="st26" d="M41.3,297c2.1,0.4,4-0.6,5.9-1c-2.2,6-8.1,6.7-12.9,8.9c-3.4-3-7.4-2-11.2-1.5c-2.3,0.3-4.5,0.6-6.8,0.6
		c-0.4-2.6,1.8-3.1,3.3-4.1c5.1-2,10.6-2.8,15.9-3.8C37.4,295.8,39.5,295.6,41.3,297z"/>
	<path class="st27" d="M105.5,196.3c-1-1.7-2.2-0.7-3.3-0.2c-3.2,1.2-6.4,2.1-9.9,2c-0.6-0.5-0.7-1.1-0.6-1.8
		c0.2-0.9,0.6-1.7,1.2-2.4c0.3-0.3,0.7-0.5,1.2-0.7c2.1-0.5,4.4-0.1,6.2-1.7c0.6-0.3,1.3-0.5,1.9-0.6c4.3-1.1,1.6-4,1.3-6
		c-0.4-3-3.3-5.4-2.2-8.8c3-0.4,3.5,2,4.4,3.9c1.2,2.3,2.4,4.5,5.5,4.1C109.3,188.1,108.2,192.6,105.5,196.3z"/>
	<path class="st28" d="M163.7,140.2c-1.8-1.1-3.6-1.5-5.4-0.2c-1.2-4.1-5-0.6-7.6-3.1c6-1.2,10.9-3.6,13.7-8.9
		c1.2,1.1,2.3,2.4,3.9,3C167.7,134.6,165.9,137.5,163.7,140.2z"/>
	<path class="st29" d="M98.3,218.1c-1-0.9-2.8-0.6-3.7-2.5c2.6-1,5.1-0.3,7.6-0.5c0,1,0.1,2,0.1,3C101,218.1,99.6,218.1,98.3,218.1z
		"/>
	<path class="st30" d="M112.5,118.1c3.7-4.6,8.2-8.6,10.8-14.1c3.1-5.7,3-11.6,3.1-18.1c0.1-7.7,0.1-16.7,7.7-22.4
		c0.8-0.2,1.5-0.2,2.2,0.2c1.6,1.6,1.4,3.1,0.1,4.8c-5,6.5-3.9,14-3.4,21.3c0.1,2.4,0.4,4.6-0.7,6.8c-0.9,2-1.9,3.9-1.7,6.2
		c0.1,5-3.4,7.9-6.2,11.4c-1.5,1.9-3.1,3.8-4.4,6c-1.4,2.5-3.3,4.7-5,7c-0.4,0.5-1,0.9-1.5,1.3c-0.4,0.2-0.8,0.4-1.2,0.6
		c-2.2,0.8-3.4,2.6-4.6,4.5c-3.2,3.5-4.1,8.2-6.4,12.2c-1.8,3-3.5,6-6,8.4c-1.6,1.5-2.7,3.5-4.2,5.1c-0.5,0.7-1,1.5-1.7,2.2
		c-0.8,0.6-1.6,1.1-2.5,0.2c-0.9-1.7-0.1-3.4,0.4-5c6.1-8.1,9.8-17.5,14.6-26.4c0.7-1.3,1.6-2.6,3.1-3.1
		C109.2,125.7,111.2,122.2,112.5,118.1z"/>
	<path class="st31" d="M74.3,12.2c2.1-1.8,4.4-3.1,7-4.1c3.7-0.2,5.7,2.3,7.6,4.8c2.5,3.3,5.5,5.2,9.7,5c3-0.1,5.7,0.8,7.2,3.6
		c1.3,2.5,4.3,2.3,5.9,4.3c-1.5,4.5-5.4,6.5-9,8.9c-1.7,0.2-3.2,0.1-4.4,2.2c-1.7,3-5,2.5-5.5-1c-0.7-4.9-3.9-7.4-7.1-10.3
		c-2.4-2-4.8-4.1-5.5-7.5c-0.5-2.3-2.3-2.5-4.2-2.6C74.4,14.9,73.1,14.1,74.3,12.2z"/>
	<path class="st32" d="M112.5,118.1c0.7,3.7-2,8.7-5.9,9.8c-1.8,0.5-2.9,1.3-3.7,2.9c-4.5,9-8.2,18.4-14.6,26.3
		c-2.8,8.6-9.4,15-13.4,23c-1.2,2.4-2.2,5.3-5.5,6c-0.8,0.1-1.5,0.1-2.3,0.1c-2.4-0.7-5.2-0.8-5.9-4c5-5.3,10-10.7,15.2-15.8
		c3.7-3.7,6.9-7.6,8.7-12.5c2.9-2.4,4.7-5.8,7.3-8.4c1.8-1.9,1.3-4.2,0.8-6.5C98.3,130.8,104.9,124,112.5,118.1z"/>
	<path class="st33" d="M111.3,26.2c-2.9-0.6-5.5-1.3-6.9-4.5c-1.1-2.8-4-2.8-6.5-2.6c-4.3,0.3-7.5-1.3-9.6-4.9
		c-1.7-2.9-4.5-4.3-7.1-6.1c2.3-1.4,4.5-2.7,6.8-4.1c5.1,2.4,9.1,6.5,14.3,8.9c3.6,1.7,6.9,4.2,11.2,2.6c1.4-0.5,2.9,0.5,2.8,1.4
		c-0.6,6.5,3.3,3.3,5.8,2.7c1.2-0.2,2.2-0.8,3.2,0.3c-1,2-3,2.1-4.8,2.9c-0.7,0.2-1.3,0.3-2,0.4c-2.2,0-4.2,0.2-5.4,2.4
		C112.6,26,112.1,26.4,111.3,26.2z"/>
	<path class="st34" d="M134.3,64.1c-5.7,7.5-7.2,16-6.2,25.3c0.6,5.5,0.4,11-4.8,14.7c-1.7-3.6-5.6-5.1-8-8c0.6-4,1-8,2.4-11.7
		c6.7-3.1,7.9-9.8,7.5-15.5c-0.3-5,1.4-5.7,5-6.3C131.8,62.6,133.3,62.8,134.3,64.1z"/>
	<path class="st35" d="M37.3,211c2.6-2.3,5.2-4.7,7.9-7c3.4-0.3,3.8,4.8,7.4,4.2c1.5,0.6,3,1.1,3.3,3c0,0.6-0.3,1-0.7,1.4
		c-1.8,1-3.6,0.8-5.5,0.5c-5.9-1.5-7.1-0.9-6.9,5.5c0.2,8.4-3.7,14.5-9.3,20c-0.7,0.3-1.5,0.4-2.3,0.2c-1.3-0.6-1.7-1.7-1.1-2.8
		c4.2-7.3,4.8-15.6,6.4-23.6C36.6,211.7,37,211.4,37.3,211z"/>
	<path class="st36" d="M25.3,240.1c-0.3,0-0.7,0-1,0c-2.1,1-2.7,3.2-3.8,5c-0.7,1.2-0.7,3.6-3.2,3c0.6-4.7,3.3-8.6,5-12.9
		c1.7-4.3,3.6-8.6,0.8-13.2c2.2-2.9,4.9-5.3,8.2-7c1.2,0.5,1.9,1.5,1.7,2.7C31.6,225.5,31.8,233.9,25.3,240.1z"/>
	<path class="st37" d="M25.3,240.1c-0.1-1.6,0.4-2.9,1.4-4.1c4.8-5.7,3.2-13.2,5.1-19.7c0.1-0.4-0.4-0.9-0.6-1.4
		c1.6-1.9,3.5-3.4,6-4c-0.5,8.9-1.2,17.8-6.6,25.5c-0.4,0.6,0,1.2,0.6,1.6c0.3,1.6-1,2-2.1,2.5c-0.8,0.2-1.4,0.1-2-0.5
		C26.6,240.1,26,240.1,25.3,240.1z"/>
	<path class="st38" d="M89.2,76.4c-7.3-7-13.8-14.7-19.3-23.2c1.1-1.2,2.3-0.7,3.5-0.3c6.5,3.2,10.1,9.7,16,13.7
		c0.7,0.7,1.1,1.5,1.4,2.3c-0.1,2,1.9,3.4,1.7,5.4C91.7,75.3,90.5,76,89.2,76.4z"/>
	<path class="st39" d="M52.3,209c-4.6,1.5-4.6-3.6-7.2-5.1c4.8-5.5,9.1-11.2,12.3-17.9c0.5-0.3,1-0.3,1.4,0.2
		c1.9,5.5-1.7,10.1-2.5,15.1C55.8,204.1,55.4,207.4,52.3,209z"/>
	<path class="st40" d="M63.5,32.1c-2.7-1.1,5.6-0.7,0.4-2.8c-1.4-0.6-0.3-4.7,0.8-6.9c1.5-3,3.6-5.5,6.3-7.5c3-0.3,3.3,2,3.8,4
		c-1.6,5.7-4.5,10.8-7.1,16.1C65.1,35.7,64.9,33.1,63.5,32.1z"/>
	<path class="st41" d="M118.3,84.1c-0.5,4.1,0.3,8.6-3,12c-3.3-1.5-6.2-3.6-9-6c1-4.1,5.8-4.1,7.6-7.3c0.7-0.3,1.4-0.4,2.1-0.3
		C117,82.7,117.8,83.2,118.3,84.1z"/>
	<path class="st42" d="M101.3,86.1c-2-1.4-3.9-2.9-5.9-4.3c-0.7-4.5,3.4-4.4,5.7-6.1c1.3-0.3,2.4,0.2,3.4,0.9
		c1.1,1.8,3.8,2.2,4.3,4.6C107.7,85,104.7,85.9,101.3,86.1z"/>
	<path class="st43" d="M93.2,139c1.1,0.5,1.9,1.3,2,2.6c0.3,3.1-6.5,11.4-10.1,12.3C86.1,148,89,143.1,93.2,139z"/>
	<path class="st44" d="M114.3,83.1c-1.2,4-5.5,4.5-7.9,7c-1-0.7-2-1.4-3-2.1c0.5-3.9,5.3-3.6,6.5-6.9c1.5-0.8,2.4,0.5,3.6,1
		C113.8,82.4,114.1,82.7,114.3,83.1z"/>
	<path class="st45" d="M73.3,54c-1.1-0.3-2.3-0.5-3.4-0.8c-1.8-2.1-2.6-4.7-3.7-7.1c-0.3-1.8,1-2.5,2.2-3.3
		C71.2,46,73.8,49.3,73.3,54z"/>
	<path class="st46" d="M101.3,76.1c-1,2.9-5.5,2.2-5.9,5.7c-1.3-0.6-2.5-1.4-3.2-2.7c0.2-3,3.2-3.4,4.7-5.1c0.9-0.5,1.7-0.1,2.5,0.3
		C100.2,74.8,100.9,75.3,101.3,76.1z"/>
	<path class="st47" d="M58.3,186.1c-0.3,0-0.6,0-0.9-0.1c0.9-1.7,2.2-2.9,3.9-3.9c1.7,1.6,3.8,2.5,6,2.9c0.1,1.6-1.2,1.8-2.3,2.2
		C62.7,187.5,60.3,187.7,58.3,186.1z"/>
	<path class="st48" d="M110.2,81.1c-0.2,4.3-5.2,3.9-6.9,6.9c-0.7-0.6-1.4-1.2-2.1-1.8c2.1-2.1,5.6-2,7-5
		C108.9,80.4,109.6,80.6,110.2,81.1z"/>
	<path class="st49" d="M89.2,76.4c0.5-1.5,1.6-2.2,3-2.4c0.5-1,1.1-1.9,2.2-2.3c0.5,0,0.9,0.1,1.3,0.3c0.8,0.6,1.2,1.4,1,2.4
		c-1.4,1.8-3.3,3-5.4,3.8C90.3,77.9,89.7,77.3,89.2,76.4z"/>
	<path class="st50" d="M74.3,19.1c-1.5-1.1-1-3.8-3.3-4.2c1.1-0.9,2.2-1.8,3.4-2.7c-0.1,1.4,0.7,2.4,1.9,3
		C77.6,17.4,77.1,18.8,74.3,19.1z"/>
	<path class="st51" d="M64.3,41c-0.3-1.7-0.6-3.3-0.9-5c1.9-1.2,3.1-0.1,4.4,1.2c0.6,1.4,0.6,2.8-0.3,4.1C66.4,42,65.3,41.9,64.3,41
		z"/>
	<path class="st52" d="M67.2,37.1c-1.3-0.4-2.5-0.7-3.8-1.1c0-1.3,0.1-2.6,0.1-4c2.5-0.6,2.6,1.8,3.7,2.9
		C67.8,35.7,67.8,36.4,67.2,37.1z"/>
	<path class="st53" d="M64.3,41c1,0,1.9,0,2.9,0.1c1.7-0.1,1.6,0.8,1.2,2c0.4,1.8-1.6,1.9-2.2,3C65.6,44.4,65,42.7,64.3,41z"/>
	<path class="st54" d="M91.3,78.1c1.7-1.3,3.3-2.7,5-4c0.3-0.3,0.6-0.3,0.9,0.1c-0.3,3.1-3.8,2.8-5,4.9
		C91.9,78.8,91.6,78.5,91.3,78.1z"/>
	<path class="st55" d="M17.3,248.1c2-0.9,2.3-3,3.3-4.7c0.9-1.5,1.4-3.4,3.7-3.3c-7.5,11.5-7.8,23.5-1.6,35.4
		c2.9,5.6,3.6,10.8,1.6,16.5c-0.9,0.9-2.4,0.5-3.2,1.6c-1,0.4-2,0.3-2.8-0.5c4.8-7.7,0.3-14.6-1.8-21.8c-1.7-5.8-2.1-11.6,0.3-17.3
		C17.6,252,17.1,250,17.3,248.1z"/>
	<path class="st56" d="M18.3,293.1c1,0,2,0,3,0c0.3-0.4,0.7-0.4,1,0c1,2,4.7-0.4,5,2.9c-3.5,2.3-7,4.4-11.5,3.5
		c-0.2-0.2-0.4-0.4-0.5-0.6C16.8,297.3,17.4,295.1,18.3,293.1z"/>
	<path class="st57" d="M19.3,301.1c-1,1-2,2-3,3c-0.7,0-1.4-0.1-2,0.2c-1.7,0.7-3.8,2.6-4.8-0.4c-0.8-2.7,1.1-4.2,3.7-4.7
		c0.6-0.1,1.3-0.1,2-0.1c0,0,0.1,0.1,0.1,0.1C16.3,300.5,18.4,299.6,19.3,301.1z"/>
	<path class="st58" d="M169.4,20.9c-0.2,0-0.4,0-0.5,0.1c-0.2,0.2-0.4,0.4-0.7,0.6c1.1,0.3,2.1,0.5,4,1c-1.3,0.3-2,0.3-2.4,0.6
		c-1.2,0.9,0.1,0.8,0.5,1c2.7,1.5,6.7,0.9,7.7,5.2c0.3,1.2,2.6,1.1,3.6,0.5c5.6-3,9.6,1.4,14.3,2.7c1.2,0.3,1.8,2.2-0.2,2.3
		c-4.1,0.3-7.2,4.5-12.1,2.4c-3-1.3-3.3-0.6-4.4-4.7c-0.4-1.6-5.1-1.5-6.9-0.2c-5.1,3.6-8.4,9.4-14.6,11.5c-0.9,0.3-2.3,1.3-2.7,1
		c-5.9-4.4-12.7,0.5-18.8-1.8c-3.1,0.3-4.2-2.1-5.6-4.2c-0.2-0.8-0.2-1.5,0.1-2.2c0.8-1.6,2.5-2.7,3.5-1.5c2.4,2.8,4.4,0,6.2,0.2
		c7,0.7,12.6-3.9,19.1-4.4c2.9-0.2,5.5-1.2,8-2.5c-0.1-2-1.8-1.4-2.8-1.6c-3.3-0.9-6.8-0.5-10.2-0.4c-2.6,0-5.2,1-7.8,0.7
		c-1.3-0.2-2.8-0.5-2.8-2.2c0-1.4,1.3-1.8,2.4-2.1c3.7-0.9,7.4-1.3,11.1-0.2c-1.5-0.5-3.3-0.3-4.5-1.7c2.7-4,7.1-1.9,10.7-2.9
		C165.7,19,168.5,18,169.4,20.9z"/>
	<path class="st59" d="M185.3,46.1c2.1,1.8,3.2,0.6,3.9-1.3c0.5-1.3,1.5-3.2,2.5-2.1c2.9,3.3,7.9,2.1,10.6,5.5
		c-4.7-0.7-9.3,1.3-14,1c-0.9,0.6-1.8,0.3-2.7,0.1c-1.5-0.4-3.1-1-4.6-1.4c-6.2,1.1-11.9,3.8-17.7,6c-4.1,1.6-7.9,2.1-12,1
		c-2.2-0.7-4.3-1.5-6.7-1.2c-2.1,0.3-3.9-0.4-5-2.3c-0.2-1.5-1.9-3.9,1.8-3.3c2.7,2.9,5.5,3.7,9.2,1.5c1.8-1,4.1-1.5,6.2-1.5
		c6,0,11.9,0.1,17.3-3C177.9,42.9,181.6,45.1,185.3,46.1z"/>
	<path class="st60" d="M141.3,48.1c-2.7,0.2-0.6,2-1,3c-1.2,1.1-2.3,0.4-3.3-0.3c-3.6-2.8-8.3-4.5-10.2-9.3
		c-0.2-1.8-0.9-3.6,0.2-5.4c2.9-1.4,2.7,2.4,4.6,2.8c1.6,1.4,3.2,2.7,4.8,4.1C137.3,45.4,139.7,46.4,141.3,48.1z"/>
	<path class="st61" d="M169.4,20.9c-1.3-1.7-3.7-0.1-5-1.8c1.7-1.8,3.9-1.5,6-1.4c4.7,0.2,9.4-0.5,13.9,1.4c-3,2.2-7-0.3-10,2
		C172.6,21.1,171,21,169.4,20.9z"/>
	<path class="st62" d="M157.3,118.1c-0.3-0.5-0.6-1.1-0.9-1.6c-5.2,2.8-9.6,7.6-16.2,7.4c-2.9,6.4-10.2,5-14.9,8.2
		c2.4-6.3,7.2-9.7,13.7-11.2c4.9-0.8,9.2-2.7,12.3-6.7c2.3-3.8,2.7-8.2,3.7-12.4c1-4.2,3.3-6.8,7-9.1c8.1-5.1,16.7-9.7,21.8-18.5
		c1.3-2.3,2.4-4.2,1.1-6.9c-1.6-3.1-0.5-6.2,0.6-9.2c1.5-2.5,1.9-5.5,3.8-7.9c1.5-0.1,2.4,0.6,3,1.9c5.7,3.5,10.1,8.6,15,13.1
		c4.8,4.4,4.4,7.3-0.2,12.2c-0.2,0.2-0.6,0.5-0.6,0.8c-0.8,6.8-7.2,9.6-10.4,14.8c-2.6,4.3-6.4,7.6-11.1,9.7c-1.8,0.8-3.5,2-4.8,3.5
		c-3.4,3.8-7.3,6.7-12.6,7.4c-1.9,0.2-3.1,1.8-4.6,2.9C161.3,117.7,159.7,119.5,157.3,118.1z"/>
	<path class="st28" d="M157.3,118.1c6.2-5.3,15.4-5.4,20.8-11.9c3.5-4.2,9-5.3,12.9-9.1c4.4-4.3,6.6-10.4,12.2-13.6
		c0.7-0.4,1.1-1.8,1-2.6c-0.3-3,1.2-4.6,3.7-5.7c2.3-1,2.3-2.3,1.4-4.7c-2.1-6-8.2-8-11.8-12.5c-1.6-2.1-3.5-3.9-5.3-5.9
		c4.4,0.2,7.8,2.5,10.9,5.4c1.9,1.8,3.5,4,6.8,3c1.5-0.4,2.7,1,1.8,2.5c-1.9,3.2,0,5.6,1.6,7.7c1.6,2.2,2,3.6-0.3,5.2
		c-1.8,1.4-2.5,3.2-3,5.5c-1.3,6.1-5.3,10.6-9.5,14.9c-9.8,10.2-20.3,19.8-31.4,28.6c-1.5,1.2-4,0.9-4.8,3.2
		c-1.4-0.4-2.1-2.3-3.9-1.5c-2.3,1-4.5,0.6-5.7-1.4c-1.1-1.9,0.4-3.8,1.5-5.4C156.6,119.2,156.9,118.6,157.3,118.1z"/>
	<path class="st63" d="M189.3,50.1c0.2,3.1-0.9,5.7-3,8c-1,1.7-1.8,3.5-2.2,5.5c-0.7,3.5-2.2,6.6-5.6,8.4c-2.2,1.1-3.4,3-4.3,5.3
		c-0.9,2-2,4-4.8,3.1c-1.7-3.2,0.7-5.4,2.3-7.6c1.6-2.3,3.7-4.3,4.5-7.1c0.4-1.4,0.9-2.8,1.8-4c3.3-4.2,6-8.7,8.4-13.5
		c0.7,0.3,1.4,0.6,2,0.9C188.6,49.4,189,49.8,189.3,50.1z"/>
	<path class="st64" d="M120.1,22c1.7-0.7,3.4-1.4,5.2-2.1c2.3-0.7,4.6-1.4,7-2.1c5.3-1.3,10.7-2.5,16-3.8c5-0.7,10-1.3,15-2
		c6.7,0.7,13.3-1.1,20-1c2.8,0.1,5.6,0.2,8.4,0.4c-4.4,2.2-8.9,1.3-13.4,1.7c-5,2.7-10.7,1.1-16,2.3c-5.3,1.1-10.8,1.1-16.1,2.7
		c-6.7,1.9-13.7,2.5-20.2,4.9c-1.5,0.5-3,1.2-4.6,0.8C120.5,23.4,119.9,22.9,120.1,22z"/>
	<path class="st65" d="M145.2,17c10.8-2.9,21.9-4.1,33.1-3.9c-0.3,1.3-0.7,2.6-1,3.9c-3.6,2.2-7.7,0.9-11.5,1.4
		c-4.5,0.6-9.1,0.9-13.7,1.5C149.6,19.3,146.7,20,145.2,17z"/>
	<path class="st66" d="M151.3,19c8.7-0.7,17.3-1.3,26-2c5.3,0.4,10.7,0.7,16,1.1c-0.2,1.8-1.3,2.2-2.7,1.6c-2.1-0.9-4.2-0.5-6.3-0.5
		c-6.6,0-13.2,0-19.9,0c-3.7,0.9-7.6,0.3-11.1,1.9c-2,1.4-4.4,1.8-6.8,1.8c-1.3-0.3-2.7-0.6-3.4-2C145.3,17.9,148.4,18.8,151.3,19z"
		/>
	<path class="st67" d="M139.3,122.1c-6.7,0.5-9.8,6-14,10c-4.7,1.9-3.1,6.5-3.8,9.8c-0.6,2.9,3.5,2.7,5.3,4c1.6,1.1,3.9,1.2,6,1.8
		c-0.7,2-2.6,1.6-3.6,2.5c-2.3,1.8-4.7,0.9-7,0.1c-3.3-1.1-6.1-0.8-8.5,1.9c-3.5,1.2-7.2,1.4-10.6,2.8c-0.8-0.1-1.5-0.3-2-1
		c4.9-5.1,6.3-11.3,5.2-18.2c-0.1-0.9,0.4-1.9,1-2.7c0.6-2.8,2.2-4.5,5-4.9c-0.4,3.9-2,7.6-0.9,11.6c0.6,2.3,1.4,4.4,4,4.3
		c2.3-0.1,2.3-2.7,2.4-4.3c0.3-4.4,1.2-8.5,4.2-11.9c2.9-1.7,5.4-3.9,7.7-6.3c3.3-0.2,6.2-3.1,9.8-1.7
		C139.9,120.6,139.9,121.3,139.3,122.1z"/>
	<path class="st68" d="M113.3,152.1c1-4.6,4.3-4.5,7.7-3.6c2.7,0.8,5.3,1.9,8.3,1.6c0,1.3-0.7,2-2,2c-4.5-0.7-8.1,0.4-11,4.3
		c-1.3,1.7-3.1,4-6,3.6C109.5,156.7,112.1,154.7,113.3,152.1z"/>
	<path class="st69" d="M136.3,141c2.6,0,5.3,0,9.1,0c-5.6,2.5-10.4,2-15.1,2.1c-0.2-0.9-0.8-1.9,0.8-2
		C132.8,141,134.6,141,136.3,141z"/>
	<path class="st70" d="M27.3,240.1c0.7,0,1.3,0,2-0.1c3.9,3.2,7.1-0.2,10.6-1.1c2.5-1,5-1.5,7.7-0.6c2.7,3.9,2.3,5-2.6,7.2
		c-0.6,0.1-1.1-0.1-1.6-0.4c-3.1,0.6-5,2.5-5,5.8c0,4.4,0.4,8.6-2.4,12.6c-1.3,1.8-0.5,5.1-0.6,7.7c-0.1,1.5,0.1,3.1,1.9,3.6
		c2,0.5,3.2-0.9,3.7-2.5c0.6-1.8,0.8-3.6,3.3-3.2c0,0.7,0,1.3,0,2c-0.6,0.6-0.6,1.5-0.8,2.3c-1.5,6.1-3.9,6.9-8.6,2.9
		c-0.5-0.4-1-0.8-1.6-1.2c0-3.7,0-7.3-0.1-11c0-0.3,0-0.7,0-1c1.1-2.5,3.1-4.7,2.1-7.9c-0.9-2.8,0.1-5.6,0.1-8.5
		c-3.5-0.7-6.6,4.4-10.1,0.9c-1.6-1.6-1.3-3.6-0.1-5.5C26,241.4,26.6,240.8,27.3,240.1z"/>
	<path class="st71" d="M25.3,242.1c0.1,6.5,0.4,6.7,6.2,4c1.2-0.6,2.3-1.4,3.5-1.8c1.4-0.4,3.3,0,2.5,1.7c-1.9,4.2-0.7,8.5-1.3,12.6
		c-0.3,1.8-1,3.5-2.9,4.4c-0.3-3.1,4-7.2-0.6-9.1c-2.8-1.2-3.6,3.9-6.1,5.4c-1.1,0.6-1.9,2-3.4,1.5c-1.8-0.6-2.8-2.4-2.6-3.9
		C20.9,251.7,22.1,246.5,25.3,242.1z"/>
	<path class="st72" d="M19.3,301.1c-1.5-0.3-3.6,0.8-3.9-1.9c4.3,0.3,7.7-3.2,11.9-3.1c2.6,0.2,5.2-0.6,7.8-0.8
		c2-0.2,5.1-1.9,6.2,1.8C33.6,296.5,26.6,299.8,19.3,301.1z"/>
	<path class="st73" d="M22.3,293.1l-0.5,0c0,0-0.5,0-0.5,0c0.7-1.2,1.9-0.9,2.9-1.1c2.6,0,5.2,0,7.8,0c0,0.4,0,0.7,0,1.1
		C28.8,293.1,25.6,293.1,22.3,293.1z"/>
	<path class="st74" d="M101.3,154.1c0.7,0,1.4,0,2.1,0c0.5,0.7,0.6,1.4,0.2,2.1c-0.4,0.3-0.8,0.6-1.2,0.8c-2.7,0.8-6-0.4-7.8,2.2
		c3,2.9,6.8,3.9,10.9,3.9c-2.2,4.1-5.2,7.9-5,12.9c-0.5,0.7-1.3,1-2.1,1.2c-3.2,0.6-5.8,1.2-1.4,4.4c1.4,1,1.6,2.5,0.9,4
		c-0.8,1.5-2.3,1.7-3.9,1.5c-2-0.2-3.7-1.2-5.6-1.9c-0.5-0.2-0.9-0.5-1.2-0.9c-0.6-1.2-0.2-2.3,0.4-3.3c4.3-6.8,4.9-14.1,2.8-21.8
		c1.3-1.7,2-4,4.1-5.1C96.7,152.8,99,152,101.3,154.1z"/>
	<path class="st75" d="M88.3,184.1c2.4-0.6,3.8,1.9,5.9,1.9c1.1,0,2.4,0.2,2.8-1.3c0.3-1.3,0-2.4-1.5-2.6c-2.4-0.3-3.7-1.5-3.1-4
		c0.6-2.4,2.6-2.1,4.4-2.1c1.2,0,2.3,0,3.5,0c0.3,0,0.6,0,0.9,0.1c1,4.1,3.7,7.5,4.3,11.9c0.5,3.3-0.4,4.2-3.4,4
		c-2.8-3.3-5.3-3.6-10.2-1.3c0.7,0.5,1.5,0.5,2.2,1.1c0.8,1.2-0.2,1.7-0.9,2.3l0,0c-2.2,1.3-3.1,5.5-6.7,3.8
		c-3.5-1.7-1.9-5.1-1.9-7.9C84.7,187.1,84.1,184.2,88.3,184.1z"/>
	<path class="st76" d="M105.4,163.1c-5.4,3.3-8.6-1.1-12.3-3.8c1.9-4.3,5.8-3.1,9.3-3.2c1.4,2-1,2.3-1.6,3.5c2.1,2,4.7-1.9,6.7,0.5
		C107.3,161.5,106.6,162.5,105.4,163.1z"/>
	<path class="st77" d="M107.4,160.1c-3.3,0.3-6.8,4-9.6-1.1c0.7-2.1,4.5,0.2,4.6-3c0.3,0,0.6-0.1,0.9-0.1c0.4-0.3,0.8-0.7,1.2-0.8
		c1.6-0.4,3.1-2.5,4.8-0.4c1.7,2,0.2,3.6-1.1,5.2C108,160.1,107.7,160.1,107.4,160.1z"/>
	<path class="st78" d="M108.3,160c3.1-7.3-2.5-3.7-5-4c0-0.6,0-1.3,0.1-1.9c3.1-1.8,6.3-3,10-2c0.9,3.4-2,5.3-3,8
		C109.6,160,108.9,160,108.3,160z"/>
	<path class="st79" d="M76.3,234.1c-1,1.3-2,2.7-3,4c-4.2,2.9-7.5,7.2-13,8c-0.8-1.9,1.3-2.7,1.7-4.2c-1.6-0.7-3.5,0.8-4.9-0.7
		c1-4.5,5.7-6.2,7.6-10.1c2.1-4.1,1.9-8.9,4.2-13c0.9-1.6,1.3-3.4,3-4.4c0.5-0.3,1-0.4,1.5-0.4c0.8,0,1.5,0.2,2.1,0.8
		c-1.1,4.7-1.5,9.6-4.9,13.6c-2.1,2.5-1,4.5,2.1,5.1C74,233,75.4,232.9,76.3,234.1z"/>
	<path class="st80" d="M57.3,241c2.5,0.4,4.8-2.1,7.7-0.2c-1.6,1.8-3.1,3.5-4.6,5.3c-1.7,0.6-3.4,1.3-5.1,1.9c-1,0-1.9,0.1-2.9,0.1
		c-1,0-2,0-3,0c-0.9,0.4-1.7,0.9-2.7,1c-1.3,0.1-2.8,0-3.3-1.3c-0.5-1.2,0.8-1.9,1.6-2.7C49.2,244.2,52.6,240.6,57.3,241z"/>
	<path class="st81" d="M45.3,245.1c-1.5,2.9-1.5,2.9,4,3.1c-0.8,1-1.6,2.1-2.6,2.9c-1.4,1-2.2,4-4.6,2.1c-2.1-1.7-1.9-3.9-0.3-6.1
		c0.5-0.6,1-1.3,1.4-2c0.3,0,0.6-0.1,1-0.1C44.6,244.7,45,244.7,45.3,245.1z"/>
	<path class="st82" d="M76.3,234.1c-2.6-0.6-6.1,1.7-7.7-1.5c-1.5-2.9,0.3-5.4,2.5-7.8c1.4-1.5,1.8-4.2,2-6.5
		c0.2-1.8,0.9-3.1,2.2-4.2c1.2-2.4,3.2-4.2,4.5-6.5c3.3-5.9,2-11.1-3.6-14.7c-4.2-2.7-1-4.5,0.9-6.4c1.3-0.7,2.6-1.3,4.2-0.7
		c1.6,2.6,3.8,4.8,3.2,8.4c-0.3,1.9,0.9,3.6,2.6,4.4c1.8,0.9,2.4-1.2,3.6-1.9c0.6-0.4,1-0.8,1.7-0.4c0,0.7,0,1.3,0,2
		c0.1,1.7-1.6,2.5-1.9,3.9c-0.6,2.7-1.6,5.8,2.9,6c1.7,0.1,1.3,1,1,2c0,0,0,0,0,0c-0.9,0.8-1.7,2-2.7,2.2
		c-10.7,1.5-10.7,9.7-11.3,17.6c-0.1,0.9-0.4,1.6-1,2.2C78.3,232.7,77.3,233.4,76.3,234.1z"/>
	<path class="st79" d="M79.3,232c-0.2-4.3,1-8.5,1.5-12.7c1.3-9.4,9.1-6.2,13.5-9.3c-0.1,4.2-3.5,4-7.4,4.5c3.6,2.3,2.5,4,0.7,6.1
		c-1.1,1.3-2.1,3.2-2.2,4.9C85.3,229.8,82.9,231.4,79.3,232z"/>
	<path class="st83" d="M33.3,275.1c0.5,0.1,1,0.1,1.4,0.3c5.5,3.5,5.5,3.5,8.1-2.4c0.3-0.7,0.9-1.3,1.4-1.9c0,0.8-0.1,1.7,0,2.5
		c0.3,2.9-0.4,5.5-3,6.8c-2.9,1.4-4.4-1.4-6.2-2.9C34.4,276.7,33.9,275.8,33.3,275.1z"/>
	<path class="st84" d="M92.3,196.1c-1.9,1.1-2.7,4.6-5.4,3.5c-2.8-1.1-4-3.8-3.4-7c0.5-2.6-3.7-3.6-2.3-6.5
		c-0.4-1.8,0.8-2.4,2.1-2.9c1.4-0.3,2.7-0.1,3.8,0.9c0.4,0,0.7,0,1.1,0.1c-2,1.4-3.7,10.1-2.3,12.1c0.9,1.2,1.8,1.9,3.2,0.5
		c1.1-1.2,2.1-2.6,4.1-2.6C93.3,194.9,93.1,195.6,92.3,196.1z"/>
	<path class="st85" d="M94.3,192.2c-1.4-0.2-2.8-0.3-4.4-0.5c2-3.3,9.5-5.1,12.1-3.2c1.5,1.1,0.9,2.3,0.2,3.4
		c-0.6,0.1-1.3,0.1-1.9,0.2C98.3,193.3,96.3,193.4,94.3,192.2z"/>
	<path class="st84" d="M94.3,192.2c2,0,4,0,6,0c-1.6,3.5-4.7,1.2-7,1.9C93.6,193.5,94,192.8,94.3,192.2z"/>
	<path class="st86" d="M123.3,114.1c1.9-3.7,6.5-6,6-11c1.2-2.2,2.3-4.4,3.7-6.5c1.2-1.8,2.1-3.8,1.7-6.1
		c-1.3-7.4,0.9-14.7,5.3-19.6c4.2-4.7,7.7-9.5,10.9-14.8c1-1.6,2.7-1.4,4-0.8c3.7,1.5,6.7,0.4,9.8-1.6c2.8-1.7,5.7-3.5,9.2-3
		c1.1,4.1-2.5,5.5-4.5,7.8c-0.7,0.4-1.4,0.6-2.1,0.8c-4.7,0.6-7.2,3-10,7.3c-6,9.3-11.6,18.7-15.9,28.9c-0.5,1.2-1.5,2.2-2.4,3.1
		c-4.5,3.8-6.8,9.3-10.9,13.4C126.8,113.3,125.8,115.5,123.3,114.1z"/>
	<path class="st87" d="M174.2,51.1c-4.4,0.3-7.6,2.9-11.1,5.1c-1.6,1-2.8,1.8-4.9,1.1c-5.4-1.7-9,0.4-9.7,5.9
		c-0.3,2.6-1.1,3.8-3.4,4.6c-3.2,1.1-4.7,3.7-5.8,6.8c-1.8,5.2-4.4,9.9-3.2,16c1,5.2-2.9,9.1-6.7,12.5c-0.3-2.2,0.4-4.2,1.6-6.1
		c1.5-2.6,0.6-5.3,0.7-7.9c0.3-5.7-1.4-11.4,1.4-17.2c1.1-2.3,5.4-3.9,3.3-7.7c2.8-3.7,7.8-5.1,10.1-9.7c0.8-1.6,3.2-1.1,4.9-0.3
		c9.6,1.2,17.6-4.1,26.1-7c1.3-0.5,2.6-2.8,3.9,0C179.5,49.3,177.6,51.4,174.2,51.1z"/>
	<path class="st88" d="M122.4,128.1c-2.8,4.2-3,9.2-3.9,14c-0.3,1.6,0.3,4-2.6,3.9c-2.5-0.1-4.9-1.5-5.3-3.5c-1-4.8-2.3-10,1.7-14.3
		c0.3,0,0.6-0.1,0.9-0.1c1.7,2.2,3.4,3.3,5.8,0.8C119.9,127.9,121,127,122.4,128.1z"/>
	<path class="st89" d="M69.3,185.1c1.4,0,2-1,2.5-2.1c3.7-8.6,10.7-15.3,14.5-23.9c0.4-0.8,1.3-1.4,2-2.1c-0.3,1.7-0.7,3.3-1,5
		c-1.3,8.4-3.9,16.3-9.2,23.1c-1.4,1.8-3.6,2.3-5.9,2.1C70.9,187,69.3,187.1,69.3,185.1z"/>
	<path class="st90" d="M101.3,154.1c-2.3,0-4.6,0-6.9,0c3.8-4.9,7.2-10,9.1-16c0.6-1.8,1.8-3.9,3.8-4.9c0.2,3.4-0.3,6.8,0.8,10.2
		c1,3-0.5,5.3-2.8,7.3C104,151.8,102,152.2,101.3,154.1z"/>
	<path class="st91" d="M151.3,54.1c-3.2-0.2-5.1,0.8-6.2,4.2c-1.3,3.8-5.9,3.7-8.8,5.8c-0.7,0-1.3,0-2,0c-1.5,0.2-2.8-0.3-4-1
		c-2.7,0.2-4.5-1.3-6.2-3.1c-0.4-3,1.5-2.9,3.4-2.3c2.1,0.6,4,1.3,6.2,0.7c1.6-0.5,3.3-0.8,4.3-2.2c1.6-2.1-0.7-2.7-1.6-3.9
		c-0.7-1-1.1-2.2,0.9-2.2c1,0.3,2,0.7,3,1c1.4,1.8,3.1,1.7,5.2,1.2C147.6,51.8,149.6,52.7,151.3,54.1z"/>
	<path class="st92" d="M72.3,186.1c3,0.3,4.7-1.1,6.4-3.6c4.2-6.3,5-13.9,8.6-20.4c0.7-0.3,1.3-0.7,2-1c0.3,0.2,0.6,0.5,0.6,0.7
		c-0.8,7.8-0.1,16.1-6.6,22.3c-1,0.4-1.6,1-2,2c-1.3,0.3-2.7,0.7-4,1c-1.2,0.7-2.4,1.5-3.9,1.3C72.5,187.9,71.8,187.2,72.3,186.1z"
		/>
	<path class="st93" d="M122.4,128.1c-1.7-0.2-2.1,1.3-2.9,2.2c-1.2,1.4-2.6,1.9-4.4,1.6c-2.4-0.4-1.5-2.5-1.8-4c0.3-0.3,0.7-0.7,1-1
		c4.6-2.6,6.2-7.6,9.5-11.3c1.8-1.1,3-3.3,5.5-2.9c0.4,0.3,0.6,0.7,0.8,1.2c0.3,1.9-0.6,3.4-1.9,4.7c-1.1,1.1-0.8,1.9,0.5,2.6
		c0.4,0.2,0.7,0.6,0.8,1C128.6,126,125.6,127.3,122.4,128.1z"/>
	<path class="st94" d="M83.3,184.1c4.1-7.1,4.8-15.2,6-23c0-0.8,0.2-1.5,1-1.9c5.4,8.3,2,15.7-2.2,23.1c-0.3,0.6-0.5,1.2-0.8,1.8
		C85.9,184.1,84.6,184.1,83.3,184.1z"/>
	<path class="st95" d="M129.3,113c-1.6,1-3.3,2.1-4.9,3.1c-1.6,1.4-2.3,4.1-5.1,3.9c0.3-2.7,2.6-4,4-6c4.6-1.6,6.3-6.1,9-9.4
		c1.9-2.3,3.4-4.9,6-6.5c0.6-0.6,1.2-0.6,1.9-0.3c0.7,0.9,0.2,1.8-0.3,2.6c-0.4,0.6-0.9,1.1-1.3,1.6c-2.2,2.3-3.8,5-5.4,7.8
		C132.3,111.3,131.6,113.1,129.3,113z"/>
	<path class="st96" d="M119.3,120.1c1.7-1.3,3.4-2.6,5.1-4c-1.5,4.3-5.4,7-7.3,11.1c-0.6,1.3-1.9,1.1-2.8-0.2
		C115.3,124.3,117.5,122.3,119.3,120.1z"/>
	<path class="st97" d="M68.4,43.1c-0.4-0.7-0.8-1.3-1.2-2c0-1.3,0-2.6,0-4c0-0.7,0-1.4,0-2.1c0.9-5.9,4.3-10.8,7.1-15.9
		c1.6-0.8,2.2-2.2,1.9-3.9c2.2-1.9,4.5-1.5,4.8,1.2c0.7,5.6,5,7.8,8.6,10.8c1.9,1.6,3.9,3,3.7,6c-0.1,2,0.2,4.7,2.5,4.6
		c2.9-0.1,1.8-3.2,1.9-5.1c1.6,0.5,3,1,4.5,1.5c0.6,1,0,1.8-0.5,2.6c-3.4,3.5-2.6,8.1-3.2,12.3c0.1,3.7,0.3,7.3-3.9,9.3
		c-1.5,0.7-1.7,2.7-2.2,4.3c-0.6,1.9-1.1,3.9-3.3,4.6c-4.2-1.7-7.1-5-9.9-8.3c-1.8-2-3.7-3.7-6-4.8c-0.1-0.8,0-2.1-0.5-2.4
		C69.4,49.8,70.1,45.8,68.4,43.1z"/>
	<path class="st98" d="M101.2,36.1c0.4-0.7,0.7-1.3,1.1-2c3-2.6,6-5.2,9.1-7.9c0.3-0.3,0.7-0.6,1-1c1.6-1.9,3.9-2.3,6.1-3.1
		c0.6,0,1.2-0.1,1.7-0.1c0.4,0.4,0.8,0.8,1.2,1.2c0.2,1-0.5,1.5-1.2,1.9c-5.7,3.2-11.4,6.5-16.1,11.2
		C103.4,36.9,101.9,38.6,101.2,36.1z"/>
	<path class="st99" d="M72.3,186.1c0.3,0.7,0.7,1.3,1,2c0.5,1.3-0.2,2.4-1,3.1c-4.4,4.1-5.7,9.8-8.3,14.9c-1.6,3.2-0.4,3.7,2.4,3.7
		c1.5,0,3-0.1,4.4,0.5c1.6,0.7,3.7,1.1,2.5,3.7c-0.3,0-0.7,0-1,0c-1.9,1.4-4.1,1.1-6.2,0.6c-4.8-1.1-8.2,0.3-10.5,4.9
		c-1.4,2.9-2.7,6.1-5.6,8c-0.9,0.5-1.8,1-2.9,0.5c-1.8-2.7,0.9-4.7,1.1-7.1c1.8-3.5,3.2-7.1,6.9-9.1c0.1-0.3,0.1-0.6,0.2-0.9
		c2-6.6,4.2-13.1,7.5-19.1c1-1.9,1.5-4,2.4-5.9c0.8,0,1.6-0.2,2-1c0.7,0,1.3,0,2,0C70,186.2,71.2,186,72.3,186.1z"/>
	<path class="st31" d="M118.4,22.1c-1.7,1.6-3.8,2.5-6.1,3.1C113.1,21.8,115.7,21.9,118.4,22.1z"/>
	<path class="st100" d="M124.3,60c2.4,0.2,4,1.9,6,3.1c-2,1.4-7.1,1.4-2.4,5.7c-2.7,4.9-2.3,11-6.3,15.3c-1,1.1-2.2-0.2-3.3,0
		c-0.8,0-1.6-0.2-2-1c4-5.4,5.2-11.4,4.1-18c-0.2-0.4-0.4-0.8-0.5-1.2c0.1-2.4,1.4-3.7,3.8-3.9C123.9,60,124.1,60,124.3,60z"/>
	<path class="st101" d="M65.3,186.1c1,1.4,0.9,2.9,0,4.2c-4.3,6.2-5.8,13.5-8.6,20.3c-0.1,0.3-0.9,0.4-1.3,0.6
		c-1-0.7-2.1-1.4-3.1-2.1c2.8-7.4,5.1-15,5.9-22.9C60.6,186.1,62.9,186.1,65.3,186.1z"/>
	<path class="st102" d="M33.3,238c0.4-0.7,0.7-1.5,1.2-2.1c4.3-5.4,7.4-11.1,7-18.5c-0.4-7.6,0.8-8.1,7.8-5.3
		c-3,7.2-3.1,15.5-8,22.1c-1.3,1.4-2.3,3.2-3.9,4.4c-0.5,0.2-0.9,0.4-1.4,0.5C35,239.1,34,238.9,33.3,238z"/>
	<path class="st39" d="M40.3,234.1c4-6.2,4.7-13.5,7-20.2c0.4-1.1,1-1.6,2-1.8c2,0,3.9,0,5.9-0.1c-2,3-3.9,6.1-5.9,9.1
		c-3.1,3.9-3.2,9.2-6.4,13.1c-0.4,0.3-0.9,0.4-1.3,0.5C41.1,234.6,40.7,234.4,40.3,234.1z"/>
	<path class="st103" d="M33.3,238c1,0,2,0.1,3.1,0.1c0.7,1.2,2.3,0.8,3,2c-2.2,1.6-4.8,2.1-7.3,2.8c-2,0.5-3.8,0-2.7-2.9
		c0.7-0.6,1.4-1.3,2.1-1.9C32,238.1,32.6,238,33.3,238z"/>
	<path class="st104" d="M89.3,67.1c1.1-2.1,1.8-4.2,2.4-6.5c0.5-2,1-3.8,3.7-4.7c3.9-1.3,1.2-5.2,2-7.8c1.8-1.3,3.4-0.3,5,0.6
		c0.4,0.4,0.6,0.8,0.8,1.3c0,2.8,2.8,4.7,2.6,7.3c-0.4,6.6-4.9,10.9-9.2,15.3c-0.3,0.3-0.9-0.1-1.4-0.4c-0.3,0-0.6,0-0.9-0.1
		c-1.8-0.4-3.2-1.3-4-3C89.5,68.7,89.3,67.9,89.3,67.1z"/>
	<path class="st105" d="M90.3,69.1c1.4,0.9,3.3,1.2,4,3c-0.4,0.9-1.1,1.6-2.1,1.9C91,72.6,88.9,71.5,90.3,69.1z"/>
	<path class="st106" d="M120.3,64.1c1.4,0.9,3.6,1,1.9,3.9c-1,1.6-1.1,4.1-0.8,6.1c0.6,4.5-2.3,6.7-5.1,9.1c-0.7,0-1.3,0-2,0
		c-0.3,0-0.7,0-1,0c1.9-5.7,5.2-10.9,4.8-17.3C118,64.9,119.2,64.2,120.3,64.1z"/>
	<path class="st107" d="M101.3,76.1c-0.8-0.1-1.6-0.2-1.9-1.1c0.5-1.5,1.4-2.9,2.6-3.6c4.6-2.5,5.3-6.6,4.8-11
		c-0.3-2.3,4.4-3.6,1-6.2c-0.9-3.4,1.7-3.8,3.9-4.6c3.1,0.8,4.8,3,6.2,5.6c-1.9,4.7-2.9,9.7-3,14.7c-0.1,4.7-4.5,5.3-6.8,7.9
		c-1.2,1.4-2.7,0.8-3.7-0.8C103.3,76.8,102.3,76.4,101.3,76.1z"/>
	<path class="st108" d="M104.3,77.1c3.7,0.5,9-4.1,9.1-7.6c0-2.4-1.5-5.3,2-6.9c1-0.4,0.3-1.5-0.3-2c-3.1-2.8-2.7-4.2,1.6-4.2
		c0.2,0,0.3-0.8,0.5-1.3c1-0.7,1.8-0.1,2.6,0.4c1.1,1,2,2,2,3.5c-1.1,1.5-3.4,2.6-1.5,5c0,0,0,0,0,0c-0.6,1.1-2.1,2.5-1.8,3.4
		c1.8,6.5-2,10.9-5.2,15.6c-1.6,0.2-1.9-1.5-3-1.9c-0.6,0-1.3,0-1.9,0C107.2,79.6,104.1,80,104.3,77.1z"/>
	<path class="st105" d="M108.3,54c1.3,1.6,2.6,3.3,3.9,4.9c-1.9,1.9-2.6-1.3-4.5-0.2c2.6,7.9-2.5,12.3-8.4,16.2
		c-0.7-0.3-1.4-0.6-2.2-0.8c-0.3-0.1-0.6-0.1-0.9-0.1c-0.4-0.7-0.7-1.3-1.1-1.9c4.2-4.1,8.5-8.3,9.4-14.5c0.4-2.8-3.5-4.4-2.3-7.6
		c1.9-1.3,2.5,0.4,3.4,1.5C106.4,52.5,106.6,54.1,108.3,54z"/>
	<path class="st109" d="M146.2,22c2.3-0.3,4.7-0.6,7-1c2.3,0.7,4.6,1.3,7.1,1.5c-5.2,0.4-10.4,0.6-16.1,2.2c4,2.8,7.6-0.5,11,0.4
		c1.7,0.9,3.6,0.3,5.4,0.5c0.8,0.1,1.7,0.1,1.9,1.1c0.3,1.2-0.5,1.8-1.5,2.2c-2.2,0.9-4.6,0.2-6.9,0.9c-1,0.3-2,0.5-3,0.7
		c-3.4,1.6-7.3,1.9-10.4,4.2c-1.8,0.7-4,2.4-3.7-1.7c0-0.2,0.3-0.5,0.1-0.5c-2.5,0.6-6-0.1-7.6-1.7c-0.6-0.6-1-1.3-1.1-2.2
		c-0.1-1.4,0.3-2.6,1.4-3.5C135.1,23.1,140.4,21.1,146.2,22z"/>
	<path class="st110" d="M150.3,29.1c1,0,2,0,3,0c3.8-0.1,7.6,0.5,11.3-0.8c1.3-0.4,2.6-0.2,3.7,0.9c-2.2,2-4.7,2.7-7.6,3.1
		c-3.8,0.6-8,0.5-11,3.9c-1.2,1.4-2.6,0.6-4.1,0.4c-3-0.5-6.4-1.5-7.7,2.8c-2.2-1.3-3.3-5.5-6.7-2.1c-4.6-2.6-5.1-4.8-2-8.2
		c1,3,4.6,1.3,6.2,3.8c0.9,1.4,0.8-0.7,0.9-1.1c0.4-1.8,1.5-2.8,3.5-3.5c0.5,2.2-0.8,3.3-1.6,4.7c-0.4,0.6-0.8,1.4-0.1,1.7
		c0.6,0.2,1.5-0.3,2.3-0.5C144,33.2,148.3,33.4,150.3,29.1z"/>
	<path class="st111" d="M168.3,29.1c-5,0.1-10,2.6-15,0c2.4-2.3,5.8,0.2,8.7-1.9c-1.9-2.2-5,0-6.7-2c5.7-0.3,11.3-0.1,16.7,2.6
		C171,29.7,169.5,28.8,168.3,29.1z"/>
	<path class="st112" d="M129.2,28.9c-1.8,3.3-0.5,5.9,2,8.2c0.1,0.6,0.2,1.2,0.3,1.9c-3,1.3-2-3.1-4.2-2.9c-2.1-0.5-2.8-2.2-3.6-3.8
		c-0.4-2.1-2.5-2.9-3.7-4.4c0-0.5,0.1-0.9,0.5-1.3c2.4-1.7,5-2.6,8-2.4c1,0.3,2.2,0.5,1.9,2C129.3,26.8,129.3,27.9,129.2,28.9z"/>
	<path class="st113" d="M174.2,51.1c2.3-1.4,4.7-2.7,7-4.1c1.7,0.4,3.3,0.8,5,1.2c-0.2,5-3,8.7-6.1,12.3c-1.4,1.6-2.7,3.3-2.9,5.6
		c-1.6,2.3-3.5,4.3-5.4,6.4c-2.5,2.8-5.5,3.6-8.9,2.3c-3.5-1.3-3-4.6-3-7.6c0-0.7,0.1-1.3,0.3-1.9c0.4-1.1,1.2-1.8,2.4-2
		c0.5,0,1,0.1,1.5,0.3c0.6,0.6,0.7,1.4,1,2.1c1.2,3.2,3.4,3.8,5.8,1.3c1.6-1.7,2.6-3.7,3-6.1c-1.7-0.6-3.7,0.7-5-1
		c-0.3-0.7-0.3-1.4,0.3-2C170.9,55.7,172.6,53.4,174.2,51.1z"/>
	<path class="st114" d="M121.3,59c-0.7-1-1.4-2-2.1-2.9c-0.3-0.3-0.4-0.5-0.3-0.8c0.1-0.3,0.1-0.4,0.2-0.4c0.7-0.5,1.5-0.4,2.3-0.3
		c4.3,0.8,7.6-0.5,8.8-3.8c1.4-3.6-2.3-4.1-3.9-5.8c-1.1-0.7-2.1-1.5-2.7-2.7c-1-1.6-0.8-2.7,1.3-3c1.1,0.1,1.8,0.8,2.2,1.8
		c2.2,4.2,6.9,5.7,10,8.9c-1.1,1-0.6,1.4,0.5,2.1c3.5,2.1,3.5,4.3-0.1,6.1c-3.2,1.6-6.6,3.2-10.2,0.6c-1.5-1.1-2.8-1.1-3.2,1.2
		c0,0,0,0.1,0,0.1C123,60.5,122.1,59.9,121.3,59z"/>
	<path class="st115" d="M127.3,41.1c-0.7-0.4-1.3-0.7-2-1.1c-2.4-1.8-6.3-2-6-6.3c1.5-1.3,2.9-3,5.2-1.7c0.9,1.3,1.9,2.7,2.8,4
		C126.8,37.7,128.2,39.4,127.3,41.1z"/>
	<path class="st116" d="M169.3,80.1c0.5-0.1,1.3-0.1,1.4-0.3c2.3-7,11-9.2,12.5-16.8c0.4-1.9,1-3.9,3.1-4.9
		c-0.1,3.6-2.7,7.4,1.1,10.7c1,0.9-0.2,1.7-0.6,2.6c-2.9,6.9-7.9,11.9-14.1,15.9c-3.9,2.5-7.3,5.8-11.7,7.5c-3.1,1.2-3.7,4-4.5,6.7
		c-1.3,4.5-1.5,9.5-4.1,13.6c-1.2-1.1-1.4-2.7-1.9-4.1c-3.8-10.3,0.3-17.9,8.6-23.8C162.4,84.8,164.6,80.6,169.3,80.1z"/>
	<path class="st117" d="M151.3,111.1c1.5,1,0.9,2.6,1,4c-3.4,4.1-7.8,6.2-13,7c0-0.7,0-1.3,0-2c1-1.8,2.7-2.5,4.5-3.1
		c2.4-0.4,3.7-2.3,5.4-3.7C150,112.7,150.4,111.6,151.3,111.1z"/>
	<path class="st118" d="M151.3,111.1c-0.1,1.1,0.2,2.3-1,3c-2-2.8-1.4-6.3-2.2-9.4c-0.8-2.8-1.3-5.7-3.1-8.2
		c-1.6-6.7,3.1-10.5,7.1-14.2c3.1-2.8,6.6-4.2,4.4-9.7c-1.2-3,0.2-7,4.8-7.6c0,1.2,0,2.3,0,3.5c0.1,1.9-0.7,4.4,1.8,5.2
		c2.5,0.8,5.2,1,7.4-1.2c2.2-2.2,4.6-4.3,6.8-6.4c-0.7,3.8-4.1,5.9-5.9,9c-0.9,1.5-1.4,3.3-2.1,5c-5.4,4.7-10.8,9.3-15.9,14.2
		c-3.1,3-3.7,6.2-2.8,9.9C151.1,106.5,151.3,108.8,151.3,111.1z"/>
	<path class="st119" d="M128.1,24.9c-2.5,0.8-5.1,1.6-7.6,2.3c-3.9,3.3-8.9,4.8-12.7,8.3c0.2,0.9-2.9-0.1-1.1,1.8
		c1.7,1.8,1.9,4,2.2,6.2c-0.1,1.3,0.2,2.6-0.1,4c-1.7,2.1-4.2,1.5-6.4,1.6c-1.7-0.3-3.3-0.6-5-1c1.1-4.1-0.9-9.1,3.9-12
		c0.9,0.9,1.5,0.1,2-0.4c5-5.7,11.7-8.9,18.1-12.5c1.3-0.4,2.7-0.7,4-1.1c1.1-0.5,2.2-0.1,3.3-0.3c2-0.4,2.2,0.8,1.2,2.3
		C129.3,24.5,128.7,24.7,128.1,24.9z"/>
	<path class="st120" d="M129.3,24c0.2-0.8,1.1-2.1-0.8-1.4c-1.3,0.5-2.1-0.1-3.1-0.5c5.2-2,10.5-3.8,16.2-3.9c1.4,0,2.6-0.4,3.7-1.2
		c1.7,1.6,4.4,0.3,6,2c-2.7,0.7-5.4,1.3-8,2C138.7,22.9,134.3,24.8,129.3,24z"/>
	<path class="st121" d="M129.3,24c4.7-1,9.3-2,14-3c1,0.2,2.3-0.2,3,1c-5.3,1.4-10.6,2.7-15.9,4.1c-0.4-1-1.4-0.9-2.2-1.1
		C128.5,24.6,128.9,24.3,129.3,24z"/>
	<path class="st122" d="M144.3,118.1c-1.7,0.7-3.3,1.4-5,2c-3.4,0.2-6.2,2.9-9.8,2.2c0,0-0.2-0.3-0.2-0.3c-0.7-1.1-0.3-2.2,0.6-2.4
		c5.4-1,9.8-4.8,15.2-5.6C146.7,115.7,145.3,116.8,144.3,118.1z"/>
	<path class="st123" d="M45.3,245.1c-0.4,0-0.7-0.1-1.1-0.1c1.8-1.6,6.2-1.9,3-6c0.2-2.8,2.9-2.8,4.4-4.1c2.2-1.8,1.5-5,3.4-6.9
		c1.6-1.9,3.3-3.8,5.6-4.9c3.5-1.8,5.4-0.6,5.5,3.2c0.1,1.9,0.5,4-1,5.7c-1.7,3.9-5.4,5.9-8,9C53.5,243,49.8,245.1,45.3,245.1z"/>
	<path class="st124" d="M52.3,236.1c-1.7,1-3.7,1.4-5,3c-2.7,0-5.3,0.3-7.9,1.1c-0.8-0.9-4.1,1.9-3-2c0.3-0.1,0.6-0.1,0.9-0.2
		c2.1-0.4,3-2.3,4.2-3.8c0.3,0,0.6,0,0.9-0.1c0.7-0.5,1.4-0.8,2.1-1.1C50.1,231.5,51.7,232.2,52.3,236.1z"/>
	<path class="st125" d="M73.3,214.1c-1.4-4.3-5.1-2.8-8-2.9c-5-0.3-4.8-0.4-2.8-4.8c2.9-6.5,5.6-13.1,10.8-18.2c1.2-0.7,2.5-1.2,4-1
		c-1.9,2.4-4.3,4.2,1.5,5.4c3.7,0.8,4.4,6.3,4.1,9.7c-0.5,4.8-2.6,9.4-7.5,11.8C74.7,214.1,74,214.1,73.3,214.1z"/>
	<path class="st126" d="M65.3,232.1c0-1.3,0.1-2.6,0-3.9c-0.2-1.7,1-4-1.2-4.7c-1.8-0.6-3.3,0.9-4.7,2.1c-1.3,1.2-2.7,2.4-4,3.5
		c-3.5,2.7-4.6,2.3-6-2c2.8-2.1,3.7-5.5,5.4-8.2c3.9-6.2,5.2-7,12.2-5.4c1.8,0.4,3.6,0.5,5.4,0.6c-2,4.8-5.1,9.2-5,14.7
		C67.3,230.3,67.4,231.9,65.3,232.1z"/>
	<path class="st127" d="M73.8,232.1c-1.4-0.2-3.2,0.3-3.4-1.8c-0.2-2.5,1.8-2.3,3.4-2.3c1.4,0,3.2-0.3,3.4,1.8
		C77.4,232.3,75.4,232,73.8,232.1z"/>
	<path class="st128" d="M161.3,65.1c-4.1,2.9-5.5,6.5-2.6,11c1.4,2.2,1,3-1.5,4.3c-6.4,3.2-10.9,8.2-12,15.7
		c-0.2,0.3-0.6,0.6-0.9,0.8c-1.4,0.3-2.6,1.1-4.1,1.2c-0.7,0-1.3,0-2,0c3.4-4.5,5.4-9.7,7.2-15.1c1.8-5.3,6.1-9,9-13.6
		c0.7-1.1,2-2.1,2.1-3.3c0.7-6.6,5.6-7.3,10.6-8.1c0.4,3.2-2.4,4.1-4,6C162.4,64.1,161.7,64.3,161.3,65.1z"/>
	<path class="st118" d="M163.3,64c0.1-2.8,3.1-3.7,4-6c0.7,0,1.3,0,2,0c0,0.7,0,1.3,0,2c-1.2,1.9-2,4.3-5,4
		C164,64.1,163.6,64.1,163.3,64z"/>
	<path class="st129" d="M145.3,114.1c-4.6,2.7-9,5.9-14.6,6.2c-1,0-1.2,0.9-1.4,1.8c-1.5-0.1-3.6,0.7-4.2-1.3
		c-0.4-1.3,1.3-2,2.3-2.8c1.2-0.9,1.9-2.2,2-3.7c1.4-1.4,3.3-2,4.7-3.4c2.4-2,3.6-5,6.7-6.3c4.1-1.8,5.5-1.1,5.8,3.2
		c0.1,1.9,0.3,3.9-0.7,5.8C145.7,113.7,145.5,113.9,145.3,114.1z"/>
	<path class="st130" d="M134.3,112c-1.2,1.7-2.9,2.3-4.9,2.2c0-0.4,0-0.8-0.1-1.2c3.9-3.3,4.3-9.2,9-11.9c1,0,1.9,0.2,2.3,1.3
		C138.8,105.8,136.2,108.7,134.3,112z"/>
	<path class="st131" d="M140.3,102.1c-0.8,0-1.6-0.2-2-1c0.3-0.3,0.7-0.7,1-1c1.9-1.1,3.2-2.9,5-4c0.3,0,0.6,0,0.9-0.1
		c2.1,0.2,2.6,1.8,2.9,3.5c1,4.8,2.5,9.5,2.1,14.6c-2.3,0.9-3.1,3.9-6,4c0.3-1.3,0.7-2.7,1-4c0,0,0,0,0,0
		C148.6,107.2,147.7,105,140.3,102.1z"/>
	<path class="st118" d="M144.3,96.1c-0.9,2.4-2.3,4-5,4c0.3-0.7,0.7-1.3,1-2C141.1,96.3,142.6,95.9,144.3,96.1z"/>
	<path class="st132" d="M49.3,227.1c1.4,2.6,3.2,3.8,6,2c-1.4,2.1,0.5,5.7-3,7c-1.8-4.1-5-2.5-8-2.1c0.2-2.4-0.1-5,3-5.9
		C48,227.7,48.6,227.4,49.3,227.1z"/>
	<path class="st133" d="M47.3,228.1c-1,2-2,3.9-3,5.9c-0.7,0-1.3,0.1-2,0.1c2.2-4.4,2.8-9.6,7-13C49.9,223.8,46.7,225.4,47.3,228.1z
		"/>
	<path class="st106" d="M121.3,59c1,0.4,2,0.7,2.9,1.1c-1.6,1.1-3.5,1.8-4,4c-1.5-0.9-3.3-1.9-2.7-4C118.2,58,120.3,60.3,121.3,59z"
		/>
	<path class="st133" d="M41.4,234.2c1,3.9-1.4,4.1-4.2,3.8c1-1.3,1.3-3.2,3-3.9C40.7,234.1,41.1,234.1,41.4,234.2z"/>
	<path class="st134" d="M102.3,49.1c1.6-1.9,4.4-0.6,6.1-2.1c2.1,0.1,3.3,0.9,2.9,3.2c0.4,2.4-4.3,0.8-3,3.9
		c-1.1,3.1-2.1,1.7-2.9-0.1c-0.7-1.6-0.8-3.6-3.1-3.9C102.3,49.8,102.3,49.4,102.3,49.1z"/>
	<path class="st135" d="M111.3,50.1c-1-1.1-1.9-2.1-2.9-3.2c-0.4-1-1.8-1.8-0.3-2.9c0.4-0.3,0.8-0.4,1.2-0.3
		c2.2,1.5,3.2,4.1,5.3,5.7c0.9,0.9,2,1.6,3.1,2.3c0.9,0.9,2.2,1.7,1.6,3.4c0,0.3,0,0.7-0.1,1c-0.7-0.3-1.4-0.6-2.1-0.9
		C115.2,53.5,113.3,51.8,111.3,50.1z"/>
	<path class="st111" d="M150.3,29.1c-1.5,5.1-4.3,6.5-10,5C142.6,30.4,147.6,32,150.3,29.1z"/>
	<path class="st136" d="M114.3,50c-2.4-1.3-3.8-3.5-5.1-5.9c2.3-3.7-0.8-6.2-2-9.2c3.6-3.9,8.1-6.5,13.2-7.7c0,0.3-0.1,0.5-0.1,0.8
		c0.2,2.1-3.4,3.2-1.6,5.7c-0.1,0.3-0.1,0.7,0,1c0.6,2.3,4.5,3.6,2.9,6.3C119.5,44.3,118.1,48.1,114.3,50z"/>
	<path class="st137" d="M118.3,34c-0.9-0.9-1.7-1.9-2.6-2.9c1-1.8,3.7-1.2,4.6-3c3.1-0.5,4.1,1.3,4.2,3.9c-1.7,0.7-3.4,1.4-5.2,2.1
		C119,34.4,118.6,34.4,118.3,34z"/>
	<path class="st138" d="M164.3,64.1c2.2-0.7,2.4-3.8,5-4c1.9-0.2,3.9-0.5,6.1-0.8c0.1,3.9-1.7,7-4.3,9.7c-1.6,1.7-3.7,1.3-5.5,0.6
		C162.8,68.5,164.4,66,164.3,64.1z"/>
	<path class="st139" d="M119.3,55.1c-0.7-1-1.4-2-2.1-2.9c2.6-3.6,6.7-5.3,10-8c1.6,2.2,6.6,2.6,4.8,6.5
		C129.4,56.4,125.9,57.2,119.3,55.1z"/>
	<path class="st140" d="M127.3,44.1c-2.1,4.3-6.3,5.8-10,8c-1.4-0.1-2.4-0.8-2.9-2.1c2.2-2.7,3.2-6.1,5.9-8.4
		c1.6-1.4,0.4-2.5-0.5-3.7c-0.8-1.1-3.4-1.7-1.4-3.8c0.3,0,0.7,0,1,0c1.1,2.8,4.9,3.1,6,6C123.2,42.7,126.4,42.9,127.3,44.1z"/>
	<path class="st141" d="M107.2,35c1.3,1.5,2.1-1.3,3.7-0.2c-1.1,1.6-1.8,3.3,0.1,5.2c2.6,2.5,0.5,3.5-1.8,4.2
		c-0.4-0.1-0.7-0.1-1.1-0.2c-0.4-1.4-0.8-2.8-1.1-4.2c-0.4-2.1-1.5-2.5-3.9-0.9C104.2,36.5,105.3,35.3,107.2,35z"/>
	<path class="st122" d="M140.3,102.1c3.3-0.4,6.4-0.1,7.5,3.5c1,3.2,1.3,6.5-2.6,8.4c0-1.3,0.1-2.6,0-3.9c-0.2-1.9,1-4.9-1-5.3
		c-2-0.3-4.6,1.2-6.3,3.1c-1.3,1.4-1.1,4-3.7,4.1C135.1,108,137.4,104.9,140.3,102.1z"/>
</g>
<g>
</g>
<g>
</g>
<g>
</g>
<g>
</g>
<g>
</g>
<g>
</g>
<g>
</g>
<g>
</g>
<g>
</g>
<g>
</g>
<g>
</g>
<g>
</g>
<g>
</g>
<g>
</g>
<g>
</g>
</svg>
