<?xml version="1.0" encoding="utf-8"?>
<!-- Generator: Adobe Illustrator 18.0.0, SVG Export Plug-In . SVG Version: 6.00 Build 0)  -->
<!DOCTYPE svg PUBLIC "-//W3C//DTD SVG 1.1//EN" "http://www.w3.org/Graphics/SVG/1.1/DTD/svg11.dtd">
<svg version="1.1" id="Layer_1" xmlns="http://www.w3.org/2000/svg" xmlns:xlink="http://www.w3.org/1999/xlink" x="0px" y="0px"
	 viewBox="0 0 167.9 252" style="enable-background:new 0 0 167.9 252;" xml:space="preserve">
<style type="text/css">
	.st0{fill:#19161D;}
	.st1{fill:#101F2A;}
	.st2{fill:#1D2832;}
	.st3{fill:#1D567A;}
	.st4{fill:#244E64;}
	.st5{fill:#1E3449;}
	.st6{fill:#1B2333;}
	.st7{fill:#09091E;}
	.st8{fill:#0B182E;}
	.st9{fill:#0D1F2A;}
	.st10{fill:#1A2231;}
	.st11{fill:#16292B;}
	.st12{fill:#215665;}
	.st13{fill:#163145;}
	.st14{fill:#24637E;}
	.st15{fill:#10253C;}
	.st16{fill:#152940;}
	.st17{fill:#090E17;}
	.st18{fill:#122135;}
	.st19{fill:#1A3F52;}
	.st20{fill:#1C697E;}
	.st21{fill:#0D1627;}
	.st22{fill:#276371;}
	.st23{fill:#213F55;}
	.st24{fill:#3A6E5A;}
	.st25{fill:#1F3346;}
	.st26{fill:#1E2E45;}
	.st27{fill:#2B523A;}
	.st28{fill:#296C7F;}
	.st29{fill:#24495F;}
	.st30{fill:#275B70;}
	.st31{fill:#286176;}
	.st32{fill:#1D4556;}
	.st33{fill:#225866;}
	.st34{fill:#379C97;}
	.st35{fill:#468467;}
	.st36{fill:#1A3D4E;}
	.st37{fill:#265872;}
	.st38{fill:#1F3449;}
	.st39{fill:#579655;}
	.st40{fill:#2B6C7E;}
	.st41{fill:#2F7585;}
	.st42{fill:#6CF0C1;}
	.st43{fill:#5BC193;}
	.st44{fill:#81D569;}
</style>
<g id="ForeRighLow.svg">
	<path class="st0" d="M167.8,19c0,75.7,0,151.3,0,227c-2.2,1.8-4.8,1.7-7.1,0.8c-7.5-2.8-15.2-2.7-23-1.7c-4.1-0.5-6.8-3.8-10.3-5.5
		c-3.1-1.5-5.9-3.5-9.1-4.8c-1.3-0.5-2.9-1-2.5-3c1.4-1.2,3.1-1,4.7-1.2c2.4-0.2,4.8-0.2,5.8-3c1-3,1.1-6-1-8.5
		c-3.8-4.6-13.2-3.4-15.8,1.9c-1.2,2.3-1.3,5.3-4,6.7c-2.2,0.7-4.4,0.8-6.5-0.4c-1.3-1.8-0.3-3.9-0.5-5.8c0.5-6.3-1.9-12.1-2.8-18.1
		c-2.2-14.7-3.1-29.3-1.7-44.1c0.2-2.4,0.6-4.6-1.7-6.3c-1.8-3-3.5-5.6-7.8-5.9c-3.9-0.3-5.3-4.1-5-7.6c1.1-12.7,1.7-25.4,4.5-38
		c2.5-11.6,7.9-21.9,11.8-32.8c1.2-3.3,2.2-6.8,2.1-10.2c-0.1-9.5,6.4-13.7,13.3-17.7c1.3-0.8,2.8-1.1,4.2-1.6
		c10.6,1.4,16.7-6.5,24.2-11.5c7.6-5.1,16.3-6.9,24.9-9.4C165.7,18,166.9,18.1,167.8,19z"/>
	<path class="st1" d="M167.8,252c-11.1,0.3-21.9-1-32-6c-0.1-0.9,0.3-1.5,1-2c3.6,0,7.1-1,10.7-1.1c4.6-0.2,8.7,1.4,12.9,2.6
		c2.5,0.7,4.9,0.4,7.3,0.6C167.8,248,167.8,250,167.8,252z"/>
	<path class="st2" d="M167.8,19c-13.2,3-26.3,6.2-36,16.6c-4.6,4.9-10.2,4.6-16,4.4c-1.3,0.7-2.7,0.7-4.1,0.2
		c-0.6-4.7,3.6-2.8,5.6-4c3.7-0.1,6.9-1.7,10.1-3.5c2.3-0.5,3.7-2.2,5.3-3.6c8.8-8.4,20.3-10.9,31.4-14c1.3-0.4,2.6-0.1,3.7,0.9
		C167.8,17,167.8,18,167.8,19z"/>
	<path class="st3" d="M149.9,6.3c5.3-3.1,11.7-3,16.9-6.3c2.1,2.4,0.5,5.4,1,8c-4.8,3.8-10.1,6.7-16.5,6.6c-2.2-2.6,1.6-2.9,1.6-5.1
		C152.4,8.4,149.5,8.8,149.9,6.3z"/>
	<path class="st4" d="M150.8,14c6.2-0.4,11.2-4.3,17-6c0,1.3,0,2.7,0,4c-1,2-3,2.5-4.9,3c-5.5,1.4-10.7,3.4-16.1,5.1
		c-4.8,1.5-9.4,3.5-12.5,7.8c-0.7,0.9-1.5,1.9-2.9,1.1c-1-1.5-0.9-3-0.3-4.6C135.7,16.9,142.8,14.7,150.8,14z"/>
	<path class="st5" d="M131.9,29c5.5-8.9,15.1-10.1,23.9-13c4-1.3,8.1-2.7,12.1-4c0,1.3,0,2.7,0,4c-7.9,1-15.1,3.8-22.6,6.4
		c-7,2.4-11,8.7-17.4,11.6C127.6,31,129.6,29.9,131.9,29z"/>
	<path class="st6" d="M111.8,40c1.4,0,2.7,0,4.1,0c-2.6,1.4-5.3,2.7-7.7,4.3c-5.4,3.5-8.4,7.8-8.8,14.9c-0.5,9.4-5.3,17.9-9.1,26.5
		c-4.4,9.8-5.6,20.6-7.5,31.1c-1.3,6.9-0.3,13.8-1.7,20.7c-1.2,6.1,0.7,8,7.2,8.4c4.2,0.3,3,4.1,4.7,6c1.4,2.2,2,4.4-0.6,6.2
		c-2.9-2.9-6-4.8-10.2-5.8c-4.2-1-5.6-5.3-6.2-9.4c-0.5-3.5-0.3-6.9,0.5-10.4c1-4.7,1.3-9.5,1.6-14.3c1.9-5.7,2.3-11.7,3.5-17.5
		c1.9-9.5,4.5-18.7,9.1-27.3c2.5-4.7,3.7-10,3.2-15.4c-0.5-5.5,1.7-9.6,5.7-13.1c2.3-1.9,3.9-4.5,6.7-5.9
		C108.1,38.6,110,38.5,111.8,40z"/>
	<path class="st7" d="M136.8,244c0,0.8-0.2,1.5-1,2c-7.8-2.5-16.1-2.8-23.9-5c-12.5-3.6-25-7.8-32.4-19.9c0.8-0.9,1.8-1,2.7-0.5
		c5.3,2.8,11.1,4.3,16.6,6.4c2.3,0,4.7,0,7,0c4.3-0.3,6.9,3,10,5C123.1,235.6,130.1,239.6,136.8,244z"/>
	<path class="st8" d="M98.8,227c-5.5,0.5-10.2-1.8-14.8-4.3c-1.5-0.8-2.8-1.7-4.5-1.6c-1.5-1.2-2.9-3.2-4.6-3.5
		c-6.3-1.1-8.6-6.1-11.7-10.5c-4.1-5.8-8-11.8-13-16.8c-7.7-7.7-13.2-16.8-16.7-27.1c2.9-2,4.2,0.6,5.6,2.1c2.7,3,4,6.8,6.2,10.1
		c1.6,2.3,2.8,4.9,5.2,6.6c5.7,7.5,11.4,15.2,18.1,21.8c6.8,6.7,13.3,14,22.7,17.5c2.7,1.3,5.8-0.9,8.5,0.8
		C99.9,223.8,99.8,225.5,98.8,227z"/>
	<path class="st9" d="M115.8,232c-4.2,0-6.4-3.9-10-5c0.5-1.4,1.1-2.8,1.6-4.2c2.6-7.5,10.4-10.5,17.1-6.3c4.4,2.7,4.1,7.1,3.3,11.5
		c-0.8,3.9-3.9,3.9-7,4C119.2,232,117.5,232,115.8,232z"/>
	<path class="st10" d="M99.8,222c-3,0.5-6,2.2-9,0c3.1-3.2,4.9-6.7,2.8-11.2c-3.4-12.2-4.9-24.7-4.1-37.3c0.3-5.2,0.1-10.5,2.3-15.5
		c1.8-1.8,0.7-4,1-6c3.7,1.2,3.2,4.2,2.8,7c-1.2,9-0.5,18-0.2,27.1c0.4,11,2.4,21.5,4.9,32.1C100.6,219.3,100,220.7,99.8,222z"/>
	<path class="st11" d="M127.8,110.2c-0.1,5.5-3.1,8-8.7,10.1c-5.7,2.1-10.4,2.1-15.5-1.3c-6.8-4.5-7.8-11.8-1.9-17.4
		c6.2-5.9,15.3-9,22,0.7C127.4,107.4,127.9,107,127.8,110.2z"/>
	<path class="st12" d="M2.1,115c0.4-2.9,1.1-5.7,3-8c1.3-0.4,2.2,0.5,3.1,1.1c3.8,2.4,6.2,1.9,8.1-1.6c2-3.7,1-6.4-3.2-8.2
		c-0.9-0.4-1.9-0.5-2.5-1.4c0.6-1.6,1.5-3,2.9-4c0.9-0.5,1.7-1.1,2.7-1c6.6,0.6,11-3,14.4-8c3.4-5,7.3-9.8,10.1-15.2
		c0.2-0.4,0.5-0.8,0.8-1.1c4-3.4,7.9-7,11.3-11c1.3-0.8,2.7-1.2,4.2-1.1c0.5,0.1,0.9,0.4,1.2,0.9c0.9,2.4-0.9,3.6-2.3,5
		C42.7,74.9,34.2,90.9,32.5,110c-1.4,16.6-0.4,32.8,10.1,47.1c6.3,8.5,10.4,18.5,16.9,27c5.9,7.6,11.6,15.3,19.3,21.3
		c0.3,0.4,0.6,0.8,0.7,1.4c0.1,0.8,0,1.5-0.4,2.2c-2.5,1.1-3.5-1.1-4.9-2.3c-1.7-1.4-3.5-2.5-5.2-3.7c-7-6.9-13.8-13.9-18.5-22.7
		c-3.7-9.3-9.3-17.5-15.4-25.4c-3.3-4.3-7-8.5-9.5-13.3c-4.6-8.9-11.3-15.3-20.7-18.8C1.8,121,4.5,117,2.1,115z"/>
	<path class="st13" d="M51.8,180c1,3.6,3.8,6.2,6.1,8.9c3.8,4.5,7.2,9.4,11.9,13.1c4.7,5.4,10.7,9.3,16.5,13.4
		c5.3,3.2,5.3,3.2,8.6-3.4c2.1,5.6,1.5,7-4,10c-5.4-0.8-8.9-4.7-12.9-7.9c-11.1-8.8-19.6-19.9-28.1-31.1
		c-6.9-11.7-14.6-22.8-24.9-31.8c-2.5-2.2-4.1-5.2-5.7-8.1c-2.2-4.1-5.4-7-9.5-9.1c-3.6-1.9-5.6-5.4-8.7-7.9c-2-1.6-0.5-3.3-0.2-4.9
		c0.4-2.1,0.8-4.2,1.2-6.3c5.1,0.7,0.6,5.1,2.8,7c1.8,3.5,4.8,5.8,8.2,7.7c4.5,2.5,7.7,6.1,10.3,10.5c3.5,6.1,8.8,10.7,13.3,16
		C42.7,163.5,46.7,172.1,51.8,180z"/>
	<path class="st14" d="M150.8,14c-2.1,1.3-4.5,2-6.9,2.5c-5,0.9-8.4,4.5-12.1,7.6c-0.4,0.3-0.9,0.5-1.4,0.6c-0.5,0-1-0.2-1.4-0.4
		c-6-4.8-12.5-2.9-19-1.3c-0.8,0-1.5-0.1-2.2-0.5c-0.3-0.4-0.5-0.8-0.5-1.3c3.2-4.3,8-5.6,12.8-6.2c2.2-0.2,3.2-0.8,3.7-2.8
		c8.9-1.2,17.6-2.6,26.1-5.7c0.1,0.1,0.2,0.3,0.3,0.4C155.2,9.7,155.2,9.7,150.8,14z"/>
	<path class="st15" d="M123.8,12c1.2,2.6,0.1,3.9-2.5,3.9c-5.1,0-9.2,2.9-13.6,5c-7.8,4.2-15.1,9.3-22.6,13.9c-3.1,1.9-5.8,4.4-9,6
		c-5.2,1.8-8.3,6.3-12.5,9.5c-2.4,1.8-4.2,4.8-8,3.9c-1.3-2.3,0.7-3.3,2-4.3c4.1-3.2,7.8-6.9,11.7-10.4c4.4-3.2,8.3-6.9,13.3-9.3
		c1.6-0.8,3-2.1,3-4.2c10-7.6,22-10.4,33.8-13.6C120.8,11.9,122.4,12.1,123.8,12z"/>
	<path class="st16" d="M17.8,87c3.9-7,10.4-11.9,15.4-18.1c2.9-3.6,5.6-7.4,9.5-10c1.2-0.6,2.4-1.2,3.8-1c2.4,0.6,3.5,1.6,0.9,3.3
		c-2.5,1.7-4,4.3-5.5,6.8l0,0c-3.9,2.2-6.4,5.6-8.4,9.5c-2,4-4.7,7.7-8.6,10.1C21.7,89.6,20.1,89.4,17.8,87z"/>
	<path class="st17" d="M85.7,25.9c1.9,0.9,2.2,2,0.4,3.3c-5.4,3.7-10.8,7.2-16.2,10.8c-4,3.2-7.6,6.8-11.8,9.7
		c-2,1.4-3.9,3.3-6.5,1.2C60.7,39.5,72.2,31.4,85.7,25.9z"/>
	<path class="st18" d="M9.7,134c4.2-0.2,7.1,2.4,8.8,5.5c4,7.6,10,13.4,15.9,19.5C41,166,45.7,174.4,49.8,183
		c-3.9-3-5.7-7.5-8.3-11.5c-2.1-3.3-3.1-7.9-8.2-8.4c-1.6-1.7-3.2-3.4-4.7-5c-4-3.9-6.3-9.6-12-11.8C13.5,142.7,12.2,138,9.7,134z"
		/>
	<path class="st19" d="M17.8,87c2.9,2.2,5.4,0.6,7.6-1.2c3.5-2.9,5.7-6.8,7.9-10.7c1.9-3.3,3.4-7.5,8.5-7.1C38,76.4,33,84,26.2,90.4
		c-3.8,3.5-8.3,2.6-12.7,2.5C14.7,90.7,15.9,88.6,17.8,87z"/>
	<path class="st20" d="M10.6,96.9c3.5-0.1,6.8,0.7,7.8,4.5c0.9,3.5-0.5,6.5-3.3,8.6c-4.6,3.5-7-0.9-10-3.1
		C6.9,103.7,8.8,100.3,10.6,96.9z"/>
	<path class="st21" d="M51.5,50.9c6.4,0,9.5-5.5,14.2-8.4c1.4-0.8,2.2-2.6,4.1-2.5c-3.3,4.8-8.2,7.9-12.4,11.7
		c-0.8,0.7-1.5,1.2-1.6,2.3c-0.9,1.8-2.9,1.9-4.3,2.9c-2,0-4.3,2.5-5.7-0.9C47.7,54.3,49.6,52.6,51.5,50.9z"/>
	<path class="st8" d="M16.7,146.3c0.5-0.8,1.2-1.4,2-0.8c4.1,3.6,8.3,7.1,10,12.6C24,154.8,19.2,151.7,16.7,146.3z"/>
	<path class="st22" d="M45.7,55.9c2,1.7,4-0.6,6-0.1c1.7-0.2,3.1-1.6,5-1.2c0.4,0.4,0.5,0.8,0.1,1.3c-1.4,0.4-2.7,0.7-4.1,1.1
		c-1.6,2-4,1.1-6,1.8c-1.4,0-2.7,0-4.1,0C43.6,57.8,44.3,56.5,45.7,55.9z"/>
	<path class="st23" d="M111.8,40c-2,0-4,0-5.9,0c-4.4,2.4-7.2,6.5-10.8,9.8c-1,1-1.5,3.3-3.7,1.9c-0.7-1.2-0.8-2.5-0.6-3.8
		c4.4-7,10.4-11.5,18.8-12.3c2.8,0.3,5.8-0.9,8.3,1.4C116.4,39.3,112.5,36.3,111.8,40z"/>
	<path class="st24" d="M117.8,37.1c-3,0-6-0.1-9-0.1c-0.3-0.5-0.3-0.9,0.2-1.4c1.6-1.1,3.5-0.9,5.3-1c7.6-0.3,13-4.1,16.6-10.6
		c0.3,0,0.7,0,1,0c0,1.6,0,3.3,0,4.9c-1.3,1.7-2.7,3.3-4,5C124.6,35.3,121.8,38,117.8,37.1z"/>
	<path class="st25" d="M94.8,212c0.1,2.6,0.4,5.6-2.7,6.7c-2.6,0.9-4.8-0.4-6.3-2.6c6.7-1.4,4.3-6.7,4.6-10.8
		c-0.2-5.2-1.4-10.2-2.1-15.3c-1.3-8.8-0.2-17.5,0.1-26.3c0.2-6.6-0.7-7.6-7-9.5c-4.4-1.3-6.6-4-6.9-8.7c-0.2-4.3-0.1-8.6,0-13
		c0-0.9,0.1-1.7,0.4-2.5c0.9-3,1.7-5.9,1.7-9.1c0-1.6,0-3.4,1.9-4.1c0.7,0.2,0.8,0.6,0.4,1.2c0.3,5.7-0.5,11.2-1.7,16.7
		c-0.9,4.1-0.5,8.3,1,12.2c1,2.6,3,5.3,6.2,4.9c4.9-0.5,6.4,2.4,7.6,6.1c0.5,7.1-1.2,14.1-1.1,21.3c0.1,9.1,0.7,18.1,3.4,26.9
		C94.7,208.1,94.9,210,94.8,212z"/>
	<path class="st26" d="M78.8,118c0-0.3,0-0.7,0-1c-1.8-2-1.1-4.3-0.7-6.6c1.3-7.8,3.1-15.5,4.4-23.3c0.1-5,2.4-9.4,4.5-13.6
		c2.5-5.1,3.9-10.2,3.5-15.8c-0.1-1.9-0.3-4,1.4-5.6c3.2-3.4,6.5-6.8,9.7-10.2c1.2-1.3,2.5-2,4.3-1.8c-0.4,0.5-0.7,1.2-1.2,1.6
		c-7.7,5.6-11.1,13-10,22.7c0.5,4.1-1.7,8.3-3.7,11.7c-6.5,10.9-7.7,23.1-10.1,35.1C80.4,113.4,80.2,115.9,78.8,118z"/>
	<path class="st27" d="M113.6,101c7,0,10.4,3,10.3,8.9c-0.1,5.5-5.1,10-11.3,10c-5.3,0.1-10.8-5-10.8-10.1
		C101.9,103.8,105.6,100.9,113.6,101z"/>
	<path class="st22" d="M78.8,206c-6-2.3-9.4-7.6-13.4-12.1c-11.7-13.4-19.3-29.6-28.8-44.5c-4.5-7.1-5.3-15.3-5.7-23.4
		c-1-17,1.9-33.1,10.6-48.2c4.2-7.2,9.9-12.7,15.1-18.8c0.9-1,1.1-1.9,1.1-3.1c1.3-1.2,2.8-1.3,3.9,0c1.3,1.4,0.1,2.8-0.7,4
		c-2.7,4-6.4,7.1-9.3,11c-8.6,12.2-12.9,26-13.5,40.7c-0.4,9.4-1.1,19,0.9,28.4c2.3,11,9.1,19.9,13.8,29.8c6,12.3,15.6,21.9,24.5,32
		C78.2,203.1,79.5,204.3,78.8,206z"/>
	<path class="st28" d="M50.8,70c2.9-3.5,5.9-6.9,8.8-10.4c0.7-0.8,2.2-1.5,1.6-2.7c-0.6-1.5-2.3-0.7-3.5-0.9c-0.3,0-0.7,0-1,0
		c0-0.3,0-0.7,0-1c1.8-1.3,3.6-2.5,5.8-3.1c1.6-0.2,3.3-0.4,4.6-1.6c5.1-5,10.9-9.2,16.6-13.6c2.4-1.9,4.7-3.5,7.6-4.5
		c3.7-1.3,6.5-3.9,9.5-6.3c2-1.6,3.5-4.6,6.9-3.8c0.7,0,1.4,0,2,0c0.3,1-0.2,1.6-0.9,2.1c-3.7,2.9-4.4,6.3-1.8,10.3
		c-0.1,0.5-0.4,0.9-0.8,1.2C94.3,37.1,89.1,46.3,84,55.7c-1.3,2.4-1,5.2-0.4,7.8c1.1,4.9,0.3,9.6-2.1,14c-2.5,4.6-3.8,9.5-4.6,14.6
		c-0.1,0.5-0.2,1-0.4,1.5c-2.1,3.5-0.8,8.4-4.7,11.1c-0.8,0.1-1.6,0-2.2-0.5c-1.7-2.7-0.9-5.4-0.4-8.2c1.4-7.2,3.9-14.1,6.6-20.9
		c1.4-3.5,1.9-7,1-10.8c-0.7-3.3-0.5-6.6,0.6-9.9c0.4-1.2,1.1-2.5,0-3.9c-7.3,2.6-11.9,8.2-15.9,14.4c-1.8,2.8-3.8,5.1-7,6
		C53.2,71.2,51.9,71.1,50.8,70z"/>
	<path class="st29" d="M91.8,52c1.7,10.7-2.2,20-6.7,29.3c-0.9,1.8-1.5,3.7-1.3,5.7c-2.5,7.2-3.7,14.6-5.1,22.1
		c-1.3,6.9-1.9,14-2.9,20.9c0,0.7,0,1.3,0,2c-1.7,5.2-1.3,10.5-0.5,15.7c0.6,3.6,2.5,6.2,6.6,7c5.5,1.1,7,3.1,6.8,8.6
		c-0.6,11.4-0.7,22.8,1.1,34.1c0.4,2.9,0.8,5.9,2,8.6c0,1.8,0,3.6,0,5.4c0,5.6-0.4,5.9-6,4.6c-6.2-3.6-12.2-7.6-16-14
		c3.5,1.7,5.9,4.8,9,7c0.3-0.1,0.7-0.3,1-0.2c7.4,1.9,7.4,1.8,6.2-5.7c-1.3-8.2-1.8-16.5-1.6-24.9c0.1-2.8,0.3-5.7-0.1-8.5
		c-0.6-3.9-1-7.5-5.8-9.4c-5.3-2.1-7.6-7.5-7.9-13c-0.4-7,0.2-13.9,1.1-20.9c1-7.3,2.3-14.7,2.7-22.2c0-1.4,0.1-2.8,0.6-4.1
		c3.5-10.9,7.3-21.6,11.1-32.4c1.1-3.1,0.3-6.6-0.1-9.9c-0.7-5,1.5-8.5,5.8-9.8C91.8,49.3,91.8,50.7,91.8,52z"/>
	<path class="st30" d="M75.8,104c-1.1,8.7-2.1,17.3-3.2,26c-1,8-2.3,16,1.3,23.8c1.1,2.3,2.6,4.9,4.9,5.3c6.5,1.3,6.6,6.4,6.9,11
		c0.6,9.3-0.4,18.6,1,27.8c0.4,2.8,1,5.5,1.2,8.3c0.2,1.8,1.2,3.7-0.6,5c-2.1,1.5-4.1,0.4-6-0.7c-0.9-0.5-1.6-1.1-2.5-1.7
		c0-0.7,0-1.3,0-2c6.2-1,6.3-1.1,5-7.5c-1.6-7.8-1.8-15.8-1.4-23.7c0.2-3.2-0.5-6.3-1.2-9.4c-0.3-1.3-0.9-2.4-2.3-3
		c-7.8-3.4-9.6-10.5-10.3-18c-0.9-9.7,0.9-19.2,2.5-28.7c0.5-3.1,0.1-6.3,1.4-9.3C73.1,105.8,73.3,103.8,75.8,104z"/>
	<path class="st31" d="M75.8,104c-2.7,1.2-2.5,4.1-2.7,6c-0.8,11.5-4.4,22.8-3.3,34.5c0.7,7.5,1.8,14.5,10.3,18.1
		c4.1,1.7,3.6,7.3,3.5,11.2c-0.1,9.4-0.1,18.7,2,27.9c0.5,2.1,1.1,4.8-1,6.6c-2.3,1.9-3.7-1.6-5.8-1.3c0-0.3,0-0.7,0-1
		c-0.7-1-1.3-2-2-3c5.8-1,5.8-1,4.8-7.3c-1.3-8-2.6-16.1-2.3-24.3c0.1-3-0.9-5.6-3.6-7.2c-5.6-3.3-7.6-8.6-8.2-14.6
		c-1.4-13.8,0.2-27.5,2.5-41.1c0.3-1.6,0.5-3.3,1.8-4.6c2.3-3.3,1.4-7.8,4-11c1.6,2.3,1.2,4.7,0,7C75.8,101.3,75.8,102.7,75.8,104z"
		/>
	<path class="st32" d="M51.8,180c-3.8-1.9-4.7-6-6.4-9.3c-5.2-10.1-14.1-17.2-20.4-26.2c-4.8-6.9-9.9-13.1-17.7-16.9
		c-2.1-1-2.6-3.3-2.5-5.6c6.7,2,13.2,4.6,16.8,10.8c5.8,10.1,13.4,18.9,19.9,28.5C45.4,167.3,49.9,173,51.8,180z"/>
	<path class="st19" d="M46.8,58.9c1.8-1.2,3.8-1.9,6-1.8c-2.2,5.1-6.4,8.2-10.9,10.9c0.2-4,1.7-6.9,5.8-8.1c0.1,0,0.2-0.2,0.3-0.3
		C47.5,59.4,47.2,59.1,46.8,58.9z"/>
	<path class="st33" d="M107.8,22c-4.1,1.6-6.2,6-9.9,7.9c-11.4,5.7-21.4,13.1-30.4,22c-1.4,1.3-3,1.1-4.6,1.1
		c-0.6-2.5,1.5-3.5,2.9-4.7c3.3-2.9,6.3-6.1,10.2-8.3c9-6.3,17.8-12.9,27.7-17.8c1.4-0.7,2.7-1.3,4.3-1.2
		C107.8,21.3,107.8,21.6,107.8,22z"/>
	<path class="st34" d="M106.8,34c-4.6-2.7-2.7-5.9-0.5-8.9c0.9-1.3,2.4-2.1,3.6-3.2c4.8-2.5,9.9-2.4,15-1.8c2.1,0.3,4,1.6,5,3.8
		c-0.5,2.3-0.1,5.3-3.8,5.3c-1.7-1-1.3-4.1-4-4.1c-2.5-0.8-5-1-7.5-0.9c-5.7,1.1-7,3-5.5,8.6c0.1,0.5,0,1-0.3,1.4
		C108,34.6,107.4,34.6,106.8,34z"/>
	<path class="st35" d="M106.8,34c0.7,0,1.4-0.1,2-0.1c0.6-0.7,1.4-1.1,2.2-1c5.5,0.5,10.3-1.2,14.9-3.9c2.8-0.5,2.6-3.4,3.9-5
		c0.3,0,0.7,0,1,0.1c-1.5,8.8-8.7,11-17.1,11.9c-1.6,0.2-3.3,0-5,0c-0.3,0.3-0.6,0.4-1,0.3c-0.6-0.3-0.9-0.7-1-1.3
		C106.8,34.7,106.8,34.4,106.8,34z"/>
	<path class="st36" d="M75.8,40c-3.8,4.9-9.6,7.7-13,13c-2,0.7-4,1.4-6,2.1c-1.7,0.3-3.4,0.6-5.1,0.9c1.1-1.1,2.5-1.7,4-1.9
		c6.1-2,9.6-7.6,14.6-11.1C72.1,41.6,73.3,39.6,75.8,40z"/>
	<path class="st37" d="M107.8,36c0.3,0,0.7,0,1,0c0,0.3,0,0.7,0,1c-7.6,0.7-12.7,5.3-17,11c-3.6,2.8-5.6,6-4.2,11.1
		c1.9,7.1-1.7,13.5-4,19.9c-2.3,6.4-5,12.6-6.1,19.3c-0.1,0.6-1.1,1.1-1.7,1.7c0-2.3,0-4.7,0-7c0,0,0,0,0,0
		c1.8-6.2,3.8-12.3,6.5-18.2c1.9-4.2,2.6-8.9,1.6-13.6c-0.9-4.3,0.1-8.2,2.8-11.7c3.3-4.4,7.2-8.3,11.4-11.8
		C100.8,35.2,104.3,35,107.8,36z"/>
	<path class="st38" d="M91.8,206c-3.1-2.3-2.5-6-2.9-9.1c-1.4-10.9-1.5-21.8-1.1-32.7c0.2-4.9-1.2-7.9-6.7-8.4
		c-3.1-0.3-5.1-2.1-5.9-5.7c-1.4-6.2-3.1-12.2,0.6-18.2c0,4.3,0,8.7,0,13c0,4.6,1.9,7.5,6.8,8.1c4.9,0.6,7.1,3.7,7.2,8.6
		c0.1,4.8-0.7,9.6-0.9,14.4c-0.4,8.3,1,16.5,2.4,24.6C91.6,202.4,91.8,204.2,91.8,206z"/>
	<path class="st38" d="M75.8,130c-0.3-14.1,3.4-27.6,6.3-41.3c0.1-0.7,1.1-1.1,1.7-1.7c-1.5,7.9-2.8,15.8-4.4,23.6
		c-0.4,2.1-0.5,4.2-0.6,6.4C76.7,121.1,78.8,126.1,75.8,130z"/>
	<path class="st39" d="M113.1,117c-5,0-8.8-2.9-8.9-6.7c-0.1-3.5,4.8-7.4,9.3-7.3c4.9,0.1,8.5,3.2,8.4,7.3
		C121.7,114.3,118.2,117,113.1,117z"/>
	<path class="st40" d="M71.8,104c-1.1,9.5-2.6,18.9-3.2,28.5c-0.4,7.8-0.6,15.8,1.7,23.4c0.9,3.1,2.7,5.6,6,6.9
		c3.4,1.4,4.8,4.1,4.6,8c-0.5,9,1,17.8,2.5,26.5c0.4,2.4,1.4,5.1-0.8,7c-2.2,2-3.7-1.6-5.8-1.3c-2.8-4-6.2-7.4-9.5-10.7
		c-9.9-10.1-15.4-23-22.4-34.8c-10.9-18.4-9-37.7-6.2-57.4c1.5-11,5.8-21,12.2-30c1.3,0,2.7,0,4,0c1,2.3,0,4.4-1.3,6.1
		c-6.1,8.2-8.4,17.7-9.8,27.4c-2,14.2-2.9,28.4,1.3,42.5c1.3,4.3,3.5,7.9,5.6,11.6c4.9,8.5,9.4,17.2,15.1,25.2
		c3,4.2,6.8,7.5,11,10.8c0.1-8.1,0.2-15.9-1.8-23.7c-0.2-0.8-0.8-1.5-1.5-2c-8.8-6.6-9.9-15.8-9.3-25.9c0.4-6.1-0.6-12.2,0.2-18.4
		c0.9-6.1,2.4-12.1,3.5-18.1c0.2-1,0.6-1.9,2-1.7C70.5,104,71.2,104,71.8,104z"/>
	<path class="st41" d="M69.8,104c-1.6,6.4-2.8,12.8-4.1,19.2c-1.6,7.9-0.2,15.8-0.4,23.6c-0.3,7.5,0.9,16.2,9.7,20.3
		c2.8,1.3,1.8,4.1,2,6.2c0.8,6.6,1.3,13.2,1.8,19.7c0.1,1.1,0.2,2.6-1.1,3.1c-1.4,0.6-2.4-0.5-3.4-1.4c-10.2-10-16.4-22.7-24-34.5
		c-9-13.9-10.3-29.2-9.3-44.9c0.7-12.1,2.7-24.1,8.1-35.1c1.7-3.5,4.9-6.2,5.8-10.2c5.8-2.9,7.6-9.3,11.7-13.7
		c3.2-3.4,7.6-4.7,10.8-7.8c1-0.9,2.3-0.2,2.4,1.3c0.2,1.7,0.2,3.3-0.8,4.8c-1.7,2.8-1.8,6-1,8.7c2.2,6.8-0.8,12.5-3.1,18.2
		C72,88.8,70.1,96.2,69.8,104z"/>
	<path class="st31" d="M107.8,36c-12.9,0.1-24.6,14.2-22.2,26.8c0.9,4.4-0.9,8.3-2.5,12c-2.5,6.1-3.9,12.6-7.4,18.2
		c0-5.6,1.8-10.7,4.3-15.6c2.4-4.6,3.5-9.2,1.9-14.4c-1-3.2-0.1-6.4,1.4-9.6c3.3-7.1,9-12.1,14.6-17.2c2.5-2.3,5.8-0.9,8.6-1.2
		C107.1,35.3,107.5,35.7,107.8,36z"/>
	<path class="st42" d="M113.7,23.1c3.2-0.4,6.3-0.2,9.3,1c2.4,3.7,0.3,7.9-4.4,8.8c-1,0.2-2,0.1-3,0.1c-2.8,0-6,0.4-6.7-3.4
		C108.3,25.9,110.7,24.2,113.7,23.1z"/>
	<path class="st43" d="M113.7,23.1c-1,0.8-2.1,1.6-3,2.6c-1.3,1.4-1.2,3.1-0.6,4.7c0.6,1.4,1.9,1.5,3.3,1.7
		c6.8,0.7,10.7-2.6,9.5-7.9c3.4,0.2,2.7,2.8,3,4.9c-4.3,6.5-10.9,5-17.1,4.9C105.1,28.5,107,24.4,113.7,23.1z"/>
	<path class="st44" d="M117.9,109.9c0.3,3.2-1.5,4.2-4.5,4.2c-3,0-5.3-0.9-5.5-4.2c-0.2-3.5,2.5-3.7,5-3.9
		C115.6,105.8,118,106.2,117.9,109.9z"/>
</g>
<g>
</g>
<g>
</g>
<g>
</g>
<g>
</g>
<g>
</g>
<g>
</g>
<g>
</g>
<g>
</g>
<g>
</g>
<g>
</g>
<g>
</g>
<g>
</g>
<g>
</g>
<g>
</g>
<g>
</g>
</svg>
