<?xml version="1.0" encoding="utf-8"?>
<!-- Generator: Adobe Illustrator 18.0.0, SVG Export Plug-In . SVG Version: 6.00 Build 0)  -->
<!DOCTYPE svg PUBLIC "-//W3C//DTD SVG 1.1//EN" "http://www.w3.org/Graphics/SVG/1.1/DTD/svg11.dtd">
<svg version="1.1" id="Layer_1" xmlns="http://www.w3.org/2000/svg" xmlns:xlink="http://www.w3.org/1999/xlink" x="0px" y="0px"
	 viewBox="0 0 124.3 174.2" style="enable-background:new 0 0 124.3 174.2;" xml:space="preserve">
<style type="text/css">
	.st0{fill:#18141B;}
	.st1{fill:#1B141C;}
	.st2{fill:#1E1D1E;}
	.st3{fill:#2A1C25;}
	.st4{fill:#263C3F;}
	.st5{fill:#382A32;}
	.st6{fill:#22292B;}
	.st7{fill:#232A2E;}
	.st8{fill:#2C0F16;}
	.st9{fill:#3F2B2D;}
	.st10{fill:#170E12;}
	.st11{fill:#0B040B;}
	.st12{fill:#590101;}
	.st13{fill:#4C0404;}
	.st14{fill:#882138;}
	.st15{fill:#802734;}
	.st16{fill:#331821;}
	.st17{fill:#591422;}
	.st18{fill:#6B2034;}
	.st19{fill:#3E121B;}
	.st20{fill:#040A2F;}
	.st21{fill:#441B2B;}
	.st22{fill:#721E2D;}
	.st23{fill:#241419;}
	.st24{fill:#1B0C0F;}
	.st25{fill:#130101;}
	.st26{fill:#270102;}
	.st27{fill:#360F12;}
	.st28{fill:#1F0001;}
	.st29{fill:#340201;}
	.st30{fill:#EF0102;}
	.st31{fill:#C3080E;}
	.st32{fill:#D80303;}
	.st33{fill:#321519;}
</style>
<g id="ForeLeftUp.svg">
	<path class="st0" d="M28.2,166.3c-8,1.6-16.2,2.4-23.7,5.9c-1.5,0.7-3,1.4-4.5,2c0-22,0-44,0-66c6-3.5,10.7,0.7,15.1,3.4
		c4.2,2.6,8.3,3.7,13.1,3.2c-0.9-1.4-2.3-1.9-3.5-2.7c-7.1-4.7-10.2-11.1-8.3-19.7c1.1-5,1.7-10.2,0.5-15.3
		c-0.3-1.3-0.1-2.7,0.6-3.9c1.2-1.3,2.6-2,4.4-1.2c1,6.7,0.6,13.5-0.2,20.2c-0.7,5.6,0.8,9.2,5.5,12.6c9.3,6.8,19.7,8.2,30.7,8.1
		c2,0,3.9-0.8,5.7-1.6c5.1-2.1,9.5,1.2,8.1,6.6c-3.6,12.9-9.7,24.1-21.8,31.5C42.1,154,34.2,159,28.2,166.3z"/>
	<path class="st1" d="M0,59.2c0-18.7,0-37.3,0-56c2.6-0.5,3.5,1.5,4.4,3.2c1.5,3,3.6,5.6,5.7,8.1c3.2,3.9,5.6,4.2,9.8,1.1
		c4.4-3.3,7.6-7.9,11.4-11.9c3.7-3.9,5.2-4,9.1-0.6c0.1,0.5-0.1,1-0.4,1.4C30.1,8.6,25.4,16.2,25,26.7c-1.3,5.7-2,11.4-5.6,16.6
		c-2.4,3.4-1.2,8.7-3.7,12.6c-1,1.5-1.4,3.4-3.3,4.1C8.2,60.7,4,61.6,0,59.2z"/>
	<path class="st2" d="M0,59.2c4.3,0,8.7,0,13,0c1.1,0.3,2,1.3,1.6,2.1c-1.7,4.2,0.5,7.1,3,10c0.4,0.5,0.5,1.2,0.4,1.9
		c1.5,7.7,0.5,15.3-0.8,23c-1,6.4,2.9,11.2,8.3,14.7c2,1.3,4.4,2.2,6.1,5c-6.3,0-11.9,1.3-17.4-3.5c-3.5-3.1-8.7-5.4-14.2-4.3
		c0-2.3,0-4.7,0-7c0.6-0.6,1.3-0.9,2.2-1.1c12-2.3,16.3-14.5,8.8-24.4c-2.9-3.8-7.1-5.3-11-7.5C0,65.2,0,62.2,0,59.2z"/>
	<path class="st3" d="M40,3.2c-3.1-2.4-5.5-1.6-7.9,1.3c-3.9,4.6-7.4,9.7-12.7,13c-4.4,2.8-6.7,2.1-10.2-1.7C5.7,11.9,4.3,6.5,0,3.2
		c0-1.7-0.7-3.6,2.5-3.1C5.7,0.5,8.9,0.2,12,0.2c1,1,1.1,2.3,1.5,3.6c2.1,5.9,6.9,6.9,11.3,2.3c1.8-1.9,2.7-4.6,5.1-5.9
		c3.7,0,7.3,0,11,0C42,1.6,41.4,2.5,40,3.2z"/>
	<path class="st4" d="M0,94.2c0-5.7,0-11.3,0-17c4.3-1.6,8.2-0.3,11.1,3.6c2.7,3.8,2.7,8,0,11.5C8.3,95.7,4.8,96.3,0,94.2z"/>
	<path class="st5" d="M30,0.2c-1.3,2.5-2.5,4.9-4.5,7.1c-2.4,2.7-5.3,3.8-8.4,2.7c-3.3-1.2-5.1-4.1-5.1-7.8c0-0.7,0-1.3,0-2
		C18,0.2,24,0.2,30,0.2z"/>
	<path class="st6" d="M0,68.2c11.6,1.1,15.6,9.9,15.9,19.8c0.2,8.8-5.5,13.2-15.9,13.2c0-1,0-2,0-3c1-1,2.3-1.1,3.6-1.3
		c5.7-1.1,8.9-4.5,9.4-9.8c0.4-4.6-3.1-9.9-7.5-11.8c-1.8-0.8-4-0.6-5.5-2.1C0,71.5,0,69.8,0,68.2z"/>
	<path class="st7" d="M0,73.2c8.5,0.2,14.7,5.6,13.8,13.2C13,94.2,11.8,98.8,0,98.2c0-1.3,0-2.7,0-4c2.9-0.4,6.1,1,8.7-1.2
		c2.4-2.1,4-4.6,3.1-7.9c-1.1-4.2-4.2-6.7-8.3-7.8C2.4,77,1.2,77.2,0,77.2C0,75.8,0,74.5,0,73.2z"/>
	<path class="st8" d="M51,0.2c4.3,4.1,9.9,6.4,15,9.3c1.2,1.8,0.2,3.2-0.7,4.7c-0.4,0.3-0.9,0.4-1.4,0.3c-3.7-1.5-6.8-3.9-9.9-6.3
		C52,6.5,49.7,5.4,47,5.3c-0.7-0.1-1.4-0.4-2-0.9c-0.8-2.1,0.6-3.2,2-4.2C48.4,0.2,49.7,0.2,51,0.2z"/>
	<path class="st9" d="M47,0.2c-0.7,1.3-1.4,2.6-2,4c-1.6,1.4-3.3,1.4-4.9,0c0-0.3,0-0.7,0-1c0.3-1,0.7-2,1-3C43,0.2,45,0.2,47,0.2z"
		/>
	<path class="st10" d="M28.2,166.3c-1.9-1.3-0.6-2.4,0.4-3.1c2.5-1.8,4.7-5.1,6.9-6c5.7-2.4,9.6-6.9,14.7-9.9
		c7-4.1,12.8-9.8,15.8-17.8c1.3-3.6,2.7-7.1,4.2-10.6c1.1-2.4,0.9-4.6-1.1-6.4c-2-1.8-3.8-1.1-5.8,0.4c-1,0.7-2.4,1.2-3.7,1.3
		c-13.5,1-26-2-36.8-10.6c-2.1-1.7-3.2-4.3-2.8-6.6c1.4-8.2-0.2-16.6,1.8-24.7c5.3-5.2,14.2-6.5,21.1-3c5.3,2.7,10.5,5.6,14.1,10.7
		c1.7,2.4,4.2,4.2,6.2,6.4c2.8,3,5.9,4.2,9.8,2.5c0.6,0,1,0.2,1.4,0.6c3.7,5.6,5.4,11.6,4.7,18.3c-0.6,16.5-7.6,30.3-19.7,40.9
		c-6.7,5.9-14.9,10.4-22.9,14.8c-1,0.6-2.1,1-3,1.7c-0.8,0.6-1.9,0.5-2.8,0.9C30.1,166.1,29.2,166.2,28.2,166.3z"/>
	<path class="st11" d="M33.1,165.1c0.4-2.9,3.2-2.4,4.9-3.5c6.6-4.1,13-8.5,19.5-12.6c7.3-4.6,11.1-12.9,15.4-20.3
		c3.7-6.4,4.3-13.4,5.1-20.5c2.6-2.8,4.6-5.9,6.8-9c2.4-3.4,4-3.3,6.6-0.1c-0.1,3.5-3.1,6.4-2.4,10.2c-2.8,6.6-5.3,13.5-8.7,19.9
		c-4.6,8.6-8,17.6-10.6,27c-3,1.2-4.6,3.3-5.4,6.5c-0.6,2.7-2.2,4.9-5.7,3.6c-1.9-0.1-3.8-0.2-5.8-0.3c-5-0.7-10.1-0.1-15.2-0.3
		C36.3,165.6,34.6,166.2,33.1,165.1z"/>
	<path class="st12" d="M114,60c-2.3,1.4-4.7,2.8-7,4.2c-3.4,1.1-3.3,4.7-4.9,7.1c-3.9-1.2-2.3-4.8-3.3-7.3c-2.4,1.4-5,2-7.7,0.5
		c-1.2-3.4,3.1-3.1,3.6-5.3c3.3-5.4,1.7-10.3-1.4-15.2c-1.5-2.4-4.3-4.3-3.7-7.7c1.4-1.4,2.5-2.8,2.4-5c-0.1-1.8,0.5-3.5,2.1-4.7
		c1.2-0.6,2.6-0.6,3.9-0.3c3.9,1,7.9,1.8,11.9,1.9l0.1,0c0.7,2.2,1.7,4,3.5,5.7c2.9,2.9,5.5,6,6.6,10.3
		C121.6,50.8,119.7,56.2,114,60z"/>
	<path class="st13" d="M94.1,27.1c-0.2,1.9-1.6,3.7-0.9,5.6c1,3.3-1.1,3.4-3.3,3.5c-1,0.2-1.7-0.3-2.5-0.8c-1.1-1-2.3-1.9-3.9-2.4
		c-0.4-0.1-0.8-0.3-1.2-0.5c-5.7-0.7-10.2,3.2-10.9,9.4c-0.3,2.2,0.6,4.7-1.5,6.5c-0.6,0-1-0.2-1.3-0.6c-1.3-4.8-1.5-9.5,0.6-14.1
		c1.7-3.8,4.2-6.8,8.8-7.2c1.4-0.1,2.4-1,3.6-1.7c1.5-0.8,3-0.3,4.5-0.1c2.4,0.6,3.8-0.9,5.2-2.5c1.2,0.9,2.6,0.9,4,0.8
		C95.8,24.7,95.1,26,94.1,27.1z"/>
	<path class="st14" d="M114,60c9.3-10.2,5.6-19.2-2.8-26.4c-2.6-2.2-1.8-3.3-1.2-5.3c9.7,4.6,11.9,13.9,14,23.1
		c0.9,4.2-0.4,7.5-5.6,7.8C116.9,59.2,115.5,59.7,114,60z"/>
	<path class="st15" d="M94.1,27.1c-0.2-1.5,0.3-2.7,1-4c5.8-0.8,10.6,1.2,14.8,5.1c-3.6,3.2-7,0.2-10.5-0.2
		C97.6,27.8,95.8,27.4,94.1,27.1z"/>
	<path class="st16" d="M89.1,109.3c-2.8-4,0.5-6.9,2-10.1c3.5-2.4,6.8-5.4,11.4-5.8c0.7,1.3,0.6,2.5-0.4,3.6
		c-1.6,1.7-3.5,2.8-5.6,3.9C92.8,102.7,90.6,105.7,89.1,109.3z"/>
	<path class="st17" d="M86.1,26.1c-1.4-0.3-2.7-0.6-4.1-0.9c-4.4,1-6.7-1.6-8.7-4.8c-0.2-1.9,0.2-3.7,1.7-5c3.3,1.9,6.7,3.9,10,5.8
		C86.3,22.7,86.8,24.2,86.1,26.1z"/>
	<path class="st18" d="M102,71.1c0-3.5,0-7.1,5.1-7c-2.9,4.3-3.1,8.3,1.4,11.7c3.4,2.6,2,5.5,0.6,8.4c-1.9-0.6-2.1-2.4-2.9-3.9
		C105.7,76.9,102.1,74.8,102,71.1z"/>
	<path class="st19" d="M75,15.4c-0.3,1.6-0.7,3.2-1,4.8c-4.1-0.4-7-2.6-9-6c0.3-1.5,0.6-3.1,1-4.6C69.3,11,72.5,12.6,75,15.4z"/>
	<path class="st20" d="M58.8,166.3c3.5,0.1,4.9-2.8,4.9-5.1c0-4.7,2.4-5.5,6.2-5c-1.7,3.1-3.2,6.3-5,9.3
		C63.3,167.9,60.9,166.9,58.8,166.3z"/>
	<path class="st21" d="M107,80.2c0.7,1.4,1.4,2.7,2,4.1c-0.7,3-1.4,6-2.1,9c-0.6,2.6-2.7,3.3-5,3.8c0-1.3,0-2.6,0-3.8
		c0.1-1.7,1.4-2.9,2.2-4.3C106,86.2,104.9,82.7,107,80.2z"/>
	<path class="st22" d="M86.1,26.1c-1-1.5-1.1-3.2-1-4.9c2.1-0.1,4.1,0.1,6,1.1C91.6,26.5,88.9,26.4,86.1,26.1z"/>
	<path class="st0" d="M33.1,165.1c6.6,0.6,13.3-0.9,19.9,0.9c-7.3,0-14.6,0-22,0C31.7,165.6,32.4,165.4,33.1,165.1z"/>
	<path class="st23" d="M73,89.2c-2.9,3.8-6,2-8.5-0.2c-3.7-3.3-7.3-6.9-10.4-10.8c-5.4-6.9-16.6-10.8-25-8.2
		c-2.4,0.7-4.7,1.5-7.1,2.2c-1.3,0.3-2.7,0.7-4,1c-1.1-1.2-2.1-2.6-3.2-3.7c-2-1.9-3.9-3.7-1.3-6.6c1.1-1.2,0-2.5-0.5-3.7
		c3.2-11.2,8.6-21.6,11-33c6.1,1.7,12.4,3.1,17.8,6.6c1.6,1,3.4,2.1,3.8,4.3c0,0.5-0.2,1-0.5,1.4c-3.6,2-3.9,5.5-5,9.1
		c-2.8,10,1.2,15.9,10.1,19.5c6.5,5.9,12.7,12.1,19.8,17.3C71.6,85.6,73.6,86.7,73,89.2z"/>
	<path class="st24" d="M45,37.2c-3.2-3.8-7.4-5.8-12.1-7c-3.2-0.8-6.3-2-8.9-4c-1-8.7,4-14.5,9.6-20c1.7-1.7,4-2.2,6.4-2
		c1.6,0,3.3,0,4.9,0c0.7,0,1.4,0,2,0c0.3,3.5-2.6,3.8-4.8,4.7c-2.8,1.1-5.7,1.8-7.7,4.2c-3,3.6-2.8,6.9,0.9,9.8
		c3.2,2.6,7.4,3.8,10.1,7.1c0.4,2.6,3.2,4.5,2.3,7.5C46.8,38.1,45.9,37.9,45,37.2z"/>
	<path class="st25" d="M45,30.2c-3.1-1.9-6.2-3.8-9.3-5.6c-2.9-1.7-5.3-3.6-4.6-7.4c0.7-3.9,3.1-6.4,6.6-8C40.9,7.6,45.1,8,47,4.2
		c2.6-0.2,4.8,0.6,6.8,2.3c3.3,2.7,6.8,5.1,10.1,7.7c1.2,1.4,1,3.1-0.4,3.9c-3.7,2.3-4.7,6.2-6.7,9.7C53.8,33.4,49.3,34.2,45,30.2z"
		/>
	<path class="st26" d="M45,30.2c6.4,2.5,9.5,1.3,11.9-5.1c1.2-3.1,1.9-6.4,5.8-7.5c1.5-0.4,1.3-2.1,1.3-3.5c0.3,0,0.7,0,1,0
		c3,2,6,4,9,6c2.2,2.5,4.7,4.3,8,5c-0.7,1.5-1.4,2.8-3.5,3c-5.6,0.7-9.3,4.8-9.5,10.4c-0.1,3.2,0,6.3,0,9.5
		c-0.5,0.5-1.5,0.9-1.7,0.6c-3-4.8-8.7-3.1-12.6-5.4c-2.6-1.7-5.9-2.5-6.6-6.2C46.6,35,44.3,33.2,45,30.2z"/>
	<path class="st27" d="M48,37.2c2.2,1.9,4.3,3.9,7,5c2,2.5,4.7,4.1,6.8,6.5c1.7,1.9,3.2,3.8,3.4,6.5c0,0.7,0,1.4,0.6,1.8
		c1.4,1,4.2-0.5,4.5,2.1c0.9,9.5,9,17.5,5.5,27.8c-0.3,1-0.9,1.8-1.8,2.3c-0.3,0-0.7,0-1,0c-2.7-3.8-6.6-6.4-10.3-9
		c-4.8-3.4-8.3-8.2-12.7-12c0.1-0.9,0.6-1.5,1.1-2.2c5.2-5.4,5.3-7.3,0.3-13.1c-3.6-4.3-5.1-9.4-6.5-14.7c0-0.3,0-0.7,0-1
		C46,37.2,47,37.2,48,37.2z"/>
	<path class="st28" d="M74,89.2c0-0.8,0.2-1.6,1-2c8.9-11.3,6.2-11.4,20.7-8c0.6,0.2,1.3,0.3,2,0.4c8.5,1.3,8.9,1.8,7.4,10.6
		c-1,1-2,2.1-3,3.1c-3.2,2.9-6.7,5.2-11,6c-2.4-2.8-4-1.5-5.6,1c-2,3.1-3.1,7.1-7.4,8C79.4,101.3,75.9,95.4,74,89.2z"/>
	<path class="st29" d="M105,90.1c-0.2-2-0.2-3.9-0.5-5.9c-0.3-1.9-1.3-3.2-3.7-3.1c-4.2,0.2-8.2-0.9-12.1-2.2
		c-3.8-1.3-6.4-0.4-8.2,3.1c-1.2,2.4-2.5,4.7-5.5,5.1c0.3-6.5,0.1-12.9-3.1-18.9c-0.5-1-0.8-2.7-1.6-3c-4.2-1.6-3-3.8-0.8-5.8
		c-0.3-1.2-1.2-1.4-1.7-1.1c-3.3,2-4.2,0.7-3.8-2.6c0.3-2.4-1-4-2.5-5.7c-2.3-2.6-5.7-4.1-6.5-7.9c2.9,0.9,5.4,3.1,8.8,0.9
		c1.8-1.1,2.1,1,2.1,2.2c0,2.2,0.9,3,3,2.9c0.3,0,0.7,0,1,0c2-0.4,2.4,1.4,3.1,2.6c2.3,4.3,5.8,7.2,10.2,9.2
		c1.1,0.3,2.1,0.8,3.1,1.4c1.4,1.1,3.3,1.4,4.5,2.7c2.8-0.4,6.5,1.9,7.5-3c0-0.2,0.9-0.5,1.2-0.3c1.1,0.5,1.2,1.4,0.8,2.5
		c-1,2.9,0.3,5.4,1.5,7.9c2.2,2.7,4.8,5.2,5.1,9C107.2,83.6,106.9,87,105,90.1z"/>
	<path class="st30" d="M85.9,62.2c-1-0.4-1.9-0.8-2.9-1.2c-1.9-4-8.8-3.9-8.6-8.8c0.2-3.9,2.3-7.7,2.5-11.9c0.2-3.7,1.5-7.5,6.2-8.4
		c0.3,0,0.6,0,0.9,0.1c1.3,1,0.7,4.5,3.9,3.2c0.6,0.3,1.2,0.6,1.8,0.9c1.6,2.5,3,5.1,4.7,7.4c4,5.2,4.5,10.7,1.5,16.5
		C92.7,61.1,89.8,64.2,85.9,62.2z"/>
	<path class="st31" d="M85.9,62.2c3.7,0.8,6.4-2.9,10.1-2.1c-0.8,2.6-4.2,1.6-5.1,3.9C89,64.1,87.2,63.8,85.9,62.2z"/>
	<path class="st32" d="M83.2,32.1c-4.1,3.2-5.6,7.5-5.2,12.6c0.2,2.1,0.2,4-2,6.1c-2.6,2.4,0.5,4.5,2.7,5.2c2.8,0.9,4.4,2.1,4.3,5.1
		c-4.4-1.5-7.6-4.5-10.1-8.4c-1-1.5-1.9-3-2.9-4.5c-0.3-5.1-0.1-10,3.6-14.3C76.2,31,80.2,29.9,83.2,32.1z"/>
	<path class="st32" d="M88,35.4c-1,0.7-1.9,2.5-3,1.8c-1.8-1.1-0.7-3.3-1-5C86.2,32.1,87.1,33.7,88,35.4z"/>
	<path class="st33" d="M45,38.2c3.7,5.5,5.2,12.2,9.8,17.5c3.3,3.7,3.2,8.2-2.4,10.8c-0.9,0.4-1.6,1.2-2.3,1.8
		c-2.7-1.5-4.9-3.8-8.3-4.3c-2.4-0.3-3.8-2.4-3.6-4.7c0.4-5.6,1-11.2,1.7-16.7C40.2,39.6,42,38,45,38.2z"/>
</g>
<g>
</g>
<g>
</g>
<g>
</g>
<g>
</g>
<g>
</g>
<g>
</g>
<g>
</g>
<g>
</g>
<g>
</g>
<g>
</g>
<g>
</g>
<g>
</g>
<g>
</g>
<g>
</g>
<g>
</g>
</svg>
